<?xml version="1.0" encoding="UTF-8" standalone="no"?>
<!-- Created with Inkscape (http://www.inkscape.org/) -->

<svg
   xmlns:dc="http://purl.org/dc/elements/1.1/"
   xmlns:cc="http://creativecommons.org/ns#"
   xmlns:rdf="http://www.w3.org/1999/02/22-rdf-syntax-ns#"
   xmlns:svg="http://www.w3.org/2000/svg"
   xmlns="http://www.w3.org/2000/svg"
   xmlns:sodipodi="http://sodipodi.sourceforge.net/DTD/sodipodi-0.dtd"
   xmlns:inkscape="http://www.inkscape.org/namespaces/inkscape"
   id="svg2"
   version="1.1"
   inkscape:version="0.91 r13725"
   width="229.17719"
   height="300.96176"
   viewBox="0 0 229.17719 300.96176"
   sodipodi:docname="mercuryimages.svg">
  <metadata
     id="metadata8">
    <rdf:RDF>
      <cc:Work
         rdf:about="">
        <dc:format>image/svg+xml</dc:format>
        <dc:type
           rdf:resource="http://purl.org/dc/dcmitype/StillImage" />
        <dc:title></dc:title>
      </cc:Work>
    </rdf:RDF>
  </metadata>
  <defs
     id="defs6" />
  <sodipodi:namedview
     pagecolor="#ffffff"
     bordercolor="#666666"
     borderopacity="1"
     objecttolerance="10"
     gridtolerance="10"
     guidetolerance="10"
     inkscape:pageopacity="0"
     inkscape:pageshadow="2"
     inkscape:window-width="1920"
     inkscape:window-height="986"
     id="namedview4"
     showgrid="false"
     fit-margin-top="0"
     fit-margin-left="0"
     fit-margin-right="0"
     fit-margin-bottom="0"
     inkscape:zoom="2.1423445"
     inkscape:cx="242.15142"
     inkscape:cy="157.2736"
     inkscape:window-x="0"
     inkscape:window-y="27"
     inkscape:window-maximized="1"
     inkscape:current-layer="svg2" />
  <path
     style="fill:#000000"
     d="m 27.158139,298.97126 c 0.53303,-2.80111 12.14158,-10.62812 14.44949,-9.74248 0.96177,0.36906 2.94665,0.0299 4.41086,-0.75374 1.99443,-1.06739 2.7817,-1.06626 3.13862,0.005 0.72749,2.18247 13.38427,1.8241 15.25666,-0.43199 0.84958,-1.02367 2.03697,-1.55699 2.63864,-1.18514 0.60168,0.37187 3.60003,-0.43245 6.66301,-1.78735 3.06297,-1.3549 5.74133,-2.02228 5.95191,-1.4831 0.21057,0.5392 2.91411,-0.62081 6.00786,-2.5778 5.51861,-3.49086 5.18426,-4.34057 -1.45176,-3.6895 -2.53452,0.24867 -4.10626,-1.92346 -2.23061,-3.08267 2.31513,-1.43083 18.910371,-1.96338 18.055021,-0.5794 -1.141871,1.84759 1.05074,1.51001 3.82594,-0.58905 2.40068,-1.81579 2.40057,-1.83566 -0.0111,-1.875 -3.51932,-0.0574 -0.95079,-1.86611 5.08253,-3.57903 6.94072,-1.97053 7.48077,-1.8622 4.90499,0.98402 -2.16545,2.39278 -2.10981,2.43097 2.61876,1.7971 2.65717,-0.35619 5.81637,-0.84137 7.02045,-1.07815 1.20407,-0.2368 1.874,0.0795 1.48872,0.70288 -0.38524,0.62287 -0.0716,1.1329 0.69709,1.1329 0.76865,0 1.0499,0.5625 0.625,1.25 -0.4249,0.6875 -1.90452,1.25 -3.28806,1.25 -2.7816,0 -6.69057,3.2294 -5.09935,4.21283 0.55373,0.34222 1.82367,0.1055 2.82209,-0.52616 0.99843,-0.63162 4.34657,-1.16562 7.44032,-1.18667 3.09375,-0.021 6.43347,-0.54985 7.42162,-1.17511 1.19239,-0.75449 3.38272,-0.32765 6.5127,1.26915 4.73102,2.41359 8.16932,3.30464 4.99847,1.29539 -1.17645,-0.74549 0.69935,-1.87995 6.15451,-3.72219 4.3157,-1.45744 8.06676,-2.42985 8.33569,-2.16091 0.26893,0.26892 -2.39642,1.44734 -5.92299,2.61867 -11.0537,3.67145 -6.17409,3.13024 6.89422,-0.76466 7.26188,-2.16434 16.66233,-3.97036 22.48078,-4.31904 12.67765,-0.75972 9.17338,1.14605 -5.63569,3.06493 -11.62211,1.50592 -25.18254,5.54796 -36.86431,10.98836 -5.73131,2.66918 -6.85195,3.58951 -4.75198,3.90264 1.5114,0.22536 3.98452,-0.252 5.49579,-1.06081 2.27764,-1.21895 2.951,-1.10745 3.93545,0.65166 1.16388,2.07974 2.75419,2.05527 10.16478,-0.15635 1.50416,-0.44891 2.04175,-0.21044 1.50036,0.66554 -0.57776,0.93485 0.41059,1.11423 3.13587,0.56918 3.02294,-0.60458 3.84462,-0.3911 3.41819,0.88817 -0.69034,2.071 -7.07824,3.91436 -10.17811,2.9371 -1.2538,-0.39528 -3.92619,-0.0366 -5.93863,0.79692 -2.91843,1.20885 -4.05457,1.18729 -5.61355,-0.1065 -1.1304,-0.93815 -5.60091,-1.6959 -10.60213,-1.79705 -4.75617,-0.0962 -9.00992,-0.53726 -9.45279,-0.98012 -0.44286,-0.44288 -2.38947,0.014 -4.32579,1.01535 -2.10286,1.08742 -3.81695,1.34102 -4.25655,0.62973 -0.40479,-0.65496 -1.70233,-0.85136 -2.88344,-0.43645 -1.75136,0.61524 -1.85926,0.44378 -0.58497,-0.92958 2.46696,-2.65875 1.83394,-4.02732 -1.5625,-3.37804 -2.14695,0.41041 -3.125,0.0417 -3.125,-1.17805 0,-0.97649 -0.46129,-1.49034 -1.02509,-1.14189 -0.5638,0.34845 -2.39193,0.92005 -4.0625,1.27023 -1.67058,0.35017 -4.303041,1.00763 -5.849911,1.46101 -2.09679,0.61456 -2.8125,0.3101 -2.8125,-1.19645 0,-2.47089 -0.0951,-2.4741 -4.54462,-0.15349 -1.96921,1.02701 -4.49325,1.87076 -5.60898,1.875 -1.11573,0.004 -4.50783,1.10438 -7.53799,2.44476 -3.03016,1.34039 -9.29323,2.82473 -13.91793,3.29855 -6.89632,0.70654 -8.15458,1.16748 -6.99645,2.56293 1.1664,1.40544 0.006,1.70146 -6.66731,1.70146 -4.44367,0 -10.84067,0.83766 -14.21556,1.86148 -7.5526,2.29115 -7.02568,2.31528 -6.52821,-0.29898 z M 131.26583,281.61539 c 2.25668,-1.562 2.01835,-1.70663 -2.8125,-1.70663 -4.50215,0 -5.27814,0.37994 -5.27814,2.58424 0,2.10664 0.51977,2.42204 2.8125,1.70663 1.54687,-0.48269 3.92204,-1.64559 5.27814,-2.58424 z M 6.8483389,292.33191 c -2.93722,-2.93722 -2.72448,-6.96978 0.34041,-6.4525 1.12635,0.19012 2.40479,-0.23176 2.8409501,-0.9375 0.45279,-0.73262 -0.4162301,-1.28315 -2.0254601,-1.28315 -2.25414,0 -1.66606,-0.73086 2.9369001,-3.64996 3.16547,-2.00749 8.04657,-5.71991 10.8469,-8.24984 3.98583,-3.60096 4.84257,-5.06497 3.94522,-6.74168 -1.6254,-3.0371 0.9642,-7.59352 6.21014,-10.92674 2.39623,-1.52255 5.34116,-3.64881 6.54429,-4.72503 3.10621,-2.77855 2.72918,-1.24368 -1.5625,6.36074 -2.0625,3.65455 -3.75,6.93441 -3.75,7.28858 0,1.71483 4.88683,0.34083 6.96839,-1.95925 1.29572,-1.43177 4.10964,-3.33598 6.25315,-4.23159 2.14351,-0.89563 5.15393,-3.66169 6.68982,-6.14681 3.37753,-5.46497 4.65415,-5.9713 1.97041,-0.78152 -1.06283,2.0553 -1.89509,4.16468 -1.84945,4.6875 0.12055,1.381 6.28269,0.35509 10.28018,-1.7115 1.89062,-0.97741 3.4375,-1.29018 3.4375,-0.69507 0,1.28652 -7.06335,3.6448 -15.27489,5.09989 -5.95755,1.05568 -12.22511,4.27396 -12.22511,6.27736 0,1.50911 4.01264,2.90922 4.90006,1.70976 1.16506,-1.57471 6.16006,-4.10484 8.10381,-4.10484 0.98329,0 2.03891,-0.70312 2.34583,-1.5625 0.30692,-0.85937 0.94015,-1.21052 1.40717,-0.78033 0.46702,0.4302 -2.04232,2.85947 -5.57632,5.39838 -7.28455,5.23344 -7.49897,7.72637 -0.25206,2.93059 2.60112,-1.72134 5.86585,-3.49044 7.25495,-3.93132 1.38911,-0.44088 3.54591,-2.52877 4.79289,-4.63975 1.24699,-2.11098 2.55506,-3.55034 2.90683,-3.19858 1.45882,1.45883 -5.05525,8.26483 -10.37524,10.84019 -5.38166,2.60522 -5.67989,3.00972 -4.97787,6.7518 0.58866,3.13782 0.14848,4.51752 -2.07915,6.51686 -4.47317,4.01478 -17.26824,11.22694 -23.80708,13.41929 -7.28735,2.4433 -7.14382,2.44069 -7.14382,0.13037 0,-1.0734 -1.12597,-1.875 -2.63374,-1.875 -1.82754,0 -2.41349,0.57394 -1.91423,1.875 1.06581,2.77747 -2.5025501,2.32448 -5.5288801,-0.70185 z m 21.2471801,-5.47878 c 1.47886,-1.33685 6.46115,-4.47233 11.07176,-6.96773 4.7879,-2.59137 8.57129,-5.51366 8.82219,-6.81425 0.28902,-1.49824 -0.13856,-2.05966 -1.25,-1.64131 -7.28621,2.74256 -7.69107,2.67984 -6.9091,-1.07031 0.41009,-1.96668 0.43981,-2.87264 0.066,-2.01327 -0.37376,0.85938 -2.00574,1.5625 -3.62662,1.5625 -1.62089,0 -3.32168,0.60614 -3.77955,1.34699 -0.77183,1.24884 -8.04139,6.39528 -17.75256,12.56779 -4.45232,2.82994 -5.6710301,5.78405 -1.45544,3.52792 1.43388,-0.76738 2.93388,-1.06842 3.33334,-0.66897 0.39945,0.39945 0.07,0.72627 -0.73206,0.72627 -0.80208,0 -1.45833,0.43217 -1.45833,0.96035 0,2.1144 11.00426,0.89408 13.67033,-1.51598 z m 20.7643,-9.54085 c 0.3921,-0.63444 0.44633,-1.15352 0.12052,-1.15352 -1.59158,0 -18.81993,10.91934 -19.24624,12.19829 -0.52045,1.56133 17.91407,-9.08429 19.12572,-11.04477 z m -25.65056,-2.46718 c 0.73775,-1.3785 1.91109,-2.15425 2.60741,-1.7239 1.40897,0.87079 6.10852,-2.87905 6.10852,-4.87406 0,-0.70079 -1.30736,-0.046 -2.90523,1.45516 -1.59788,1.50114 -3.18321,2.45136 -3.52295,2.11163 -0.33973,-0.33974 -2.548,1.41316 -4.90726,3.89535 -3.16198,3.32672 -3.55778,4.13573 -1.50571,3.07762 1.53112,-0.78949 3.38747,-2.5633 4.12522,-3.9418 z m 9.41118,-14.65775 c -1.04322,-1.04322 -3.19447,1.16065 -3.1555,3.23269 0.0349,1.85581 0.26212,1.81981 1.86209,-0.29503 1.00228,-1.32481 1.58431,-2.64676 1.29341,-2.93766 z m 1.80475,-5.99155 c 0,-0.34375 -1.125,-0.0229 -2.5,0.71296 -1.375,0.73588 -2.5,1.61922 -2.5,1.96297 0,0.34375 1.125,0.0229 2.5,-0.71297 1.375,-0.73587 2.5,-1.61921 2.5,-1.96296 z m 6.92862,-9.91204 c 0.46077,-1.375 2.14395,-6.15625 3.74039,-10.625 1.97528,-5.52916 2.45189,-8.28473 1.49181,-8.625 -0.77595,-0.275 -1.64499,0.20252 -1.9312,1.06113 -1.43434,4.30302 -10.75302,12.37452 -15.65835,13.5627 -14.97547,3.62736 -30.9247901,5.93666 -28.80610014,4.17085 0.61041,-0.50875 4.20358004,-2.2726 7.98483004,-3.91968 9.0635201,-3.94798 10.2197901,-5.07323 4.2671201,-4.15268 -7.0996101,1.09792 -4.3698301,-0.83037 4.684,-3.30872 8.75373,-2.3962 11.08419,-4.99435 4.59055,-5.11783 -3.72925,-0.0709 -3.8736,-0.1971 -1.37499,-1.20202 1.84238,-0.74098 2.53471,-1.79245 2.03598,-3.09211 -1.04536,-2.72417 2.22142,-25.62664 3.65535,-25.62664 0.63966,0 0.80369,1.54688 0.36453,3.4375 -0.53041,2.28343 -0.41299,2.85917 0.34973,1.71485 0.63152,-0.94745 1.72557,-1.36581 2.43121,-0.9297 0.70565,0.43612 1.84913,-0.75745 2.54107,-2.65236 1.65173,-4.5233 1.85382,-0.41761 0.30727,6.24221 -1.21999,5.25355 -0.65428,6.12483 1.21742,1.875 1.00006,-2.2707 1.13561,-1.78908 0.70367,2.5 -0.29426,2.92188 -0.14845,5.3125 0.32402,5.3125 0.47248,0 0.96665,3.63088 1.09816,8.06862 0.18069,6.09716 -0.26981,8.57753 -1.84379,10.15151 -1.94387,1.94387 -2.2337,1.89667 -4.3421,-0.70709 -2.76273,-3.41182 -3.01323,-1.64584 -0.31332,2.20883 2.53524,3.61956 5.01182,3.51783 7.51916,-0.30885 1.63945,-2.50213 1.90513,-5.40325 1.40228,-15.3125 -0.34122,-6.72404 -0.92154,-13.06927 -1.28961,-14.10052 -1.13454,-3.1787 -1.55541,-12.32473 -0.53822,-11.69608 0.52828,0.3265 0.96051,1.64631 0.96051,2.93292 0,1.47424 1.04003,2.48699 2.8125,2.73873 2.1403,0.30397 2.86534,1.29571 3.03358,4.14943 0.22078,3.7451 0.21997,3.74555 -0.625,0.34698 -0.65192,-2.62209 -1.27396,-3.13603 -2.71063,-2.23955 -1.45082,0.9053 -1.53151,1.49651 -0.36367,2.66436 0.96332,0.96331 1.23451,3.44435 0.75715,6.92705 -0.50077,3.65346 -0.27987,5.42616 0.67616,5.42616 0.78095,0 1.41991,1.1582 1.41991,2.57378 0,1.41557 -0.51563,2.25509 -1.14583,1.8656 -0.63021,-0.38949 -1.14584,1.82731 -1.14584,4.92624 0,3.09891 0.21459,5.63438 0.47686,5.63438 1.88292,0 3.50269,-6.83472 3.22102,-13.59128 -0.18266,-4.38145 0.22926,-9.44395 0.91538,-11.25 0.68612,-1.80604 1.61816,-6.05059 2.0712,-9.43233 0.55135,-4.11559 1.17412,-5.58164 1.88348,-4.43387 0.58288,0.94311 0.80466,3.42873 0.49286,5.52361 -0.46208,3.10455 -0.3476,3.34659 0.61912,1.30887 1.05014,-2.21353 1.20118,-2.07031 1.31819,1.25 l 0.13215,3.75 1.78641,-3.125 1.78641,-3.125 0.0443,3.4375 c 0.0669,5.19283 2.07508,4.12229 3.59576,-1.91688 0.74154,-2.94492 4.47778,-10.33915 8.30275,-16.43164 6.23713,-9.93459 6.76319,-11.28864 5.09981,-13.12666 -1.89961,-2.09904 -1.93242,-14.42128 -0.0568,-21.33732 1.78668,-6.58812 1.82201,-11.87575 0.088,-13.17132 -0.95425,-0.71299 -2.65378,-5.21299 -3.77672,-10 -3.12483,-13.32094 -6.02404,-23.08252 -6.84389,-23.04322 -0.40677,0.0195 -2.6273,3.15376 -4.93451,6.96504 -2.3072,3.81127 -4.91922,7.20753 -5.80449,7.54724 -3.1704,1.2166 -19.88398,-8.55436 -28.10119,-16.42829 -4.48217,-4.294933 -9.94845,-8.721985 -12.1472801,-9.837895 -2.19884,-1.11591 -5.41614,-3.888358 -7.14957,-6.160998 -3.10742004,-4.074037 -3.12149004,-4.196148 -1.00212,-8.694414 1.18226,-2.50929 2.88191,-4.862756 3.77699,-5.229926 0.89508,-0.36717 1.2844,-0.11255 0.86514,0.565816 -0.41925,0.67837 0.81716,2.6229 2.74758,4.321181 4.8055401,4.227646 6.6311101,3.979393 2.4937201,-0.339114 -4.5943601,-4.795485 -4.2649901,-6.579957 0.39114,-2.119101 2.0625,1.976 3.75,3.023041 3.75,2.326756 0,-0.696283 -1.4137,-2.594072 -3.14156,-4.217308 -2.14416,-2.014339 -2.7350301,-3.357857 -1.86111,-4.231782 0.87393,-0.873925 2.16896,-0.318473 4.07906,1.749548 l 2.79861,3.029991 -2.8125,-2.334837 c -3.61155,-2.998182 -3.65289,-1.128045 -0.0596,2.69683 1.82381,1.94136 2.77301,4.563151 2.8125,7.768425 0.0749,6.07863 1.86461,5.304021 2.13465,-0.923894 l 0.20004,-4.613729 0.50197,4.375 c 0.28745,2.505263 1.67104,5.345723 3.23746,6.646394 l 2.73548,2.271394 -2.8125,-1.377874 c -2.08704,-1.022464 -2.8125,-1.00617 -2.8125,0.06316 0,2.545246 16.7365,17.308487 19.6875,17.366307 0.85937,0.0168 1.5625,0.47183 1.5625,1.0111 0,0.53927 1.77461,2.02878 3.94358,3.31002 l 3.94357,2.32953 -0.7887,-4.86023 c -0.70699,-4.35667 -0.38612,-5.20382 3.09702,-8.176633 2.91162,-2.485032 4.13151,-4.838295 4.86618,-9.38729 0.53925,-3.338985 1.36866,-7.055258 1.84314,-8.258383 0.60485,-1.533726 0.26233,-2.1875 -1.14605,-2.1875 -1.10481,0 -2.03115,-0.984375 -2.05855,-2.1875 -0.0289,-1.268756 -1.01205,-0.262407 -2.34089,2.396085 -1.26009,2.520973 -3.50827,6.292969 -4.99594,8.382216 -1.48768,2.089248 -3.2865,5.467103 -3.99738,7.506344 l -1.29252,3.707718 -4.46116,-3.027434 c -2.45364,-1.665086 -5.03892,-3.027429 -5.74507,-3.027429 -0.70614,0 -0.93292,-0.350982 -0.50394,-0.77996 0.42898,-0.428979 2.80488,0.414771 5.27979,1.875 5.18993,3.062135 5.60692,3.154698 5.60692,1.244619 0,-0.775689 1.82812,-4.56094 4.0625,-8.41167 2.23437,-3.85073 4.90625,-8.998466 5.9375,-11.439413 2.72109,-6.440752 5.00159,-9.109372 10.625,-12.433246 4.83006,-2.854942 4.90441,-2.861966 2.1875,-0.206666 -1.54688,1.511799 -2.82018,3.429936 -2.82957,4.26253 -0.009,0.832594 -0.29859,2.920056 -0.64268,4.638806 -0.37538,1.875029 0.0409,1.405224 1.04068,-1.174539 2.24202,-5.785052 3.94442,-6.025218 4.22456,-0.595977 0.12676,2.456869 1.36417,6.758421 2.74979,9.559004 2.23628,4.51993 2.33157,5.54129 0.84817,9.091553 -2.45458,5.874654 -3.81821,14.897445 -2.09005,13.829385 0.76263,-0.47133 1.39384,-1.526893 1.40268,-2.345693 0.009,-0.8188 1.27962,-4.219855 2.82393,-7.557894 l 2.80784,-6.06916 2.99526,2.42541 c 3.3153,2.684574 3.43843,1.925097 -2.79058,17.212907 -5.72518,14.05129 -4.76955,15.03281 1.82554,1.875 3.61826,-7.218743 6.73229,-13.345777 6.92008,-13.615622 0.18779,-0.269844 1.24177,0.256582 2.34217,1.169836 2.73157,2.267003 1.60486,7.542856 -4.6354,21.705256 -2.75435,6.25106 -5.34519,12.49054 -5.75742,13.86554 -0.66597,2.22129 -0.54099,2.29097 1.12109,0.625 3.26922,-3.27688 10.55622,-14.45078 12.09626,-18.54843 0.81683,-2.17337 2.12467,-5.66028 2.90632,-7.74869 1.59372,-4.258173 3.99314,-4.317033 4.61039,-0.1131 0.30798,2.09752 0.98998,2.5838 2.812501,2.00536 1.32327,-0.41999 2.40594,-0.29633 2.40594,0.2748 0,2.34479 -8.907671,14.02003 -15.574711,20.41368 -3.92365,3.76276 -7.73327,7.94536 -8.46582,9.29466 -1.3145,2.42121 -1.28496,2.42252 2.25932,0.10025 4.1406,-2.71303 3.72097,-2.39183 13.96871,-10.69194 9.427841,-7.63603 10.517621,-5.35898 1.48074,3.09396 -3.48247,3.25745 -6.10966,6.14474 -5.8382,6.4162 0.27147,0.27147 3.1948,-1.42692 6.49629,-3.77421 3.400551,-2.4177 6.822571,-3.95316 7.893951,-3.54204 2.6989,1.03567 5.68769,-3.30773 3.82256,-5.55507 -1.05548,-1.27178 -1.02986,-3.04384 0.10089,-6.97756 0.83362,-2.90006 1.76289,-6.14355 2.06504,-7.20776 0.37274,-1.31281 -0.86484,-2.4463 -3.84918,-3.52545 -2.41921,-0.87483 -6.78041,-3.40689 -9.691571,-5.626853 -2.91116,-2.21995 -6.1813,-4.37584 -7.26698,-4.790867 -4.92448,-1.882511 -16.59422,-11.965246 -18.75841,-16.207398 -2.95567,-5.793607 -3.41635,-19.789548 -0.65137,-19.789548 2.71245,0 3.25569,-3.150536 0.80693,-4.679811 -1.87383,-1.17023 -5.33665,-10.310601 -5.62256,-14.841201 -0.0485,-0.767807 -1.92047,-2.937854 -4.16004,-4.822327 -7.93441,-6.676361 -7.80998,-11.69883 0.37455,-15.118544 5.15374,-2.15337 6.14815,-3.6254 4.36783,-6.465716 -1.16522,-1.8589817 -1.2627,-1.7161227 -0.63297,0.9276 0.54054,2.26928 0.41786,2.611568 -0.44802,1.25 -1.30401,-2.050498 -1.10992,-8.7291952 0.32095,-11.0443942 1.45925,-2.361124 3.07245,-1.663738 2.3695,1.024337 -0.86129,3.2935695 0.64597,9.0638282 2.12827,8.1477132 0.64483,-0.398525 0.83927,-2.3902797 0.43211,-4.4261227 -0.80052,-4.0025785 0.45782,-4.6534765 4.65437,-2.4075535 3.0147,1.6134215 3.15821,0.226749 0.23032,-2.225539 -1.67635,-1.40405 -1.41773,-1.378419 1.10681,0.109688 5.27046,3.1067153 13.86961,3.0093085 17.95387,-0.203372 6.062881,-4.76906 12.199531,-3.049823 18.089161,5.0678365 2.84431,3.9203107 2.85185,3.9857017 0.18982,1.646902 -1.52465,-1.339528 -3.72949,-2.609536 -4.89963,-2.82224 -4.73647,-0.8609781 -11.263311,-0.5858809 -13.501731,0.569079 -1.30669,0.674216 -3.05818,0.980647 -3.8922,0.680957 -2.11781,-0.760996 -3.55521,5.6926787 -1.67863,7.5367287 1.15864,1.138548 1.31281,0.724945 0.6822,-1.830152 -0.46922,-1.901179 -0.24168,-3.6552997 0.53655,-4.1362707 0.7432,-0.459327 1.35128,-0.29868 1.35128,0.356993 0,0.7518067 1.73137,0.7608847 4.6875,0.02458 2.57812,-0.642156 5.531251,-1.35654 6.562501,-1.587519 1.03125,-0.23098 2.71875,0.274006 3.75,1.12219 1.03125,0.8481847 3.5625,2.1267717 5.625,2.8413047 2.0625,0.714533 4.875,1.71361 6.25,2.220171 2.5,0.921019 2.5,0.921019 0,-1.08452 -2.35498,-1.889199 -2.2646,-1.919411 1.55801,-0.520815 3.27245,1.197311 3.75185,1.790879 2.47646,3.066261 -2.77083,2.770837 -9.98607,2.873464 -12.92158,0.183792 -2.26376,-2.074194 -3.10858,-2.201444 -5.96747,-0.898848 -3.35377,1.528084 -5.453391,6.067963 -3.93933,8.517774 0.44905,0.726573 0.48388,1.321043 0.0774,1.321043 -0.406481,0 -1.288731,-1.265625 -1.960551,-2.8125 -1.03409,-2.380994 -1.16231,-2.093322 -0.83572,1.875 0.21218,2.578124 0.28833,4.687499 0.16922,4.687499 -0.11911,0 -2.90323,-1.501607 -6.18693,-3.336905 -3.28371,-1.835298 -7.99518,-4.060608 -10.46994,-4.945134 -2.47476,-0.884525 -3.5152,-1.632917 -2.31207,-1.663094 1.20312,-0.03018 2.1875,-0.58265 2.1875,-1.227718 0,-0.645069 1.6875,-3.020428 3.75,-5.278577 4.75204,-5.2028147 4.71629,-6.3030587 -0.18891,-5.8152687 -4.32441,0.430033 -8.54178,4.9476987 -8.88611,9.5188467 -0.17243,2.288987 -0.96637,2.747851 -4.75446,2.747851 -7.26831,0 -12.62317,2.344438 -12.17584,5.330763 0.20918,1.396405 1.3461,3.14426 2.52651,3.884124 1.69373,1.061615 2.6922,0.759128 4.73619,-1.434842 1.92892,-2.070452 4.0931,-2.807469 8.47881,-2.887486 5.56242,-0.101488 5.68096,-0.172735 2.13881,-1.285494 -4.62917,-1.454241 -10.34365,-0.49915 -13.36314,2.23345 -2.51961,2.28021 -4.21591,1.547177 -3.10698,-1.342639 0.94677,-2.467236 8.2354,-3.735638 15.34215,-2.669915 3.15169,0.472625 9.8773,3.005273 14.9458,5.628104 5.0685,2.622833 9.16948,4.40882 9.11329,3.96886 -0.52149,-4.08292 0.7388,-3.371431 3.491691,1.971217 3.72833,7.235736 3.34021,9.895111 -1.62606,11.141565 -1.889421,0.474212 -4.722961,2.149862 -6.296761,3.723666 -2.32037,2.320371 -2.63979,3.444491 -1.68921,5.944719 0.64474,1.695791 2.05897,3.354647 3.14274,3.686347 1.54956,0.47426 1.50714,0.561625 -0.19855,0.408981 -1.19297,-0.106762 -3.03212,-1.87763 -4.087,-3.935265 -1.05489,-2.057636 -2.33535,-3.927158 -2.84548,-4.154493 -1.3082,-0.582987 1.50003,-5.51786 4.25088,-7.470043 1.2659,-0.898359 2.25722,-2.304609 2.20295,-3.125 -0.0715,-1.08033 -0.27253,-1.060786 -0.72917,0.07088 -0.34677,0.859375 -1.1793,1.5625 -1.85009,1.5625 -0.67078,0 -0.81288,-0.65809 -0.31578,-1.462424 0.5934,-0.960137 0.24173,-1.20835 -1.02391,-0.722681 -1.06025,0.406859 -2.47877,0.188708 -3.15225,-0.48478 -0.67349,-0.673487 -3.37844,-1.491675 -6.011,-1.818194 -2.63255,-0.32652 -5.51944,-1.201983 -6.41529,-1.945477 -1.23821,-1.027625 -1.8964,-0.643114 -2.74456,1.603375 -1.2997,3.442439 -0.75991,4.830186 1.87879,4.830186 1.59805,0 1.56294,0.327568 -0.22691,2.117425 -1.9899,1.989899 -1.97646,2.172815 0.22321,3.037143 2.09989,0.82512 2.11564,0.928756 0.15314,1.007576 -1.20313,0.04832 -2.1875,0.683554 -2.1875,1.411627 0,0.728074 0.5625,0.976128 1.25,0.551229 0.6875,-0.424899 1.25,0.1044 1.25,1.176229 0,1.071824 -0.70313,1.984426 -1.5625,2.028004 -0.85938,0.04357 -0.19297,0.626388 1.48089,1.295133 1.67387,0.668745 3.92387,0.913235 5,0.54331 1.14017,-0.391936 0.8104,0.302659 -0.79027,1.664598 -2.70789,2.304012 -2.71302,2.373541 -0.36101,4.898119 1.50838,1.619058 3.32317,2.31582 4.93438,1.89448 1.40168,-0.366548 2.54851,-0.296077 2.54851,0.156605 0,1.82632 -4.58347,5.567965 -7.8125,6.377618 -2.73504,0.685788 -3.4375,0.429785 -3.4375,-1.252752 0,-3.931301 -3.12163,-1.123056 -3.5459,3.189921 -0.4144,4.212696 2.88264,12.403735 4.99274,12.403735 0.57924,0 1.09904,-1.828125 1.15513,-4.0625 l 0.10196,-4.0625 1.73767,3.96704 c 0.95571,2.181873 2.73834,4.284644 3.96139,4.672826 1.22306,0.388182 2.92376,2.28724 3.77934,4.220132 1.65508,3.739091 15.132621,14.014999 18.381591,14.014999 1.06485,0 1.97484,-0.98437 2.0222,-2.187503 0.0474,-1.20312 0.29025,-3.734369 0.53973,-5.624994 0.53061,-4.021094 0.26486,-4.104995 -4.35615,-1.375296 -2.1101,1.246466 -4.41145,1.702795 -5.817871,1.15361 -2.11527,-0.825983 -2.03358,-1.063828 0.89856,-2.615986 1.773961,-0.939068 5.009331,-5.054425 7.189711,-9.145242 l 3.96433,-7.437847 4.90839,1.102841 c 6.71192,1.508069 17.48378,1.881938 21.67713,0.75237 2.71343,-0.73092 3.64866,-0.452246 4.31196,1.284846 1.0166,2.662293 2.43843,4.574627 6.64158,8.932833 1.74266,1.806955 4.96497,7.082246 7.16069,11.722865 2.19571,4.640633 4.67283,8.437503 5.50471,8.437503 0.83188,0 0.28145,1.14692 -1.22319,2.5487 -2.75384,2.56558 -3.59016,4.9513 -1.7357,4.9513 0.55,0 1.61912,-0.61912 2.37583,-1.37583 1.00111,-1.0011 1.63995,-0.57554 2.34555,1.5625 l 0.96969,2.93833 0.90487,-3.125 c 0.88352,-3.05129 0.9102,-3.03655 1.13098,0.625 l 0.22613,3.75 1.71709,-3.75 c 1.69263,-3.69657 1.71972,-3.70547 1.90143,-0.625 0.15202,2.57708 0.36634,2.35792 1.22243,-1.25 0.88593,-3.73367 0.59231,-4.84311 -2.00295,-7.5684 -4.35064,-4.56859 -3.7603,-5.356503 0.8127,-1.08468 3.62789,3.38895 4.08576,3.5018 7.8125,1.92542 2.17731,-0.92099 13.24,-5.64965 24.58375,-10.508146 20.99281,-8.991155 29.28205,-11.832851 26.83719,-9.20026 -0.7083,0.762687 -13.07189,6.68168 -27.47465,13.153313 -22.31992,10.029093 -26.57514,12.378043 -28.81653,15.907123 -1.97075,3.10298 -4.0722,4.50849 -8.38631,5.60903 -4.738,1.20867 -5.87371,1.16335 -6.41844,-0.25616 -1.11446,-2.90424 -9.3561,1.64463 -8.55185,4.72009 0.73939,2.8274 -2.92537,7.30267 -5.98009,7.30267 -1.18427,0 -2.85346,0.84375 -3.70932,1.875 -2.19666,2.64682 -5.46093,2.32732 -8.24376,-0.80688 -2.36983,-2.66903 -2.36764,-2.67475 0.4571,-1.19219 3.6487,1.91501 5.28666,0.84276 5.28666,-3.46079 0,-7.4041 -7.04761,-10.50506 -8.88309,-3.90857 -0.82709,2.97243 -0.87355,2.93993 -0.99231,-0.69407 -0.0685,-2.09687 0.5504,-4.4875 1.3754,-5.3125 1.93871,-1.93871 6.89527,-1.93917 7.54144,-7e-4 0.30718,0.92157 0.82347,0.65572 1.33985,-0.68992 0.5023,-1.30898 0.34323,-1.88216 -0.3956,-1.42553 -0.67963,0.42003 -1.23569,0.17872 -1.23569,-0.53626 0,-2.70256 6.29378,-2.98915 9.1317,-0.41582 2.47539,2.2446 3.13412,2.32263 6.74519,0.79903 3.06761,-1.29431 4.19086,-2.69581 4.81134,-6.00318 1.3251,-7.06339 -1.50423,-12.901563 -10.29163,-21.236249 l -8.03005,-7.616368 -9.62078,-0.753457 c -5.29142,-0.414402 -10.26902,-0.250443 -11.06133,0.364353 -2.06343,1.60113 -5.84413,17.961608 -4.96247,21.474421 0.40817,1.62626 -0.12775,5.88601 -1.19092,9.46611 -1.46008,4.91661 -1.58445,6.92931 -0.50831,8.22597 0.94225,1.13534 1.02334,2.43397 0.23945,3.83469 -1.67668,2.99606 -0.5058,6.31578 3.04917,8.64508 1.67762,1.09922 3.58253,3.39866 4.23313,5.10986 0.6506,1.7112 2.87194,4.07241 4.93631,5.24712 2.06436,1.17472 3.75695,3.12023 3.7613,4.32335 0.005,1.51818 0.99839,2.1875 3.24504,2.1875 1.84588,0 4.22028,1.20875 5.52473,2.8125 2.05349,2.52467 2.09344,3.02832 0.39042,4.92124 -1.04345,1.1598 -1.57953,2.62273 -1.19127,3.25094 0.38825,0.62821 -0.67137,3.00902 -2.35473,5.29069 -2.31417,3.13667 -2.72402,4.5541 -1.68042,5.81155 1.62078,1.95291 -0.61517,5.41308 -3.49791,5.41308 -3.66607,0 -8.01555,3.98212 -7.3478,6.7272 0.35424,1.45629 -0.17792,0.86274 -1.18258,-1.31901 -2.01692,-4.37997 -5.57304,-7.58224 -3.80431,-3.42574 0.55996,1.3159 0.9043,3.51755 0.76521,4.89255 -0.13909,1.375 -0.28935,8.87972 -0.3339,16.67715 -0.0659,11.54368 0.2995,14.55765 1.96742,16.22557 1.74775,1.74775 2.43846,1.80482 4.70576,0.38887 2.4285,-1.51662 2.59831,-1.43377 1.97181,0.96194 -0.37703,1.44181 -0.26286,2.62147 0.25372,2.62147 1.44383,0 5.07671,-4.37956 5.07671,-6.12016 0,-2.08189 3.57292,-0.99677 14.54739,4.4181 9.3994,4.63773 19.20261,6.86696 19.20261,4.36665 0,-0.77802 -0.78819,-1.41459 -1.75152,-1.41459 -0.96336,0 -2.91313,-1.96875 -4.33286,-4.375 -1.41972,-2.40625 -3.21657,-4.375 -3.993,-4.375 -0.77643,0 -3.15677,-1.24261 -5.28965,-2.76135 -2.13287,-1.51873 -6.15721,-3.13583 -8.94296,-3.59353 l -5.06501,-0.8322 4.375,-0.14822 c 2.49425,-0.0845 5.98707,0.9194 8.125,2.3353 4.0923,2.71023 6.22506,3.2322 4.98086,1.21903 -0.43542,-0.70453 -0.328,-1.20041 0.23873,-1.10198 3.67164,0.63783 4.45636,-0.27826 3.78456,-4.41805 -0.59135,-3.64405 -0.37766,-4.18782 1.39895,-3.56 3.68339,1.30163 6.16424,4.1352 6.91737,7.90087 0.66234,3.31167 1.09467,3.58961 4.51847,2.90485 2.41987,-0.48398 3.78606,-0.24978 3.78606,0.64903 0,0.77344 0.5957,1.40625 1.32377,1.40625 0.72808,0 0.9801,-0.55606 0.56008,-1.23568 -0.44635,-0.72219 0.086,-0.90963 1.28104,-0.45104 1.60211,0.61479 1.69138,1.00301 0.41245,1.79344 -1.25712,0.77693 -1.11809,1.20611 0.60492,1.86728 2.91241,1.11762 16.15343,14.35698 15.25614,15.25427 -0.37861,0.37862 -0.6884,0.0322 -0.6884,-0.76993 0,-0.80209 -0.63111,-1.45834 -1.40246,-1.45834 -0.9358,0 -0.83181,0.85945 0.3125,2.58288 0.94322,1.42059 2.27746,2.58554 2.96496,2.58879 0.6875,0.004 1.71675,0.83996 2.28722,1.85933 1.35013,2.41254 -2.23871,7.969 -5.14705,7.969 -3.06771,0 -11.25705,-4.58425 -17.05506,-9.54712 -3.38141,-2.89436 -6.0006,-4.1252 -8.39076,-3.94308 -2.08766,0.15907 -4.61649,-0.78528 -6.3346,-2.36557 -3.3489,-3.08026 -9.98275,-4.36481 -22.54136,-4.36481 -11.18509,0 -14.6852,-1.42008 -23.61327,-9.58045 l -7.04487,-6.43913 -15.105211,5.80044 c -14.24556,5.47032 -15.18621,6.04589 -16.52861,10.11339 -1.27735,3.87041 -9.63207,15.44535 -14.67143,20.32633 -1.7435,1.6887 -1.75794,1.61445 -0.14542,-0.74726 0.98473,-1.44224 4.44028,-6.11484 7.67899,-10.38355 4.42511,-5.8324 6.2496,-9.59629 7.3412,-15.14479 1.73208,-8.80403 6.40892,-14.848 17.8191,-23.02798 8.44041,-6.05095 19.196041,-16.49318 18.108431,-17.58078 -0.69391,-0.69391 -28.984391,20.83204 -30.409951,23.13865 -0.42344,0.68514 -1.3343,1.24571 -2.02414,1.24571 -0.68983,0 0.27651,-2.8125 2.14744,-6.25 1.87092,-3.4375 3.90797,-6.25 4.52678,-6.25 0.61881,0 0.72376,-0.64941 0.23321,-1.44313 -0.51093,-0.8267 -0.34683,-1.10627 0.38417,-0.65448 0.70184,0.43376 2.33562,-0.39597 3.63063,-1.84385 1.29501,-1.44787 4.88581,-3.72482 7.97956,-5.05987 3.09375,-1.33505 6.609371,-3.31809 7.812501,-4.40675 2.61072,-2.36234 2.90035,-6.59192 0.45139,-6.59192 -0.95486,0 -1.65799,-0.94567 -1.5625,-2.10148 0.11996,-1.45203 -1.46281,-2.58487 -5.121371,-3.66557 -5.1311,-1.51568 -5.49133,-1.42901 -11.63968,2.8003 -5.68549,3.91093 -6.13544,4.045 -4.33055,1.2904 1.58587,-2.42035 1.66873,-3.20176 0.38968,-3.67482 -0.94717,-0.35033 -0.061,-1.22985 2.12553,-2.10951 6.17679,-2.48502 15.51954,-0.98012 25.283071,4.07252 4.85221,2.51101 10.99227,4.89639 13.64457,5.30081 4.43504,0.67627 5.04826,0.39688 7.63486,-3.47851 4.60489,-6.89929 3.42063,-8.43414 -6.50757,-8.43414 -2.95109,0 -7.75706,-0.84375 -10.67993,-1.875 -5.9124,-2.08601 -18.549261,-2.47505 -24.544571,-0.75561 -3.54093,1.01553 -3.84209,0.8862 -3.24584,-1.39385 0.36147,-1.38227 3.21606,-4.13599 6.34354,-6.11937 5.04479,-3.19932 6.82217,-3.60833 15.754101,-3.6253 5.53727,-0.01 10.74951,-0.45239 11.58276,-0.98192 1.07209,-0.6813 0.14153,-2.55746 -3.18314,-6.41768 -4.32818,-5.02539 -5.04261,-5.3903 -9.07283,-4.63423 -2.40608,0.45138 -6.31742,2.48135 -8.691861,4.51103 l -4.31716,3.69033 5.625,0.17875 c 5.092541,0.16184 5.270021,0.26443 1.875001,1.08374 -7.648341,1.84578 -18.125001,9.75964 -18.125001,13.69126 0,1.02395 -1.22305,3.1636 -2.71789,4.75479 -1.49484,1.59119 -2.06255,2.89306 -1.26157,2.89306 0.80098,0 -1.52952,4.35938 -5.17889,9.6875 -8.88959,12.9789 -14.59165,23.43069 -14.59165,26.74624 0,1.49689 -1.35109,5.02709 -3.00243,7.84488 -1.65134,2.81778 -5.05029,11.2441 -7.55324,18.72512 -2.50294,7.48103 -5.4064,15.06873 -6.45213,16.86156 -1.10673,1.89742 -1.55122,2.2149 -1.06358,0.7597 z M 189.43038,235.1339 c -1.39635,-1.84257 -4.92188,-5.07694 -7.8345,-7.18747 -2.91263,-2.11054 -6.28449,-5.90742 -7.49303,-8.4375 -1.47145,-3.08052 -3.04036,-4.60017 -4.74928,-4.60017 -2.26753,0 -2.52013,0.6976 -2.26638,6.25879 0.19383,4.24776 1.03424,6.93633 2.61559,8.36743 2.20337,1.99402 2.28038,1.97656 1.41716,-0.3213 -0.80656,-2.14704 -0.66891,-2.23154 1.18245,-0.72578 1.1524,0.93728 1.7333,2.2898 1.2909,3.00564 -0.4424,0.71582 -0.2601,0.96511 0.40513,0.55399 1.34053,-0.8285 13.60339,4.67222 14.82602,6.65048 0.42542,0.68834 1.30702,0.92179 1.95912,0.51878 0.65994,-0.40788 0.06,-2.21815 -1.35318,-4.08289 z M 29.353149,213.76293 c 0.1134,-8.69039 -0.80416,-5.47434 -1.57512,5.52083 -0.51499,7.34459 -0.40852,8.6723 0.40095,5 0.60618,-2.75 1.13455,-7.48437 1.17417,-10.52083 z m 134.447041,13.64583 c -0.4249,-0.6875 -1.33504,-1.25 -2.02254,-1.25 -0.6875,0 -0.90236,0.5625 -0.47746,1.25 0.4249,0.6875 1.33504,1.25 2.02254,1.25 0.6875,0 0.90236,-0.5625 0.47746,-1.25 z m 19.375,-2.97195 c 0,-0.25956 -0.98438,-1.24393 -2.1875,-2.1875 -1.98258,-1.55483 -2.02679,-1.51062 -0.47195,0.47195 1.63296,2.08219 2.65945,2.74435 2.65945,1.71555 z m -17.5,-4.31016 c 0,-0.56765 -1.35328,-2.30344 -3.00726,-3.85729 -1.654,-1.55385 -3.31028,-3.98387 -3.68062,-5.40006 -0.50249,-1.92152 0.26495,-1.49782 3.0245,1.6698 l 3.69785,4.24466 -2.20473,-5 c -1.21262,-2.75 -2.62662,-5.1875 -3.14224,-5.41666 -0.51563,-0.22917 -0.9375,-1.24674 -0.9375,-2.26127 0,-1.01454 -0.5625,-1.49697 -1.25,-1.07207 -0.6875,0.4249 -1.25,3.29617 -1.25,6.38059 0,4.28756 0.72245,6.3305 3.06819,8.67623 3.05703,3.05705 5.68181,3.99763 5.68181,2.03607 z M 98.538509,206.15876 c 1.571421,-3.71433 1.998471,-8.67316 0.71929,-8.3523 -0.49838,0.12502 -1.71766,-0.86132 -2.70951,-2.19186 -1.75382,-2.35271 -1.9365,-2.31321 -6.65073,1.43811 -8.28158,6.59002 -11.14417,10.18425 -9.45582,11.8726 1.1446,1.1446 1.48345,0.85529 1.48345,-1.26655 0,-1.5125 0.62268,-2.75 1.38374,-2.75 0.76105,0 1.05142,0.86599 0.64526,1.92442 -0.40615,1.05843 -0.0889,2.96458 0.70508,4.2359 1.37177,2.19655 1.71986,2.20963 7.00035,0.26308 3.60127,-1.32753 6.02206,-3.14813 6.87889,-5.1734 z m 57.136681,5 c 0,-0.6875 -0.24805,-1.25 -0.55123,-1.25 -0.30317,0 -0.89887,0.5625 -1.32377,1.25 -0.4249,0.6875 -0.17685,1.25 0.55122,1.25 0.72808,0 1.32378,-0.5625 1.32378,-1.25 z m -32.5,-33.75 c 0,-0.6875 -0.87695,-1.25 -1.94877,-1.25 -1.07183,0 -1.60113,0.5625 -1.17623,1.25 0.4249,0.6875 1.30184,1.25 1.94877,1.25 0.64693,0 1.17623,-0.5625 1.17623,-1.25 z M 72.356539,166.72985 c -0.40711,-1.0609 -1.00828,-1.66082 -1.33594,-1.33316 -0.32766,0.32766 -0.22498,1.19567 0.22819,1.92891 1.23256,1.99433 1.95298,1.60689 1.10775,-0.59575 z m 2.36558,-11.60029 c -0.44515,-1.16003 -0.20027,-1.5586 0.63893,-1.03995 0.82034,0.507 1.69654,-0.68806 2.20638,-3.00932 1.15857,-5.27496 -0.048,-5.94653 -2.42507,-1.34976 -2.10786,4.07616 -2.84323,12.24758 -0.81368,9.04158 0.61337,-0.9689 0.79041,-2.60805 0.39344,-3.64255 z m 59.505781,2.42759 c 1.3692,-0.8678 1.3857,-1.53092 0.0898,-3.60612 -1.39365,-2.23158 -3.40461,-2.65193 -16.43144,-3.43463 -8.1639,-0.49052 -15.18865,-0.54665 -15.61055,-0.12475 -0.42191,0.42191 0.94086,0.76711 3.02838,0.76711 2.08752,0 7.31705,1.125 11.62117,2.5 4.30413,1.375 9.15865,2.5 10.78784,2.5 1.62919,0 2.96216,0.5625 2.96216,1.25 0,1.51859 1.30484,1.57309 3.55272,0.14839 z M 86.987259,140.50166 c 2.02836,-1.0489 3.68793,-2.11885 3.68793,-2.37766 0,-0.59152 -11.45323,2.82133 -12.29583,3.66393 -1.45776,1.45776 5.2357,0.45757 8.6079,-1.28627 z m 57.241481,-18.89543 c -0.94173,-1.96486 -2.5407,-3.57247 -3.55328,-3.57247 -2.70215,0 -3.0182,4.02336 -0.60532,7.70588 1.87308,2.85867 2.30711,3.00277 3.98639,1.3235 1.62495,-1.62495 1.64867,-2.37639 0.17221,-5.45691 z m -75.225701,-5.75997 c -0.34677,-0.85937 -0.63048,-0.15625 -0.63048,1.5625 0,1.71875 0.28371,2.42188 0.63048,1.5625 0.34677,-0.85937 0.34677,-2.26562 0,-3.125 z m 86.672151,1.5625 c 1.03125,-0.66644 1.3125,-1.21171 0.625,-1.21171 -0.6875,0 -2.09375,0.54527 -3.125,1.21171 -1.03125,0.66645 -1.3125,1.21172 -0.625,1.21172 0.6875,0 2.09375,-0.54527 3.125,-1.21172 z m -105.625001,-2.5 c 0.4249,-0.6875 0.17684,-1.25 -0.55123,-1.25 -0.72807,0 -1.32377,0.5625 -1.32377,1.25 0,0.6875 0.24805,1.25 0.55123,1.25 0.30317,0 0.89887,-0.5625 1.32377,-1.25 z m -14.375,-5.48123 c 0,-0.26469 -1.54688,-1.42307 -3.4375,-2.57419 l -3.4375,-2.09295 2.95098,2.57418 c 2.87966,2.51198 3.92402,3.06901 3.92402,2.09296 z m 25.85389,-16.003146 c -0.39903,-0.997166 -0.69523,-0.70097 -0.75521,0.755209 -0.0543,1.317707 0.24116,2.055994 0.65653,1.640625 0.41536,-0.415365 0.45977,-1.49349 0.0987,-2.395834 z m -1.22172,-11.328125 c -0.29795,-1.546875 -0.54171,-0.28125 -0.54171,2.8125 0,3.09375 0.24376,4.359375 0.54171,2.8125 0.29794,-1.546875 0.29794,-4.078125 0,-5.625 z M 8.1751889,83.167495 c 0,-0.957695 -0.85677,-2.070036 -1.90392,-2.471868 -1.55333,-0.596065 -1.66032,-0.275417 -0.58102,1.741263 1.55073,2.897582 2.48494,3.17225 2.48494,0.730605 z m 3.7500001,-1.918011 c 0,-1.269552 -6.0180101,-6.340725 -7.5246101,-6.340725 -1.19752,0 5.33196,7.386129 6.5871101,7.451313 0.51562,0.02678 0.9375,-0.472987 0.9375,-1.110588 z m 49.60389,-5.3251 c -0.39903,-0.997166 -0.69523,-0.70097 -0.75521,0.755209 -0.0543,1.317707 0.24116,2.055989 0.65653,1.640625 0.41536,-0.415365 0.45977,-1.49349 0.0987,-2.395834 z m 28.52111,-46.015625 c 0.4249,-0.6875 -0.10441,-1.25 -1.17623,-1.25 -1.07182,0 -1.94877,0.5625 -1.94877,1.25 0,0.6875 0.5293,1.25 1.17623,1.25 0.64692,0 1.52387,-0.5625 1.94877,-1.25 z m -17.5,-2.5 c 0.4249,-0.6875 0.17684,-1.25 -0.55123,-1.25 -0.72807,0 -1.32377,0.5625 -1.32377,1.25 0,0.6875 0.24805,1.25 0.55123,1.25 0.30317,0 0.89887,-0.5625 1.32377,-1.25 z m 1.98723,-16.459694 c 1.97938,-3.6985107 0.29579,-2.6293997 -2.79078,1.772195 -2.02125,2.882401 -2.2077,3.547703 -0.64187,2.290305 1.2138,-0.974706 2.75849,-2.802831 3.43265,-4.0625 z M 101.68284,2.4087608 c 1.74377,0 4.33979,0.984375 5.76892,2.1875 2.59581,2.1852915 2.59603,2.1846605 0.21719,-0.625 -3.21774,-3.80051 -8.479281,-3.622688 -12.861561,0.434675 l -3.5072,3.2471745 3.60607,-2.6221745 c 1.98334,-1.442197 5.0328,-2.622175 6.776581,-2.622175 z M 57.650919,236.15876 c 2.5326,-5.15625 5.72513,-10.78125 7.0945,-12.5 l 2.48977,-3.125 -0.89803,3.125 c -1.02233,3.55752 -7.12213,14.14564 -10.81472,18.77233 -1.36194,1.70647 -0.40412,-1.11608 2.12848,-6.27233 z m -0.72573,-22.58217 c 0,-2.06484 2.46012,-6.16783 3.69817,-6.16783 0.61062,0 0.26838,1.6875 -0.76053,3.75 -1.94016,3.88915 -2.93764,4.71013 -2.93764,2.41783 z m 70.250001,-8.91783 c -0.825,-0.825 -1.5,-2.05751 -1.5,-2.73891 0,-0.6814 0.70312,-0.3351 1.5625,0.76955 0.85937,1.10465 2.6875,2.27191 4.0625,2.59391 2.44646,0.57292 2.44513,0.58855 -0.0625,0.73045 -1.40938,0.0798 -3.2375,-0.53 -4.0625,-1.355 z m -59.000001,-0.69931 c 0,-0.52212 1.15856,-1.67285 2.57457,-2.55716 2.37777,-1.48495 2.46996,-1.41239 1.20602,0.94931 -1.32871,2.48273 -3.78059,3.52549 -3.78059,1.60785 z m 63.210571,-5.59132 c 1.95125,-1.53485 4.41774,-2.80048 5.48108,-2.8125 1.57989,-0.0179 1.85899,-1.45019 1.52661,-7.83437 -0.25991,-4.99228 0.0785,-7.8125 0.9375,-7.8125 0.73933,0 1.36418,0.98438 1.38854,2.1875 0.0355,1.75285 0.35886,1.62088 1.62745,-0.6642 0.87075,-1.56843 2.0979,-2.41218 2.727,-1.875 0.62911,0.53719 0.40607,0.0112 -0.49564,-1.16877 -0.9017,-1.18001 -1.34944,-2.86751 -0.99497,-3.75 0.3827,-0.95276 0.68457,-0.65378 0.74317,0.73602 0.0816,1.93637 0.42249,2.07183 1.97369,0.78445 1.58877,-1.31856 1.875,-1.0353 1.875,1.85568 0,2.42042 0.51151,3.21551 1.76037,2.73627 1.11958,-0.42962 2.03267,0.40937 2.5084,2.30483 0.72957,2.90685 1.01753,2.96794 11.67713,2.47739 l 10.9291,-0.50295 -8.649,1.10657 c -4.75695,0.60861 -12.44255,2.03624 -17.07911,3.17249 -6.93469,1.69942 -8.56002,2.58341 -9.16233,4.98324 -0.49011,1.95277 -1.96772,3.1887 -4.46905,3.73807 -2.05526,0.45141 -4.05773,1.33998 -4.44995,1.97459 -0.39221,0.6346 -1.31826,1.15382 -2.05791,1.15382 -0.73964,0 0.25167,-1.25578 2.20292,-2.79063 z m -8.62738,-4.4116 c -1.15969,-3.129 -1.87764,-5.91999 -1.59544,-6.20219 0.2822,-0.28219 1.17527,1.49336 1.98461,3.94567 1.63438,4.9522 1.69723,4.99114 5.10981,3.16478 1.53213,-0.81998 2.41783,-2.61414 2.41783,-4.89778 0,-5.23957 1.30282,-8.23337 2.65481,-6.10056 0.80188,1.265 1.06153,1.12168 1.07605,-0.59396 0.01,-1.2437 0.58164,-1.91363 1.26914,-1.48873 0.6875,0.4249 1.21046,3.41123 1.16214,6.63628 -0.0663,4.42582 -0.35129,5.25067 -1.16214,3.36372 -1.0451,-2.43207 -1.07667,-2.42726 -1.16214,0.17699 -0.0575,1.75338 -1.1359,2.94004 -3.12545,3.43938 -1.67067,0.41931 -3.82129,1.54608 -4.77915,2.50393 -1.48872,1.48874 -2.04764,0.91568 -3.85007,-3.94753 z m -91.839501,-2.17277 c 0.0255,-2.0625 0.30562,-2.75492 0.62255,-1.53871 0.31693,1.21621 0.29608,2.90371 -0.0463,3.75 -0.34241,0.84629 -0.60172,-0.14879 -0.57624,-2.21129 z m 68.50631,-17.45602 c 0,-0.31956 1.265621,-1.2554 2.812501,-2.07965 2.55028,-1.3589 2.65255,-1.30473 1.09694,0.58102 -1.59728,1.93628 -3.909441,2.82262 -3.909441,1.49863 z m 18.125001,-6.9641 c -2.75,-1.39874 -6.89447,-4.16651 -9.20993,-6.15063 l -4.20993,-3.60747 4.52243,1.15161 c 2.48734,0.63339 6.6318,1.70069 9.20993,2.37179 2.57812,0.6711 6.6028,1.2336 8.94374,1.25 4.04366,0.0284 4.15291,0.14399 2.1875,2.31575 -1.13782,1.25726 -2.06874,2.94476 -2.06874,3.75 0,2.20127 -3.77834,1.76559 -9.375,-1.08105 z m -14.16817,-28.5506 c -1.24595,-0.78979 -0.92957,-1.2552 1.25,-1.83879 4.50448,-1.20609 6.60542,-0.97427 9.24176,1.01976 2.24998,1.70179 2.01739,1.83674 -3.19859,1.85585 -3.09375,0.0112 -6.37568,-0.45522 -7.29317,-1.03682 z m 56.71831,-53.746295 c -0.44172,-1.391727 -1.51294,-2.25803 -2.3805,-1.925116 -1.90013,0.729146 -6.5888,-4.106821 -5.26272,-5.428034 0.51331,-0.51141 2.00985,0.398105 3.32568,2.021144 3.54924,4.377911 2.90211,1.932754 -1.40604,-5.312731 -2.43726,-4.098998 -2.83816,-5.272669 -1.11875,-3.275178 3.21579,3.735859 9.0788,15.016988 8.24036,15.855422 -0.3272,0.3272 -0.95631,-0.543778 -1.39803,-1.935507 z M 100.71139,69.957584 c -2.672321,-1.690029 -0.69759,-2.990746 2.19239,-1.44408 1.34349,0.719013 2.79791,0.952086 3.23206,0.517943 0.43414,-0.434145 0.78935,-0.133104 0.78935,0.668978 0,1.739645 -3.63198,1.889954 -6.2138,0.257159 z m 20.94208,-1.592641 c 2.10971,-1.016385 3.23357,-0.994339 4.31251,0.0846 1.11228,1.112289 0.43391,1.439102 -2.85329,1.374616 -4.04998,-0.07945 -4.13881,-0.168279 -1.45922,-1.459216 z m 23.39672,-0.956184 c -1.64843,-0.708352 -1.86133,-1.097694 -0.625,-1.143002 1.03125,-0.03779 2.71875,0.476557 3.75,1.143002 2.28496,1.476653 0.31136,1.476653 -3.125,0 z m -12.5,-2.529309 c -2.75,-0.552967 -8.65625,-2.759136 -13.125,-4.902597 -6.82073,-3.271601 -9.12829,-3.791279 -14.375,-3.237343 -4.37179,0.461565 -5.498721,0.312033 -3.75,-0.497587 4.52282,-2.093976 10.60727,-1.384833 17.22905,2.008052 3.58653,1.837669 10.45845,4.310447 15.27095,5.495063 8.85114,2.178742 7.96101,2.986554 -1.25,1.134412 z"
     id="path3564"
     inkscape:connector-curvature="0" />
</svg>
