<?xml version="1.0" encoding="UTF-8" standalone="no"?>
<!-- Created with Inkscape (http://www.inkscape.org/) -->

<svg
   version="1.1"
   id="svg2"
   xml:space="preserve"
   width="662.43982"
   height="412.05423"
   viewBox="0 0 662.43982 412.05423"
   xmlns="http://www.w3.org/2000/svg"
   xmlns:svg="http://www.w3.org/2000/svg"><defs
     id="defs6"><clipPath
       clipPathUnits="userSpaceOnUse"
       id="clipPath18"><path
         d="M 0,1.206994e-5 H 959.76 V 540.00001 H 0 Z"
         id="path16" /></clipPath><clipPath
       clipPathUnits="userSpaceOnUse"
       id="clipPath32"><path
         d="m 48.00094,204.5647 h 886.2553 V 515.0756 H 48.00094 Z"
         id="path30" /></clipPath></defs><g
     id="g8"
     transform="matrix(1.3333333,0,0,-1.3333333,-64.012239,686.76964)"><g
       id="g10" /><g
       id="g34"
       transform="matrix(0.5504281,0,0,0.5504342,48.00094,204.5647)"
       style="stroke:#ffffff"><path
         d="M 833.9,261.2 C 780.08,279.22 718.02,270.74 670.98,238.94 643.74,220.46 621.24,194.18 610.32,163.1 599.4,132.08 600.72,96.261 616.74,67.501 627.12,48.78 643.38,33.48 662.34,23.52 681.3,13.56 702.9,8.8801 724.32,9.3 c 42.86,0.72 83.78,21.66 114.14,51.9 13.62,13.501 25.44,29.061 33.12,46.64 7.74,17.58 11.16,37.32 8.04,56.22 -4.02,23.88 -18.36,45.36 -37.14,60.6 -19.14,15.42 -42.9,25.02 -67.38,27 -24.54,2.04 -49.58,-3.48 -70.94,-15.6"
         style="fill:none;stroke:#ffffff;stroke-width:13.2;stroke-linecap:round;stroke-linejoin:round;stroke-miterlimit:10;stroke-dasharray:none;stroke-opacity:1"
         id="path36" /></g><g
       id="g38"
       transform="matrix(0.5504281,0,0,0.5504342,48.00094,204.5647)"
       style="stroke:#ffffff"><path
         d="m 754.7,204.32 c 0,-5.88 -4.62,-10.68 -10.32,-10.68 -5.64,0 -10.26,4.8 -10.26,10.68 0,5.94 4.62,10.68 10.26,10.68 5.7,0 10.32,-4.74 10.32,-10.68 z"
         style="fill:none;stroke:#ffffff;stroke-width:11.34;stroke-linecap:round;stroke-linejoin:round;stroke-miterlimit:10;stroke-dasharray:none;stroke-opacity:1"
         id="path40" /></g><g
       id="g42"
       transform="matrix(0.5504281,0,0,0.5504342,48.00094,204.5647)"
       style="stroke:#ffffff"><path
         d="m 774.08,167.54 c 0,0 1.74,-45.3 -42,-30.72 l -9.74,3.24"
         style="fill:none;stroke:#ffffff;stroke-width:12.48;stroke-linecap:round;stroke-linejoin:miter;stroke-miterlimit:10;stroke-dasharray:none;stroke-opacity:1"
         id="path44" /></g><g
       id="g46"
       transform="matrix(0.5504281,0,0,0.5504342,48.00094,204.5647)"
       style="stroke:#ffffff"><path
         d="m 710.34,180.32 c 0,-5.88 -4.62,-10.68 -10.32,-10.68 -5.7,0 -10.32,4.8 -10.32,10.68 0,5.88 4.62,10.68 10.32,10.68 5.7,0 10.32,-4.8 10.32,-10.68 z"
         style="fill:none;stroke:#ffffff;stroke-width:11.34;stroke-linecap:round;stroke-linejoin:round;stroke-miterlimit:10;stroke-dasharray:none;stroke-opacity:1"
         id="path48" /></g><g
       id="g50"
       transform="matrix(0.5504281,0,0,0.5504342,48.00094,204.5647)"
       style="stroke:#ffffff"><path
         d="m 550.87,548.16 c -53.88,18.06 -115.86,9.54 -162.9,-22.26 -27.24,-18.42 -49.74,-44.76 -60.66,-75.8 -10.98,-31.08 -9.6,-66.9 6.42,-95.64 10.38,-18.72 26.64,-34.02 45.6,-43.92 18.96,-9.96 40.56,-14.64 61.98,-14.28 42.78,0.78 83.76,21.72 114.11,51.9 13.56,13.56 25.44,29.1 33.12,46.68 7.74,17.58 11.16,37.26 7.98,56.16 -3.96,23.9 -18.3,45.38 -37.14,60.62 -19.07,15.48 -42.83,25.02 -67.37,27.06 -24.48,2.04 -49.5,-3.48 -70.86,-15.66"
         style="fill:none;stroke:#ffffff;stroke-width:13.2;stroke-linecap:round;stroke-linejoin:round;stroke-miterlimit:10;stroke-dasharray:none;stroke-opacity:1"
         id="path52" /></g><g
       id="g54"
       transform="matrix(0.5504281,0,0,0.5504342,48.00094,204.5647)"
       style="stroke:#ffffff"><path
         d="m 471.67,491.34 c 0,-5.94 -4.62,-10.68 -10.32,-10.68 -5.7,0 -10.26,4.74 -10.26,10.68 0,5.88 4.56,10.68 10.26,10.68 5.7,0 10.32,-4.8 10.32,-10.68 z"
         style="fill:none;stroke:#ffffff;stroke-width:11.34;stroke-linecap:round;stroke-linejoin:round;stroke-miterlimit:10;stroke-dasharray:none;stroke-opacity:1"
         id="path56" /></g><g
       id="g58"
       transform="matrix(0.5504281,0,0,0.5504342,48.00094,204.5647)"
       style="stroke:#ffffff"><path
         d="m 491.05,454.48 c 0,0 1.74,-45.3 -42.06,-30.66 l -9.66,3.18"
         style="fill:none;stroke:#ffffff;stroke-width:12.48;stroke-linecap:round;stroke-linejoin:miter;stroke-miterlimit:10;stroke-dasharray:none;stroke-opacity:1"
         id="path60" /></g><g
       id="g62"
       transform="matrix(0.5504281,0,0,0.5504342,48.00094,204.5647)"
       style="fill:#ffffff;stroke:#ffffff"><path
         d="m 427.27,467.26 c 0,-5.88 -4.56,-10.68 -10.26,-10.68 -5.7,0 -10.32,4.8 -10.32,10.68 0,5.96 4.62,10.7 10.32,10.7 5.7,0 10.26,-4.74 10.26,-10.7 z"
         style="fill:#ffffff;stroke:#ffffff;stroke-width:11.34;stroke-linecap:round;stroke-linejoin:round;stroke-miterlimit:10;stroke-dasharray:none;stroke-opacity:1"
         id="path64" /></g><g
       id="g66"
       transform="matrix(0.5504281,0,0,0.5504342,48.00094,204.5647)"
       style="stroke:#ffffff"><path
         d="m 849.14,548.16 c -53.82,18.06 -115.86,9.54 -162.86,-22.26 -27.3,-18.42 -49.74,-44.76 -60.72,-75.8 -10.92,-31.08 -9.6,-66.9 6.42,-95.64 10.44,-18.72 26.7,-34.02 45.66,-43.92 18.96,-9.96 40.5,-14.64 61.94,-14.28 42.84,0.78 83.76,21.72 114.12,51.9 13.62,13.56 25.44,29.1 33.18,46.68 7.68,17.58 11.16,37.26 7.98,56.16 -3.96,23.9 -18.36,45.38 -37.14,60.62 -19.08,15.48 -42.9,25.02 -67.38,27.06 -24.48,2.04 -49.56,-3.48 -70.94,-15.66"
         style="fill:none;stroke:#ffffff;stroke-width:13.2;stroke-linecap:round;stroke-linejoin:round;stroke-miterlimit:10;stroke-dasharray:none;stroke-opacity:1"
         id="path68" /></g><g
       id="g70"
       transform="matrix(0.5504281,0,0,0.5504342,48.00094,204.5647)"
       style="stroke:#ffffff"><path
         d="m 769.94,491.34 c 0,-5.94 -4.62,-10.68 -10.26,-10.68 -5.7,0 -10.32,4.74 -10.32,10.68 0,5.88 4.62,10.68 10.32,10.68 5.64,0 10.26,-4.8 10.26,-10.68 z"
         style="fill:none;stroke:#ffffff;stroke-width:11.34;stroke-linecap:round;stroke-linejoin:round;stroke-miterlimit:10;stroke-dasharray:none;stroke-opacity:1"
         id="path72" /></g><g
       id="g74"
       transform="matrix(0.5504281,0,0,0.5504342,48.00094,204.5647)"
       style="stroke:#ffffff"><path
         d="m 789.32,454.48 c 0,0 1.8,-45.3 -42,-30.66 L 737.6,427"
         style="fill:none;stroke:#ffffff;stroke-width:12.48;stroke-linecap:round;stroke-linejoin:miter;stroke-miterlimit:10;stroke-dasharray:none;stroke-opacity:1"
         id="path76" /></g><g
       id="g78"
       transform="matrix(0.5504281,0,0,0.5504342,48.00094,204.5647)"
       style="stroke:#ffffff"><path
         d="m 725.58,467.26 c 0,-5.88 -4.62,-10.68 -10.32,-10.68 -5.64,0 -10.26,4.8 -10.26,10.68 0,5.96 4.62,10.7 10.26,10.7 5.7,0 10.32,-4.74 10.32,-10.7 z"
         style="fill:none;stroke:#ffffff;stroke-width:11.34;stroke-linecap:round;stroke-linejoin:round;stroke-miterlimit:10;stroke-dasharray:none;stroke-opacity:1"
         id="path80" /></g><g
       id="g82"
       transform="matrix(0.5504281,0,0,0.5504342,48.00094,204.5647)"
       style="stroke:#ffffff"><path
         d="M 237.29,261.2 C 183.48,279.22 121.44,270.74 74.398,238.94 47.159,220.46 24.659,194.18 13.74,163.1 2.8199,132.08 4.1399,96.261 20.159,67.501 30.539,48.78 46.799,33.48 65.758,23.52 84.718,13.56 106.32,8.8801 127.74,9.3 c 42.84,0.72 83.75,21.66 114.11,51.9 13.64,13.501 25.46,29.061 33.14,46.64 7.74,17.58 11.16,37.32 8.04,56.22 -4.02,23.88 -18.36,45.36 -37.14,60.6 -19.16,15.42 -42.92,25.02 -67.39,27 -24.48,2.04 -49.56,-3.48 -70.92,-15.6"
         style="fill:none;stroke:#ffffff;stroke-width:13.2;stroke-linecap:round;stroke-linejoin:round;stroke-miterlimit:10;stroke-dasharray:none;stroke-opacity:1"
         id="path84" /></g><g
       id="g86"
       transform="matrix(0.5504281,0,0,0.5504342,48.00094,204.5647)"
       style="stroke:#ffffff"><path
         d="m 158.1,204.32 c 0,-5.88 -4.62,-10.68 -10.32,-10.68 -5.64,0 -10.26,4.8 -10.26,10.68 0,5.94 4.62,10.68 10.26,10.68 5.7,0 10.32,-4.74 10.32,-10.68 z"
         style="fill:none;stroke:#ffffff;stroke-width:11.34;stroke-linecap:round;stroke-linejoin:round;stroke-miterlimit:10;stroke-dasharray:none;stroke-opacity:1"
         id="path88" /></g><g
       id="g90"
       transform="matrix(0.5504281,0,0,0.5504342,48.00094,204.5647)"
       style="stroke:#ffffff"><path
         d="m 177.48,167.54 c 0,0 1.74,-45.3 -42,-30.72 l -9.72,3.24"
         style="fill:none;stroke:#ffffff;stroke-width:12.48;stroke-linecap:round;stroke-linejoin:miter;stroke-miterlimit:10;stroke-dasharray:none;stroke-opacity:1"
         id="path92" /></g><g
       id="g94"
       transform="matrix(0.5504281,0,0,0.5504342,48.00094,204.5647)"
       style="stroke:#ffffff"><path
         d="m 113.76,180.32 c 0,-5.88 -4.62,-10.68 -10.32,-10.68 -5.703,0 -10.323,4.8 -10.323,10.68 0,5.88 4.62,10.68 10.323,10.68 5.7,0 10.32,-4.8 10.32,-10.68 z"
         style="fill:none;stroke:#ffffff;stroke-width:11.34;stroke-linecap:round;stroke-linejoin:round;stroke-miterlimit:10;stroke-dasharray:none;stroke-opacity:1"
         id="path96" /></g><g
       id="g98"
       transform="matrix(0.5504281,0,0,0.5504342,48.00094,204.5647)"
       style="stroke:#ffffff"><path
         d="m 535.57,261.2 c -53.82,18.02 -115.86,9.54 -162.84,-22.26 -27.3,-18.48 -49.74,-44.76 -60.66,-75.84 -10.98,-31.02 -9.66,-66.839 6.36,-95.599 10.44,-18.721 26.7,-34.021 45.66,-43.981 18.96,-9.96 40.56,-14.6399 61.92,-14.22 42.84,0.72 83.76,21.66 114.12,51.9 13.62,13.501 25.43,29.061 33.17,46.64 7.68,17.58 11.16,37.32 7.98,56.22 -3.96,23.88 -18.3,45.36 -37.13,60.6 -19.08,15.42 -42.9,25.02 -67.38,27 -24.48,2.04 -49.56,-3.48 -70.92,-15.6"
         style="fill:none;stroke:#ffffff;stroke-width:13.2;stroke-linecap:round;stroke-linejoin:round;stroke-miterlimit:10;stroke-dasharray:none;stroke-opacity:1"
         id="path100" /></g><g
       id="g102"
       transform="matrix(0.5504281,0,0,0.5504342,48.00094,204.5647)"
       style="stroke:#ffffff"><path
         d="m 456.37,204.32 c 0,-5.88 -4.56,-10.68 -10.26,-10.68 -5.7,0 -10.32,4.8 -10.32,10.68 0,5.94 4.62,10.68 10.32,10.68 5.7,0 10.26,-4.74 10.26,-10.68 z"
         style="fill:none;stroke:#ffffff;stroke-width:11.34;stroke-linecap:round;stroke-linejoin:round;stroke-miterlimit:10;stroke-dasharray:none;stroke-opacity:1"
         id="path104" /></g><g
       id="g106"
       transform="matrix(0.5504281,0,0,0.5504342,48.00094,204.5647)"
       style="stroke:#ffffff"><path
         d="m 475.75,167.54 c 0,0 1.8,-45.3 -42,-30.72 l -9.72,3.24"
         style="fill:none;stroke:#ffffff;stroke-width:12.48;stroke-linecap:round;stroke-linejoin:miter;stroke-miterlimit:10;stroke-dasharray:none;stroke-opacity:1"
         id="path108" /></g><g
       id="g110"
       transform="matrix(0.5504281,0,0,0.5504342,48.00094,204.5647)"
       style="stroke:#ffffff"><path
         d="m 412.03,180.32 c 0,-5.88 -4.62,-10.68 -10.32,-10.68 -5.64,0 -10.26,4.8 -10.26,10.68 0,5.88 4.62,10.68 10.26,10.68 5.7,0 10.32,-4.8 10.32,-10.68 z"
         style="fill:none;stroke:#ffffff;stroke-width:11.34;stroke-linecap:round;stroke-linejoin:round;stroke-miterlimit:10;stroke-dasharray:none;stroke-opacity:1"
         id="path112" /></g></g></svg>
