<svg viewBox="0 0 18 15"><path fill="#424242" d="m 8.9840011,14.999999 c -0.82,0 -1.484,-0.554166 -1.484,-1.236666 l 0,-12.5266674 c -0.001,-0.68249996 0.664,-1.2366666 1.484,-1.2366666 l 0,0 c 0.819,0 1.4839999,0.55416664 1.4839999,1.2366666 l 0,12.5258334 c 0,0.683334 -0.6649999,1.2375 -1.4839999,1.2375 l 0,0 z" /><path fill="#424242" d="M 3.9895291,6.4007106 C 3.4099492,5.8211447 3.1364741,5.1559996 3.3776714,4.9148087 L 7.8046279,0.48796543 C 8.0451184,0.24606754 8.7109873,0.52024193 9.290568,1.0998071 l 0,0 C 9.869441,1.6786658 10.143623,2.344518 9.902426,2.5857092 L 5.4757635,7.012258 C 5.2342716,7.2537438 4.5684028,6.9795728 3.9895291,6.4007106 l 0,0 z" /><path fill="#424242" d="M 8.6792884,1.0995284 C 9.2588542,0.5199484 9.9239993,0.24647331 10.16519,0.48767058 l 4.426844,4.42695662 c 0.241898,0.2404905 -0.03228,0.9063594 -0.611842,1.4859399 l 0,0 C 13.401333,6.9794399 12.735482,7.2536224 12.49429,7.0124249 L 8.0677411,2.5857628 C 7.8262554,2.3442709 8.1004263,1.678402 8.6792884,1.0995284 l 0,0 z" /></svg>
