<svg xmlns="http://www.w3.org/2000/svg" viewBox="0 0 464.5 174.9"><path d="M436.7 169.1v5.6h-3v-5.5l-4.9-10.2h3.3l2.1 4.5c.4.9.8 1.8 1.1 2.6.3-.9.8-1.9 1.3-2.9l2-4.2h3.2l-5.1 10.1zM423 174.6l-4.4-6.5h-.1v6.5h-3v-15.7c1.2-.1 2.7-.1 4.5-.1 3.5 0 5.7 1.2 5.7 4.4 0 2.3-1.6 4-4 4.4.4.6.9 1.2 1.3 1.7l3.8 5.3H423zm-3.4-13.3c-.4 0-.9 0-1.2.1v4.5h1.1c1.8 0 2.9-.9 2.9-2.4.1-1.5-.8-2.2-2.8-2.2zM402.7 174.9c-4.8 0-7.1-3-7.1-7.9 0-5.2 3.5-8.3 7.7-8.3s7.1 2.5 7.1 7.9c0 5.2-3.5 8.3-7.7 8.3zm.2-13.5c-2.2 0-4.2 1.7-4.2 5.3 0 3.3 1.3 5.5 4.1 5.5 2 0 4.2-1.6 4.2-5.4.1-3.5-1.4-5.4-4.1-5.4zM388.2 161.5v13.1h-3v-13.1h-4.1v-2.6h11.2v2.6h-4.1zM375.2 174.6l-1.1-3.2h-5.9l-1.1 3.2H364l5.5-15.7h3.4l5.6 15.7h-3.3zm-3.3-9.7c-.3-.9-.5-1.6-.7-2.5-.2.8-.4 1.7-.7 2.6l-1.4 4h4.4l-1.6-4.1zM356.5 174.6l-4.4-6.5h-.1v6.5h-3v-15.7c1.2-.1 2.7-.1 4.5-.1 3.5 0 5.7 1.2 5.7 4.4 0 2.3-1.6 4-4 4.4.4.6.9 1.2 1.3 1.7l3.8 5.3h-3.8zm-3.3-13.3c-.4 0-.9 0-1.2.1v4.5h1.1c1.8 0 2.9-.9 2.9-2.4s-.9-2.2-2.8-2.2zM336 174.9c-4.8 0-7.1-3-7.1-7.9 0-5.2 3.5-8.3 7.7-8.3s7.1 2.5 7.1 7.9c0 5.2-3.4 8.3-7.7 8.3zm.3-13.5c-2.2 0-4.2 1.7-4.2 5.3 0 3.3 1.3 5.5 4.1 5.5 2 0 4.2-1.6 4.2-5.4 0-3.5-1.4-5.4-4.1-5.4zM317.9 174.7h-4.6V159c1.3-.1 3.4-.1 5.3-.1 3.4 0 5.3 1.4 5.3 3.9 0 1.6-1 2.9-2.5 3.5 1.9.4 2.8 1.9 2.8 3.5 0 2.3-1.5 4.9-6.3 4.9zm.3-13.4h-1.8v4.1h1.2c2.1 0 3.1-.8 3.1-2.2.1-1.2-.6-1.9-2.5-1.9zm-.5 6.4h-1.3v4.4c.4 0 1 .1 1.7.1 2 0 3-.9 3-2.3-.1-1.6-1.4-2.2-3.4-2.2zM305.4 174.6l-1.1-3.2h-5.9l-1.1 3.2h-3l5.5-15.7h3.4l5.6 15.7h-3.4zm-3.3-9.7c-.3-.9-.5-1.6-.7-2.5-.2.8-.4 1.7-.7 2.6l-1.4 4h4.4l-1.6-4.1zM282.7 174.6v-15.7h3V172h5.1v2.7h-8.1zM261.9 174.6v-15.7h3V172h5.1v2.7h-8.1zM253.8 174.6l-1.1-3.2h-5.9l-1.1 3.2h-3l5.5-15.7h3.4l5.6 15.7h-3.4zm-3.3-9.7c-.3-.9-.5-1.6-.7-2.5-.2.8-.4 1.7-.7 2.6l-1.4 4h4.4l-1.6-4.1zM234.1 174.6l-4.6-7.9c-.7-1.2-1.2-2.4-1.7-3.4.1 1.3.1 3.8.1 5.7v5.6H225v-15.7h3.9l4.4 7.5c.7 1.2 1.3 2.5 1.9 3.7-.1-1.6-.2-4.4-.2-6.3v-4.9h2.9v15.7h-3.8zM212.1 174.9c-4.8 0-7.1-3-7.1-7.9 0-5.2 3.5-8.3 7.7-8.3s7.1 2.5 7.1 7.9c0 5.2-3.4 8.3-7.7 8.3zm.3-13.5c-2.2 0-4.2 1.7-4.2 5.3 0 3.3 1.3 5.5 4.1 5.5 2 0 4.2-1.6 4.2-5.4.1-3.5-1.4-5.4-4.1-5.4zM196.3 174.6v-15.7h3v15.7h-3zM187.3 161.5v13.1h-3v-13.1h-4.1v-2.6h11.2v2.6h-4.1zM175 174.6l-1.1-3.2H168l-1.1 3.2h-3l5.5-15.7h3.4l5.6 15.7H175zm-3.3-9.7c-.3-.9-.5-1.6-.7-2.5-.2.8-.4 1.7-.7 2.6l-1.4 4h4.4l-1.6-4.1zM155.4 174.6l-4.6-7.9c-.7-1.2-1.2-2.4-1.7-3.4.1 1.3.1 3.8.1 5.7v5.6h-2.9v-15.7h3.9l4.4 7.5c.7 1.2 1.4 2.5 1.9 3.7-.1-1.6-.2-4.4-.2-6.3v-4.9h2.9v15.7h-3.8zM322.3 118.1h-31.7c-.5 14.2 5.2 20.1 15.7 20.1 5 0 10.2-1.2 13.7-3.1l.7 6.1c-4.4 1.8-9.7 2.9-15.6 2.9-14.3 0-21.9-7.7-21.9-24.3 0-14.2 7.6-24.8 20.8-24.8 13.1 0 18.5 9.1 18.5 19.6-.1.8-.1 2-.2 3.5zm-18.7-17.7c-6.7 0-11.4 4.9-12.6 12.3h24c.2-7.3-4.2-12.3-11.4-12.3zM267.2 143.2v-30.7c0-7.4-2-11.7-8.9-11.7-8.5 0-14.5 8.4-14.5 19.6v22.8h-7.2V95.8h7.1c0 3.1-.3 7.6-.8 10.5l.2.1c2.7-6.9 8.7-11.5 17-11.5 10.9 0 14.2 6.9 14.2 15.3v33.1h-7.1zM217.6 143.2v-30.7c0-7.4-2-11.7-8.9-11.7-8.5 0-14.5 8.4-14.5 19.6v22.8H187V95.8h7.1c0 3.1-.3 7.6-.8 10.5l.2.1c2.7-6.9 8.7-11.5 17-11.5 10.9 0 14.2 6.9 14.2 15.3v33.1h-7.1zM155.7 144.1c-12.7 0-20.9-7.7-20.9-24.3 0-13.5 8.4-24.8 22.6-24.8 11.5 0 21 6.4 21 23.7 0 14.1-8.6 25.4-22.7 25.4zm1.1-43.2c-7.4 0-14.5 5.6-14.5 18.3 0 12.1 5.2 18.8 14.5 18.8 7.4 0 14.2-5.7 14.2-18.8 0-11.4-4.8-18.3-14.2-18.3zM105.4 168.1c-12 0-19.7-4.9-19.7-13.9 0-5.9 3.7-10.3 8.2-12.6-3-1.3-4.8-3.8-4.8-6.9 0-3.2 1.9-6.2 5.2-7.7-4.8-2.8-7.1-7.6-7.1-13.7 0-9.9 7.7-18.3 20.6-18.3 1.8 0 3.3.1 4.8.4.8.1 7.1.5 8.2.5h10.3v5.6h-5.7c-.5 0-3.2-.2-3.2-.2s0-.1.3.2c2.7 2.2 4.6 5.9 4.6 10.4 0 10.1-7 17.8-20.6 17.8-2.2 0-4.8-.3-6.5-.7-2.4.9-3.5 2.6-3.5 4.3 0 2.8 2.7 4 8.6 4h9.3c10.3 0 15.9 5.1 15.9 13.4 0 10-10.3 17.4-24.9 17.4zm7-24.6h-9.7c-1 0-2.2 0-3.1-.1-4.1 2.1-6.8 5.5-6.8 9.5 0 6.1 5.9 9.3 13.8 9.3 10.4 0 16.5-4.4 16.5-10.7 0-4.9-3.5-8-10.7-8zm-4.9-43c-8.2 0-13.1 5.1-13.1 12 0 7.7 4.7 11.8 12.7 11.8 7.8 0 12.9-4.2 12.9-11.8 0-7.6-4.7-12-12.5-12zM85.1 102c-10.5-1.7-15.5 6.3-15.5 22.2v19h-7.2V95.8h7.1c0 3.1-.4 7.8-1 11.9l.1.1c1.9-7 6.9-14 16.8-12.9l-.3 7.1zM47.5 143.2l-5.6-15.8H13.3l-5.7 15.8H0l23.9-64.4h7.9l23.9 64.4h-8.2zm-17-47c-1.2-3.2-2.1-6.1-2.9-9.4h-.2c-.8 3.1-1.7 6.2-2.9 9.3l-9.3 25.5h24.6l-9.3-25.4z"/><path fill="#00A651" d="M373.6 78.7h-45.4l22.7 39.4"/><path fill="#00AEEF" d="M419.1 78.7h-45.4L351 118.1h90.9l-22.8-39.4z"/><path fill="#2E3192" d="M464.5 78.7h-45.4l22.7 39.4"/><path fill="#FFF" d="M419.1 78.7h-45.5l22.7-39.3"/><path fill="#B02A30" d="M419.1 0h-45.5l22.7 39.4"/><path fill="#ED1C24" d="M419.1 0l-22.8 39.4 22.8 39.3h45.4"/><path fill="#8DC63F" d="M373.6 78.7l22.7-39.4L373.6 0l-45.4 78.7h45.4z"/></svg>