<?xml version="1.0" encoding="UTF-8" standalone="no"?>
<!-- Created with Inkscape (http://www.inkscape.org/) -->

<svg
   version="1.1"
   id="svg2"
   width="100.63741"
   height="80.18631"
   viewBox="0 0 100.63741 80.18631"
   sodipodi:docname="daos_logo_white.svg"
   inkscape:version="1.2.2 (b0a8486541, 2022-12-01)"
   xmlns:inkscape="http://www.inkscape.org/namespaces/inkscape"
   xmlns:sodipodi="http://sodipodi.sourceforge.net/DTD/sodipodi-0.dtd"
   xmlns="http://www.w3.org/2000/svg"
   xmlns:svg="http://www.w3.org/2000/svg">
  <defs
     id="defs6" />
  <sodipodi:namedview
     id="namedview4"
     pagecolor="#ffffff"
     bordercolor="#000000"
     borderopacity="0.25"
     inkscape:showpageshadow="2"
     inkscape:pageopacity="0.0"
     inkscape:pagecheckerboard="0"
     inkscape:deskcolor="#d1d1d1"
     showgrid="false"
     inkscape:zoom="2.95"
     inkscape:cx="48.135593"
     inkscape:cy="35.932203"
     inkscape:window-width="1920"
     inkscape:window-height="979"
     inkscape:window-x="1920"
     inkscape:window-y="32"
     inkscape:window-maximized="1"
     inkscape:current-layer="g8" />
  <g
     inkscape:groupmode="layer"
     inkscape:label="Image"
     id="g8"
     transform="translate(-48.979652,-64)">
    <g
       aria-label="daos"
       id="text170"
       style="font-size:21.3333px;font-family:FandolFang;-inkscape-font-specification:FandolFang;letter-spacing:15.4px;fill:#ffffff;fill-opacity:1">
      <path
         d="m 61.458799,140.38423 q 0,0.69792 -0.177083,1.26042 -0.177083,0.55208 -0.468749,0.97916 -0.291667,0.41667 -0.677083,0.71875 -0.385416,0.29167 -0.812498,0.47917 -0.416666,0.1875 -0.854166,0.28125 -0.427082,0.0833 -0.812499,0.0833 h -4.885408 q -0.697916,0 -1.249998,-0.17708 -0.552083,-0.17709 -0.979166,-0.46875 -0.416666,-0.30209 -0.718748,-0.6875 -0.291667,-0.38542 -0.479166,-0.80208 -0.1875,-0.42709 -0.28125,-0.85417 -0.08333,-0.4375 -0.08333,-0.8125 v -3.66666 q 0,-1.04166 0.374999,-1.76041 0.385416,-0.72917 0.947915,-1.17708 0.572916,-0.45834 1.239582,-0.65625 0.666665,-0.19792 1.229165,-0.19792 h 4.885408 v 2.70833 h -4.864575 q -0.541666,0 -0.822916,0.28125 -0.281249,0.27083 -0.281249,0.80208 v 3.64583 q 0,0.55208 0.270833,0.83333 0.281249,0.28125 0.812499,0.28125 h 4.885408 q 0.552083,0 0.822916,-0.28125 0.270833,-0.28125 0.270833,-0.8125 V 128.1655 h 2.708329 z"
         style="font-family:Audiowide;-inkscape-font-specification:Audiowide;fill:#ffffff;fill-opacity:1"
         id="path245" />
      <path
         d="m 91.067108,140.45715 q 0,0.5625 -0.197916,1.21875 -0.197917,0.64583 -0.645833,1.20833 -0.437499,0.55208 -1.156248,0.92708 -0.708332,0.375 -1.729164,0.375 h -4.885409 q -0.562499,0 -1.218748,-0.19792 -0.645832,-0.19791 -1.208331,-0.63541 -0.552083,-0.44792 -0.927082,-1.15625 -0.374999,-0.71875 -0.374999,-1.73958 0,-0.5625 0.197916,-1.21875 0.197916,-0.65625 0.635416,-1.20833 0.447916,-0.5625 1.156248,-0.9375 0.718749,-0.375 1.73958,-0.375 h 4.885409 v 2.58333 h -4.885409 q -0.552082,0 -0.854165,0.34375 -0.302083,0.33333 -0.302083,0.83333 0,0.53125 0.34375,0.83333 0.354166,0.29167 0.833332,0.29167 h 4.864575 q 0.552083,0 0.854166,-0.33333 0.302083,-0.33334 0.302083,-0.83333 v -3.78125 q 0,-0.53125 -0.333333,-0.84375 -0.322916,-0.3125 -0.822916,-0.3125 H 81.39004 v -2.57291 h 5.947907 q 0.562499,0 1.208332,0.19792 0.656249,0.19791 1.208331,0.64583 0.562499,0.4375 0.937499,1.15625 0.374999,0.70833 0.374999,1.72916 z"
         style="font-family:Audiowide;-inkscape-font-specification:Audiowide;fill:#ffffff;fill-opacity:1"
         id="path247" />
      <path
         d="m 121.02959,140.38423 q 0,0.69792 -0.17709,1.26042 -0.17708,0.55208 -0.46875,0.97916 -0.29166,0.41667 -0.67708,0.71875 -0.38541,0.29167 -0.8125,0.47917 -0.41666,0.1875 -0.85416,0.28125 -0.42709,0.0833 -0.8125,0.0833 h -4.88541 q -0.5625,0 -1.22917,-0.19792 -0.66666,-0.19791 -1.23958,-0.64583 -0.5625,-0.45833 -0.94791,-1.17708 -0.375,-0.72917 -0.375,-1.78125 v -3.66666 q 0,-1.04166 0.375,-1.76041 0.38541,-0.72917 0.94791,-1.17708 0.57292,-0.45834 1.23958,-0.65625 0.66667,-0.19792 1.22917,-0.19792 h 4.88541 q 1.04166,0 1.77083,0.375 0.72916,0.375 1.17708,0.94792 0.44792,0.56249 0.64583,1.22916 0.20834,0.66667 0.20834,1.23958 z m -2.70833,-3.64583 q 0,-0.56249 -0.28125,-0.83333 -0.28125,-0.27083 -0.8125,-0.27083 h -4.86458 q -0.54166,0 -0.82291,0.28125 -0.28125,0.27083 -0.28125,0.80208 v 3.66666 q 0,0.53125 0.28125,0.8125 0.28125,0.28125 0.82291,0.28125 h 4.86458 q 0.55208,0 0.82291,-0.28125 0.27084,-0.28125 0.27084,-0.8125 z"
         style="font-family:Audiowide;-inkscape-font-specification:Audiowide;fill:#ffffff;fill-opacity:1"
         id="path249" />
      <path
         d="m 149.61707,140.38423 q 0,0.69792 -0.17709,1.26042 -0.17708,0.55208 -0.46875,0.97916 -0.29166,0.41667 -0.67708,0.71875 -0.38542,0.29167 -0.8125,0.47917 -0.41666,0.1875 -0.85416,0.28125 -0.42709,0.0833 -0.8125,0.0833 h -7.33332 v -2.70833 h 7.31248 q 0.55209,0 0.83334,-0.28125 0.28125,-0.28125 0.28125,-0.8125 -0.0521,-1.08333 -1.09375,-1.08333 h -4.19791 q -0.89583,0 -1.52083,-0.3125 -0.625,-0.3125 -1.02083,-0.78125 -0.38542,-0.46875 -0.5625,-1.01041 -0.16667,-0.54167 -0.16667,-1.01042 0,-0.90625 0.32292,-1.52083 0.32291,-0.625 0.81249,-1.01041 0.48959,-0.38542 1.0625,-0.55209 0.57292,-0.17708 1.07292,-0.17708 h 6.65624 v 2.70833 h -6.63541 q -0.20833,0 -0.33333,0.0521 -0.11458,0.0417 -0.17708,0.125 -0.0521,0.0729 -0.0625,0.16667 -0.0104,0.0833 -0.0104,0.16667 0.0104,0.16666 0.0625,0.26041 0.0521,0.0937 0.125,0.13542 0.0833,0.0417 0.17708,0.0521 0.10417,0 0.19792,0 h 4.19791 q 1.04166,0 1.77083,0.375 0.72916,0.375 1.17708,0.94792 0.44792,0.5625 0.64583,1.22916 0.20834,0.66667 0.20834,1.23958 z"
         style="font-family:Audiowide;-inkscape-font-specification:Audiowide;fill:#ffffff;fill-opacity:1"
         id="path251" />
    </g>
    <path
       style="fill:#ffffff;fill-opacity:1"
       d="M 49,115.5 C 60.963173,97.691123 60.99588,94.909352 61,88 61.0041,81.090649 57.636843,75.780198 49,65 l 55,23"
       id="path756"
       sodipodi:nodetypes="cscc" />
    <path
       style="fill:#ffffff;fill-opacity:1"
       d="m 72.999652,64.5 53.499998,23 -53.499998,27.5 7,-11.5 30.499998,-16 -30.499998,-13 z"
       id="path758"
       sodipodi:nodetypes="ccccccc" />
    <path
       style="fill:#ffffff;fill-opacity:1"
       d="M 96.099652,64 149.59964,87 96.099652,114.5 103.09965,103 133.59964,87 103.09965,74 Z"
       id="path758-3"
       sodipodi:nodetypes="ccccccc" />
  </g>
</svg>
