<?xml version="1.0" encoding="UTF-8" standalone="no"?>
<!-- Created with Inkscape (http://www.inkscape.org/) -->

<svg
   xmlns:dc="http://purl.org/dc/elements/1.1/"
   xmlns:cc="http://creativecommons.org/ns#"
   xmlns:rdf="http://www.w3.org/1999/02/22-rdf-syntax-ns#"
   xmlns:svg="http://www.w3.org/2000/svg"
   xmlns="http://www.w3.org/2000/svg"
   xmlns:sodipodi="http://sodipodi.sourceforge.net/DTD/sodipodi-0.dtd"
   xmlns:inkscape="http://www.inkscape.org/namespaces/inkscape"
   version="1.1"
   id="svg2"
   xml:space="preserve"
   width="1200"
   height="533.33331"
   viewBox="0 0 1200 533.33331"
   sodipodi:docname="THGstackedlogo1.svg"
   inkscape:version="0.92.2 (5c3e80d, 2017-08-06)"><metadata
     id="metadata8"><rdf:RDF><cc:Work
         rdf:about=""><dc:format>image/svg+xml</dc:format><dc:type
           rdf:resource="http://purl.org/dc/dcmitype/StillImage" /><dc:title /></cc:Work></rdf:RDF></metadata><defs
     id="defs6"><clipPath
       clipPathUnits="userSpaceOnUse"
       id="clipPath20"><path
         d="M 0,0 H 10 V 10 H 0 Z"
         id="path18"
         inkscape:connector-curvature="0" /></clipPath><clipPath
       clipPathUnits="userSpaceOnUse"
       id="clipPath32"><path
         d="M 864.586,1110.73 V 399.992 H 688.809 V 1110.73 H 430.992 v 142.39 H 1125.92 V 1110.73 Z M 1589.39,399.992 v 401.387 c 0,36.312 -7.82,63.16 -23.44,80.562 -15.62,17.375 -41.59,26.079 -77.93,26.079 -49.61,0 -85.55,-19.161 -107.81,-57.43 V 399.992 H 1210.87 V 1300 h 169.34 V 964.855 c 44.91,53.895 101.37,80.845 169.35,80.845 137.48,0 207.22,-79.88 209.17,-239.641 V 399.992 Z m 445.9,261.922 c 5.47,-41.414 21.96,-74.609 49.51,-99.609 27.53,-25.004 62.4,-37.504 104.6,-37.504 65.23,0 116.2,23.64 152.93,70.894 l 83.21,-93.148 c -25.4,-35.945 -59.79,-63.977 -103.13,-84.078 -43.37,-20.125 -91.42,-30.188 -144.14,-30.188 -92.98,0 -168.67,28.516 -227.06,85.551 -58.4,57.031 -87.6,133.004 -87.6,227.934 v 16.39 c 0,63.668 12.31,120.614 36.91,170.813 24.61,50.179 59.48,88.847 104.6,116.001 45.11,27.16 96.58,40.73 154.38,40.73 86.74,0 155,-27.35 204.8,-82.032 49.81,-54.684 74.7,-132.234 74.7,-232.617 v -69.137 z m 237.31,128.961 c -0.79,37.68 -10.94,66.813 -30.47,87.395 -19.53,20.609 -47.28,30.914 -83.2,30.914 -33.61,0 -60.86,-11.383 -81.75,-34.141 -20.89,-22.762 -34.27,-55.32 -40.14,-97.699 H 2272.6 Z M 3363.62,399.992 V 765.633 H 3020.85 V 399.992 h -175.78 v 853.128 h 175.78 V 907.426 h 342.77 V 1253.12 H 3539.4 V 399.992 Z m 932.52,195.133 c -32.62,-61.734 -78.62,-109.586 -137.99,-143.57 -59.38,-33.965 -126.37,-51.168 -200.98,-51.563 H 3692.9 v 853.128 h 262.51 c 75.01,0 142.08,-16.9 201.27,-50.69 59.19,-33.79 105.37,-81.83 138.59,-144.14 33.19,-62.306 49.78,-133.091 49.78,-212.403 v -39.239 c 0,-79.308 -16.3,-149.808 -48.91,-211.523 z m -129.2,251.355 c 0,86.715 -17.97,152.45 -53.91,197.18 -35.95,44.71 -88.48,67.07 -157.62,67.07 H 3868.7 V 541.211 h 84.96 c 68.74,0 121.29,22.453 157.61,67.383 36.34,44.906 54.88,109.168 55.67,192.785 z m 481.64,264.25 V 890.422 h 337.5 V 748.629 h -337.5 V 399.992 H 4472.8 v 853.128 h 555.46 V 1110.73 Z M 5768.31,718.75 v 129.488 h 335.74 V 507.816 c -31.66,-37.894 -76.39,-67.293 -134.19,-88.183 -57.8,-20.895 -121.86,-31.352 -192.19,-31.352 -73.82,0 -138.56,16.106 -194.23,48.332 -55.67,32.231 -98.65,79.004 -128.9,140.344 -30.27,61.316 -45.81,133.379 -46.6,216.203 v 58.024 c 0,85.132 14.37,158.866 43.08,221.196 28.69,62.28 70.11,109.93 124.22,142.95 54.09,33 117.47,49.52 190.13,49.52 101.17,0 180.26,-24.12 237.31,-72.37 57.02,-48.24 90.83,-118.46 101.37,-210.644 h -171.1 c -7.82,48.814 -25.11,84.564 -51.85,107.234 -26.78,22.65 -63.58,33.99 -110.46,33.99 -59.76,0 -105.28,-22.48 -136.52,-67.4 -31.26,-44.91 -47.08,-111.722 -47.46,-200.39 v -54.485 c 0,-89.461 16.99,-157.039 50.98,-202.738 33.98,-45.695 83.79,-68.543 149.41,-68.543 66.02,0 113.08,14.059 141.22,42.18 V 718.75 Z m 823.23,156.445 c -23.05,3.121 -43.35,4.68 -60.92,4.68 -64.09,0 -106.07,-21.664 -126,-65.031 V 399.992 H 6235.3 v 633.998 h 159.96 l 4.68,-75.595 c 33.99,58.195 81.04,87.305 141.22,87.305 18.74,0 36.32,-2.55 52.73,-7.62 z m 553.13,-398.726 c -54.31,-58.793 -127.14,-88.188 -218.56,-88.188 -91.41,0 -164.35,29.309 -218.84,87.903 -54.5,58.589 -81.75,138.277 -81.75,239.05 v 7.625 c 0,62.875 12.11,118.942 36.34,168.153 24.21,49.215 59.08,87.308 104.58,114.268 45.5,26.95 98.33,40.42 158.51,40.42 85.55,0 155.35,-26.16 209.46,-78.516 54.11,-52.356 84.27,-123.426 90.54,-213.282 l 1.16,-43.347 c 0,-97.282 -27.15,-175.297 -81.44,-234.086 z m -122.46,384.008 c -23.05,32.468 -55.48,48.707 -97.26,48.707 -41.41,0 -73.45,-16.149 -96.09,-48.422 -22.68,-32.274 -33.99,-82.254 -33.99,-149.922 0,-60.262 11.31,-106.332 33.99,-138.211 22.64,-31.879 55.07,-47.828 97.25,-47.828 41.02,0 73.05,15.754 96.1,47.234 23.04,31.504 34.56,81.86 34.56,151.11 0,59.074 -11.52,104.859 -34.56,137.332 z m 692.57,-460.485 -4.68,64.457 c -41.81,-50.769 -99.61,-76.168 -173.45,-76.168 -67.95,0 -119.82,19.532 -155.56,58.594 -35.73,39.063 -54.01,96.293 -54.78,171.672 v 415.443 h 169.32 V 623.93 c 0,-66.086 30.08,-99.129 90.26,-99.129 57.4,0 96.86,19.949 118.35,59.844 v 449.345 h 169.91 V 399.992 Z m 791.31,76.477 c -44.34,-58.793 -104.2,-88.188 -179.58,-88.188 -64.06,0 -115.83,22.254 -155.29,66.789 V 156.258 H 8001.9 v 877.732 h 157.02 l 5.87,-62.107 c 41.01,49.217 94.53,73.817 160.55,73.817 78.11,0 138.85,-28.91 182.22,-86.712 43.37,-57.824 65.03,-137.508 65.03,-239.074 v -8.789 c 0,-97.656 -22.17,-175.867 -66.5,-234.656 z m -134.17,383.5 c -20.92,32.011 -51.28,48.051 -91.11,48.051 -53.15,0 -89.66,-20.325 -109.59,-60.946 v -259.57 c 20.7,-41.809 57.63,-62.703 110.75,-62.703 80.85,0 121.3,66.219 121.3,198.629 0,58.988 -10.46,104.488 -31.35,136.539 z"
         id="path30"
         inkscape:connector-curvature="0" /></clipPath><clipPath
       clipPathUnits="userSpaceOnUse"
       id="clipPath32-3"><path
         d="M 864.586,1110.73 V 399.992 H 688.809 V 1110.73 H 430.992 v 142.39 H 1125.92 V 1110.73 Z M 1589.39,399.992 v 401.387 c 0,36.312 -7.82,63.16 -23.44,80.562 -15.62,17.375 -41.59,26.079 -77.93,26.079 -49.61,0 -85.55,-19.161 -107.81,-57.43 V 399.992 H 1210.87 V 1300 h 169.34 V 964.855 c 44.91,53.895 101.37,80.845 169.35,80.845 137.48,0 207.22,-79.88 209.17,-239.641 V 399.992 Z m 445.9,261.922 c 5.47,-41.414 21.96,-74.609 49.51,-99.609 27.53,-25.004 62.4,-37.504 104.6,-37.504 65.23,0 116.2,23.64 152.93,70.894 l 83.21,-93.148 c -25.4,-35.945 -59.79,-63.977 -103.13,-84.078 -43.37,-20.125 -91.42,-30.188 -144.14,-30.188 -92.98,0 -168.67,28.516 -227.06,85.551 -58.4,57.031 -87.6,133.004 -87.6,227.934 v 16.39 c 0,63.668 12.31,120.614 36.91,170.813 24.61,50.179 59.48,88.847 104.6,116.001 45.11,27.16 96.58,40.73 154.38,40.73 86.74,0 155,-27.35 204.8,-82.032 49.81,-54.684 74.7,-132.234 74.7,-232.617 v -69.137 z m 237.31,128.961 c -0.79,37.68 -10.94,66.813 -30.47,87.395 -19.53,20.609 -47.28,30.914 -83.2,30.914 -33.61,0 -60.86,-11.383 -81.75,-34.141 -20.89,-22.762 -34.27,-55.32 -40.14,-97.699 H 2272.6 Z M 3363.62,399.992 V 765.633 H 3020.85 V 399.992 h -175.78 v 853.128 h 175.78 V 907.426 h 342.77 V 1253.12 H 3539.4 V 399.992 Z m 932.52,195.133 c -32.62,-61.734 -78.62,-109.586 -137.99,-143.57 -59.38,-33.965 -126.37,-51.168 -200.98,-51.563 H 3692.9 v 853.128 h 262.51 c 75.01,0 142.08,-16.9 201.27,-50.69 59.19,-33.79 105.37,-81.83 138.59,-144.14 33.19,-62.306 49.78,-133.091 49.78,-212.403 v -39.239 c 0,-79.308 -16.3,-149.808 -48.91,-211.523 z m -129.2,251.355 c 0,86.715 -17.97,152.45 -53.91,197.18 -35.95,44.71 -88.48,67.07 -157.62,67.07 H 3868.7 V 541.211 h 84.96 c 68.74,0 121.29,22.453 157.61,67.383 36.34,44.906 54.88,109.168 55.67,192.785 z m 481.64,264.25 V 890.422 h 337.5 V 748.629 h -337.5 V 399.992 H 4472.8 v 853.128 h 555.46 V 1110.73 Z M 5768.31,718.75 v 129.488 h 335.74 V 507.816 c -31.66,-37.894 -76.39,-67.293 -134.19,-88.183 -57.8,-20.895 -121.86,-31.352 -192.19,-31.352 -73.82,0 -138.56,16.106 -194.23,48.332 -55.67,32.231 -98.65,79.004 -128.9,140.344 -30.27,61.316 -45.81,133.379 -46.6,216.203 v 58.024 c 0,85.132 14.37,158.866 43.08,221.196 28.69,62.28 70.11,109.93 124.22,142.95 54.09,33 117.47,49.52 190.13,49.52 101.17,0 180.26,-24.12 237.31,-72.37 57.02,-48.24 90.83,-118.46 101.37,-210.644 h -171.1 c -7.82,48.814 -25.11,84.564 -51.85,107.234 -26.78,22.65 -63.58,33.99 -110.46,33.99 -59.76,0 -105.28,-22.48 -136.52,-67.4 -31.26,-44.91 -47.08,-111.722 -47.46,-200.39 v -54.485 c 0,-89.461 16.99,-157.039 50.98,-202.738 33.98,-45.695 83.79,-68.543 149.41,-68.543 66.02,0 113.08,14.059 141.22,42.18 V 718.75 Z m 823.23,156.445 c -23.05,3.121 -43.35,4.68 -60.92,4.68 -64.09,0 -106.07,-21.664 -126,-65.031 V 399.992 H 6235.3 v 633.998 h 159.96 l 4.68,-75.595 c 33.99,58.195 81.04,87.305 141.22,87.305 18.74,0 36.32,-2.55 52.73,-7.62 z m 553.13,-398.726 c -54.31,-58.793 -127.14,-88.188 -218.56,-88.188 -91.41,0 -164.35,29.309 -218.84,87.903 -54.5,58.589 -81.75,138.277 -81.75,239.05 v 7.625 c 0,62.875 12.11,118.942 36.34,168.153 24.21,49.215 59.08,87.308 104.58,114.268 45.5,26.95 98.33,40.42 158.51,40.42 85.55,0 155.35,-26.16 209.46,-78.516 54.11,-52.356 84.27,-123.426 90.54,-213.282 l 1.16,-43.347 c 0,-97.282 -27.15,-175.297 -81.44,-234.086 z m -122.46,384.008 c -23.05,32.468 -55.48,48.707 -97.26,48.707 -41.41,0 -73.45,-16.149 -96.09,-48.422 -22.68,-32.274 -33.99,-82.254 -33.99,-149.922 0,-60.262 11.31,-106.332 33.99,-138.211 22.64,-31.879 55.07,-47.828 97.25,-47.828 41.02,0 73.05,15.754 96.1,47.234 23.04,31.504 34.56,81.86 34.56,151.11 0,59.074 -11.52,104.859 -34.56,137.332 z m 692.57,-460.485 -4.68,64.457 c -41.81,-50.769 -99.61,-76.168 -173.45,-76.168 -67.95,0 -119.82,19.532 -155.56,58.594 -35.73,39.063 -54.01,96.293 -54.78,171.672 v 415.443 h 169.32 V 623.93 c 0,-66.086 30.08,-99.129 90.26,-99.129 57.4,0 96.86,19.949 118.35,59.844 v 449.345 h 169.91 V 399.992 Z m 791.31,76.477 c -44.34,-58.793 -104.2,-88.188 -179.58,-88.188 -64.06,0 -115.83,22.254 -155.29,66.789 V 156.258 H 8001.9 v 877.732 h 157.02 l 5.87,-62.107 c 41.01,49.217 94.53,73.817 160.55,73.817 78.11,0 138.85,-28.91 182.22,-86.712 43.37,-57.824 65.03,-137.508 65.03,-239.074 v -8.789 c 0,-97.656 -22.17,-175.867 -66.5,-234.656 z m -134.17,383.5 c -20.92,32.011 -51.28,48.051 -91.11,48.051 -53.15,0 -89.66,-20.325 -109.59,-60.946 v -259.57 c 20.7,-41.809 57.63,-62.703 110.75,-62.703 80.85,0 121.3,66.219 121.3,198.629 0,58.988 -10.46,104.488 -31.35,136.539 z"
         id="path30-8"
         inkscape:connector-curvature="0" /></clipPath></defs><sodipodi:namedview
     pagecolor="#ffffff"
     bordercolor="#666666"
     borderopacity="1"
     objecttolerance="10"
     gridtolerance="10"
     guidetolerance="10"
     inkscape:pageopacity="0"
     inkscape:pageshadow="2"
     inkscape:window-width="1913"
     inkscape:window-height="968"
     id="namedview4"
     showgrid="false"
     inkscape:zoom="1"
     inkscape:cx="765.22474"
     inkscape:cy="251.40731"
     inkscape:window-x="0"
     inkscape:window-y="27"
     inkscape:window-maximized="0"
     inkscape:current-layer="g10" /><g
     id="g10"
     inkscape:groupmode="layer"
     inkscape:label="ink_ext_XXXXXX"
     transform="matrix(1.3333333,0,0,-1.3333333,0,533.33333)"><g
       id="g14"
       transform="scale(0.1)"><g
         clip-path="url(#clipPath20)"
         id="g16" /></g><g
       id="g246"
       transform="translate(0,-1.4124661e-4)"><path
         style="fill:#2c59a4"
         d="m 166.4585,285.25 c -0.26331,0.6875 -0.36168,24.2 -0.21862,52.25 l 0.26012,51 h 19.5 19.5 l 0.5,-33 0.5,-33 60.23651,-0.2578 60.23651,-0.2578 0.26349,33.2578 L 327.5,388.5 379,388.49983 c 45.77261,-1.5e-4 52.5009,-0.20198 60.5,-1.81479 25.55464,-5.15242 46.46406,-15.8341 63.11717,-32.24371 7.68821,-7.57579 16.93351,-20.22744 20.96643,-28.69133 l 1.78682,-3.75 h 18.30131 18.30131 l 0.26348,33.25 0.26348,33.25 h 85 85 V 370 351.5 L 668,351 l -64.5,-0.5 -0.27746,-14.25 -0.27745,-14.25 63.77745,-0.0153 c 35.0776,-0.008 64.35067,-0.3791 65.05125,-0.82372 0.97152,-0.61657 1.20882,-5.0624 1,-18.73469 L 732.5,284.5 l -120.22994,-0.25403 -120.22993,-0.25403 -0.60886,2.75403 c -4.21468,19.06421 -7.6355,26.78474 -17.23605,38.90051 -8.92517,11.26346 -25.76691,20.9774 -42.27566,24.38369 -7.96876,1.64421 -13.61659,1.94558 -36.66956,1.95669 L 368,352 v -32.41821 c 0,-17.83002 -0.27314,-33.13002 -0.60699,-34 C 366.84512,284.15401 357.05712,284 266.86163,284 c -79.01753,0 -100.02456,0.26153 -100.40313,1.25 z"
         id="path250"
         inkscape:connector-curvature="0" /><path
         style="fill:#54802c"
         d="m 166.46681,160.22833 c -0.26787,0.69942 -0.36999,24.22167 -0.22693,52.27167 l 0.26012,51 99.93798,0.25486 c 79.28952,0.2022 100.10259,-0.004 100.73469,-1 0.43819,-0.69017 0.8036,-16.02668 0.81202,-34.08114 l 0.0153,-32.82628 30.75,0.40523 c 34.93218,0.46034 37.2812,0.83389 53.20131,8.46024 7.98904,3.82706 10.78174,5.86271 18.05051,13.15732 11.85654,11.89868 17.08396,22.46602 21.46316,43.38823 l 0.57737,2.75845 55.22882,-0.25845 L 602.5,263.5 v -52 -52 h -20 -20 l -0.5,33 -0.5,33 -18,0.25562 -18,0.25562 -3.38728,-6.25562 C 505.33334,188.76755 475.48373,168.02819 437.22279,160.77453 432.32161,159.84535 416.54555,159.5 379,159.5 h -51.5 l -0.5,33 -0.5,33 h -60 -60 l -0.5,-33 -0.5,-33 -19.27307,-0.27167 c -14.8725,-0.20965 -19.38427,0.0187 -19.76012,1 z"
         id="path248"
         inkscape:connector-curvature="0" /></g><text
       xml:space="preserve"
       style="font-style:normal;font-variant:normal;font-weight:bold;font-stretch:normal;font-size:120px;line-height:0.25;font-family:Roboto;-inkscape-font-specification:'Roboto, Bold';font-variant-ligatures:normal;font-variant-caps:normal;font-variant-numeric:normal;font-feature-settings:normal;text-align:start;letter-spacing:0px;word-spacing:0px;writing-mode:lr-tb;text-anchor:start;fill:#2c59a5;fill-opacity:1;stroke:none;stroke-width:0.75;"
       x="40.697159"
       y="-40.000515"
       id="text260"
       transform="scale(1,-1)"><tspan
         sodipodi:role="line"
         id="tspan258"
         x="40.697159"
         y="-40.000515"
         style="font-style:normal;font-variant:normal;font-weight:bold;font-stretch:normal;font-size:120px;line-height:1.25;font-family:Roboto;-inkscape-font-specification:'Roboto, Bold';font-variant-ligatures:normal;font-variant-caps:normal;font-variant-numeric:normal;font-feature-settings:normal;text-align:start;writing-mode:lr-tb;text-anchor:start;fill:#2c59a5;fill-opacity:1;stroke-width:0.75;">The HDF Group</tspan></text>
</g></svg>