<?xml version="1.0" encoding="UTF-8" standalone="no"?>
<!-- Created with Inkscape (http://www.inkscape.org/) -->

<svg
   xmlns:dc="http://purl.org/dc/elements/1.1/"
   xmlns:cc="http://creativecommons.org/ns#"
   xmlns:rdf="http://www.w3.org/1999/02/22-rdf-syntax-ns#"
   xmlns:svg="http://www.w3.org/2000/svg"
   xmlns="http://www.w3.org/2000/svg"
   xmlns:sodipodi="http://sodipodi.sourceforge.net/DTD/sodipodi-0.dtd"
   xmlns:inkscape="http://www.inkscape.org/namespaces/inkscape"
   version="1.1"
   id="svg2"
   xml:space="preserve"
   width="1200"
   height="533.33331"
   viewBox="0 0 1200 533.33331"
   sodipodi:docname="hdf_logo.svg"
   inkscape:version="0.92.2 (5c3e80d, 2017-08-06)"><metadata
     id="metadata8"><rdf:RDF><cc:Work
         rdf:about=""><dc:format>image/svg+xml</dc:format><dc:type
           rdf:resource="http://purl.org/dc/dcmitype/StillImage" /><dc:title /></cc:Work></rdf:RDF></metadata><defs
     id="defs6"><clipPath
       clipPathUnits="userSpaceOnUse"
       id="clipPath20"><path
         d="M 0,0 H 10 V 10 H 0 Z"
         id="path18"
         inkscape:connector-curvature="0" /></clipPath><clipPath
       clipPathUnits="userSpaceOnUse"
       id="clipPath32"><path
         d="M 864.586,1110.73 V 399.992 H 688.809 V 1110.73 H 430.992 v 142.39 H 1125.92 V 1110.73 Z M 1589.39,399.992 v 401.387 c 0,36.312 -7.82,63.16 -23.44,80.562 -15.62,17.375 -41.59,26.079 -77.93,26.079 -49.61,0 -85.55,-19.161 -107.81,-57.43 V 399.992 H 1210.87 V 1300 h 169.34 V 964.855 c 44.91,53.895 101.37,80.845 169.35,80.845 137.48,0 207.22,-79.88 209.17,-239.641 V 399.992 Z m 445.9,261.922 c 5.47,-41.414 21.96,-74.609 49.51,-99.609 27.53,-25.004 62.4,-37.504 104.6,-37.504 65.23,0 116.2,23.64 152.93,70.894 l 83.21,-93.148 c -25.4,-35.945 -59.79,-63.977 -103.13,-84.078 -43.37,-20.125 -91.42,-30.188 -144.14,-30.188 -92.98,0 -168.67,28.516 -227.06,85.551 -58.4,57.031 -87.6,133.004 -87.6,227.934 v 16.39 c 0,63.668 12.31,120.614 36.91,170.813 24.61,50.179 59.48,88.847 104.6,116.001 45.11,27.16 96.58,40.73 154.38,40.73 86.74,0 155,-27.35 204.8,-82.032 49.81,-54.684 74.7,-132.234 74.7,-232.617 v -69.137 z m 237.31,128.961 c -0.79,37.68 -10.94,66.813 -30.47,87.395 -19.53,20.609 -47.28,30.914 -83.2,30.914 -33.61,0 -60.86,-11.383 -81.75,-34.141 -20.89,-22.762 -34.27,-55.32 -40.14,-97.699 H 2272.6 Z M 3363.62,399.992 V 765.633 H 3020.85 V 399.992 h -175.78 v 853.128 h 175.78 V 907.426 h 342.77 V 1253.12 H 3539.4 V 399.992 Z m 932.52,195.133 c -32.62,-61.734 -78.62,-109.586 -137.99,-143.57 -59.38,-33.965 -126.37,-51.168 -200.98,-51.563 H 3692.9 v 853.128 h 262.51 c 75.01,0 142.08,-16.9 201.27,-50.69 59.19,-33.79 105.37,-81.83 138.59,-144.14 33.19,-62.306 49.78,-133.091 49.78,-212.403 v -39.239 c 0,-79.308 -16.3,-149.808 -48.91,-211.523 z m -129.2,251.355 c 0,86.715 -17.97,152.45 -53.91,197.18 -35.95,44.71 -88.48,67.07 -157.62,67.07 H 3868.7 V 541.211 h 84.96 c 68.74,0 121.29,22.453 157.61,67.383 36.34,44.906 54.88,109.168 55.67,192.785 z m 481.64,264.25 V 890.422 h 337.5 V 748.629 h -337.5 V 399.992 H 4472.8 v 853.128 h 555.46 V 1110.73 Z M 5768.31,718.75 v 129.488 h 335.74 V 507.816 c -31.66,-37.894 -76.39,-67.293 -134.19,-88.183 -57.8,-20.895 -121.86,-31.352 -192.19,-31.352 -73.82,0 -138.56,16.106 -194.23,48.332 -55.67,32.231 -98.65,79.004 -128.9,140.344 -30.27,61.316 -45.81,133.379 -46.6,216.203 v 58.024 c 0,85.132 14.37,158.866 43.08,221.196 28.69,62.28 70.11,109.93 124.22,142.95 54.09,33 117.47,49.52 190.13,49.52 101.17,0 180.26,-24.12 237.31,-72.37 57.02,-48.24 90.83,-118.46 101.37,-210.644 h -171.1 c -7.82,48.814 -25.11,84.564 -51.85,107.234 -26.78,22.65 -63.58,33.99 -110.46,33.99 -59.76,0 -105.28,-22.48 -136.52,-67.4 -31.26,-44.91 -47.08,-111.722 -47.46,-200.39 v -54.485 c 0,-89.461 16.99,-157.039 50.98,-202.738 33.98,-45.695 83.79,-68.543 149.41,-68.543 66.02,0 113.08,14.059 141.22,42.18 V 718.75 Z m 823.23,156.445 c -23.05,3.121 -43.35,4.68 -60.92,4.68 -64.09,0 -106.07,-21.664 -126,-65.031 V 399.992 H 6235.3 v 633.998 h 159.96 l 4.68,-75.595 c 33.99,58.195 81.04,87.305 141.22,87.305 18.74,0 36.32,-2.55 52.73,-7.62 z m 553.13,-398.726 c -54.31,-58.793 -127.14,-88.188 -218.56,-88.188 -91.41,0 -164.35,29.309 -218.84,87.903 -54.5,58.589 -81.75,138.277 -81.75,239.05 v 7.625 c 0,62.875 12.11,118.942 36.34,168.153 24.21,49.215 59.08,87.308 104.58,114.268 45.5,26.95 98.33,40.42 158.51,40.42 85.55,0 155.35,-26.16 209.46,-78.516 54.11,-52.356 84.27,-123.426 90.54,-213.282 l 1.16,-43.347 c 0,-97.282 -27.15,-175.297 -81.44,-234.086 z m -122.46,384.008 c -23.05,32.468 -55.48,48.707 -97.26,48.707 -41.41,0 -73.45,-16.149 -96.09,-48.422 -22.68,-32.274 -33.99,-82.254 -33.99,-149.922 0,-60.262 11.31,-106.332 33.99,-138.211 22.64,-31.879 55.07,-47.828 97.25,-47.828 41.02,0 73.05,15.754 96.1,47.234 23.04,31.504 34.56,81.86 34.56,151.11 0,59.074 -11.52,104.859 -34.56,137.332 z m 692.57,-460.485 -4.68,64.457 c -41.81,-50.769 -99.61,-76.168 -173.45,-76.168 -67.95,0 -119.82,19.532 -155.56,58.594 -35.73,39.063 -54.01,96.293 -54.78,171.672 v 415.443 h 169.32 V 623.93 c 0,-66.086 30.08,-99.129 90.26,-99.129 57.4,0 96.86,19.949 118.35,59.844 v 449.345 h 169.91 V 399.992 Z m 791.31,76.477 c -44.34,-58.793 -104.2,-88.188 -179.58,-88.188 -64.06,0 -115.83,22.254 -155.29,66.789 V 156.258 H 8001.9 v 877.732 h 157.02 l 5.87,-62.107 c 41.01,49.217 94.53,73.817 160.55,73.817 78.11,0 138.85,-28.91 182.22,-86.712 43.37,-57.824 65.03,-137.508 65.03,-239.074 v -8.789 c 0,-97.656 -22.17,-175.867 -66.5,-234.656 z m -134.17,383.5 c -20.92,32.011 -51.28,48.051 -91.11,48.051 -53.15,0 -89.66,-20.325 -109.59,-60.946 v -259.57 c 20.7,-41.809 57.63,-62.703 110.75,-62.703 80.85,0 121.3,66.219 121.3,198.629 0,58.988 -10.46,104.488 -31.35,136.539 z"
         id="path30"
         inkscape:connector-curvature="0" /></clipPath><clipPath
       clipPathUnits="userSpaceOnUse"
       id="clipPath32-3"><path
         d="M 864.586,1110.73 V 399.992 H 688.809 V 1110.73 H 430.992 v 142.39 H 1125.92 V 1110.73 Z M 1589.39,399.992 v 401.387 c 0,36.312 -7.82,63.16 -23.44,80.562 -15.62,17.375 -41.59,26.079 -77.93,26.079 -49.61,0 -85.55,-19.161 -107.81,-57.43 V 399.992 H 1210.87 V 1300 h 169.34 V 964.855 c 44.91,53.895 101.37,80.845 169.35,80.845 137.48,0 207.22,-79.88 209.17,-239.641 V 399.992 Z m 445.9,261.922 c 5.47,-41.414 21.96,-74.609 49.51,-99.609 27.53,-25.004 62.4,-37.504 104.6,-37.504 65.23,0 116.2,23.64 152.93,70.894 l 83.21,-93.148 c -25.4,-35.945 -59.79,-63.977 -103.13,-84.078 -43.37,-20.125 -91.42,-30.188 -144.14,-30.188 -92.98,0 -168.67,28.516 -227.06,85.551 -58.4,57.031 -87.6,133.004 -87.6,227.934 v 16.39 c 0,63.668 12.31,120.614 36.91,170.813 24.61,50.179 59.48,88.847 104.6,116.001 45.11,27.16 96.58,40.73 154.38,40.73 86.74,0 155,-27.35 204.8,-82.032 49.81,-54.684 74.7,-132.234 74.7,-232.617 v -69.137 z m 237.31,128.961 c -0.79,37.68 -10.94,66.813 -30.47,87.395 -19.53,20.609 -47.28,30.914 -83.2,30.914 -33.61,0 -60.86,-11.383 -81.75,-34.141 -20.89,-22.762 -34.27,-55.32 -40.14,-97.699 H 2272.6 Z M 3363.62,399.992 V 765.633 H 3020.85 V 399.992 h -175.78 v 853.128 h 175.78 V 907.426 h 342.77 V 1253.12 H 3539.4 V 399.992 Z m 932.52,195.133 c -32.62,-61.734 -78.62,-109.586 -137.99,-143.57 -59.38,-33.965 -126.37,-51.168 -200.98,-51.563 H 3692.9 v 853.128 h 262.51 c 75.01,0 142.08,-16.9 201.27,-50.69 59.19,-33.79 105.37,-81.83 138.59,-144.14 33.19,-62.306 49.78,-133.091 49.78,-212.403 v -39.239 c 0,-79.308 -16.3,-149.808 -48.91,-211.523 z m -129.2,251.355 c 0,86.715 -17.97,152.45 -53.91,197.18 -35.95,44.71 -88.48,67.07 -157.62,67.07 H 3868.7 V 541.211 h 84.96 c 68.74,0 121.29,22.453 157.61,67.383 36.34,44.906 54.88,109.168 55.67,192.785 z m 481.64,264.25 V 890.422 h 337.5 V 748.629 h -337.5 V 399.992 H 4472.8 v 853.128 h 555.46 V 1110.73 Z M 5768.31,718.75 v 129.488 h 335.74 V 507.816 c -31.66,-37.894 -76.39,-67.293 -134.19,-88.183 -57.8,-20.895 -121.86,-31.352 -192.19,-31.352 -73.82,0 -138.56,16.106 -194.23,48.332 -55.67,32.231 -98.65,79.004 -128.9,140.344 -30.27,61.316 -45.81,133.379 -46.6,216.203 v 58.024 c 0,85.132 14.37,158.866 43.08,221.196 28.69,62.28 70.11,109.93 124.22,142.95 54.09,33 117.47,49.52 190.13,49.52 101.17,0 180.26,-24.12 237.31,-72.37 57.02,-48.24 90.83,-118.46 101.37,-210.644 h -171.1 c -7.82,48.814 -25.11,84.564 -51.85,107.234 -26.78,22.65 -63.58,33.99 -110.46,33.99 -59.76,0 -105.28,-22.48 -136.52,-67.4 -31.26,-44.91 -47.08,-111.722 -47.46,-200.39 v -54.485 c 0,-89.461 16.99,-157.039 50.98,-202.738 33.98,-45.695 83.79,-68.543 149.41,-68.543 66.02,0 113.08,14.059 141.22,42.18 V 718.75 Z m 823.23,156.445 c -23.05,3.121 -43.35,4.68 -60.92,4.68 -64.09,0 -106.07,-21.664 -126,-65.031 V 399.992 H 6235.3 v 633.998 h 159.96 l 4.68,-75.595 c 33.99,58.195 81.04,87.305 141.22,87.305 18.74,0 36.32,-2.55 52.73,-7.62 z m 553.13,-398.726 c -54.31,-58.793 -127.14,-88.188 -218.56,-88.188 -91.41,0 -164.35,29.309 -218.84,87.903 -54.5,58.589 -81.75,138.277 -81.75,239.05 v 7.625 c 0,62.875 12.11,118.942 36.34,168.153 24.21,49.215 59.08,87.308 104.58,114.268 45.5,26.95 98.33,40.42 158.51,40.42 85.55,0 155.35,-26.16 209.46,-78.516 54.11,-52.356 84.27,-123.426 90.54,-213.282 l 1.16,-43.347 c 0,-97.282 -27.15,-175.297 -81.44,-234.086 z m -122.46,384.008 c -23.05,32.468 -55.48,48.707 -97.26,48.707 -41.41,0 -73.45,-16.149 -96.09,-48.422 -22.68,-32.274 -33.99,-82.254 -33.99,-149.922 0,-60.262 11.31,-106.332 33.99,-138.211 22.64,-31.879 55.07,-47.828 97.25,-47.828 41.02,0 73.05,15.754 96.1,47.234 23.04,31.504 34.56,81.86 34.56,151.11 0,59.074 -11.52,104.859 -34.56,137.332 z m 692.57,-460.485 -4.68,64.457 c -41.81,-50.769 -99.61,-76.168 -173.45,-76.168 -67.95,0 -119.82,19.532 -155.56,58.594 -35.73,39.063 -54.01,96.293 -54.78,171.672 v 415.443 h 169.32 V 623.93 c 0,-66.086 30.08,-99.129 90.26,-99.129 57.4,0 96.86,19.949 118.35,59.844 v 449.345 h 169.91 V 399.992 Z m 791.31,76.477 c -44.34,-58.793 -104.2,-88.188 -179.58,-88.188 -64.06,0 -115.83,22.254 -155.29,66.789 V 156.258 H 8001.9 v 877.732 h 157.02 l 5.87,-62.107 c 41.01,49.217 94.53,73.817 160.55,73.817 78.11,0 138.85,-28.91 182.22,-86.712 43.37,-57.824 65.03,-137.508 65.03,-239.074 v -8.789 c 0,-97.656 -22.17,-175.867 -66.5,-234.656 z m -134.17,383.5 c -20.92,32.011 -51.28,48.051 -91.11,48.051 -53.15,0 -89.66,-20.325 -109.59,-60.946 v -259.57 c 20.7,-41.809 57.63,-62.703 110.75,-62.703 80.85,0 121.3,66.219 121.3,198.629 0,58.988 -10.46,104.488 -31.35,136.539 z"
         id="path30-8"
         inkscape:connector-curvature="0" /></clipPath></defs><sodipodi:namedview
     pagecolor="#ffffff"
     bordercolor="#666666"
     borderopacity="1"
     objecttolerance="10"
     gridtolerance="10"
     guidetolerance="10"
     inkscape:pageopacity="0"
     inkscape:pageshadow="2"
     inkscape:window-width="1913"
     inkscape:window-height="968"
     id="namedview4"
     showgrid="false"
     inkscape:zoom="1"
     inkscape:cx="563.22474"
     inkscape:cy="251.40731"
     inkscape:window-x="0"
     inkscape:window-y="27"
     inkscape:window-maximized="0"
     inkscape:current-layer="g10" /><g
     id="g10"
     inkscape:groupmode="layer"
     inkscape:label="ink_ext_XXXXXX"
     transform="matrix(1.3333333,0,0,-1.3333333,0,533.33333)"><g
       id="g14"
       transform="scale(0.1)"><g
         clip-path="url(#clipPath20)"
         id="g16" /></g><g
       id="g246"
       transform="translate(0,-1.4124661e-4)"><path
         style="fill:#2c59a4"
         d="m 166.4585,285.25 c -0.26331,0.6875 -0.36168,24.2 -0.21862,52.25 l 0.26012,51 h 19.5 19.5 l 0.5,-33 0.5,-33 60.23651,-0.2578 60.23651,-0.2578 0.26349,33.2578 L 327.5,388.5 379,388.49983 c 45.77261,-1.5e-4 52.5009,-0.20198 60.5,-1.81479 25.55464,-5.15242 46.46406,-15.8341 63.11717,-32.24371 7.68821,-7.57579 16.93351,-20.22744 20.96643,-28.69133 l 1.78682,-3.75 h 18.30131 18.30131 l 0.26348,33.25 0.26348,33.25 h 85 85 V 370 351.5 L 668,351 l -64.5,-0.5 -0.27746,-14.25 -0.27745,-14.25 63.77745,-0.0153 c 35.0776,-0.008 64.35067,-0.3791 65.05125,-0.82372 0.97152,-0.61657 1.20882,-5.0624 1,-18.73469 L 732.5,284.5 l -120.22994,-0.25403 -120.22993,-0.25403 -0.60886,2.75403 c -4.21468,19.06421 -7.6355,26.78474 -17.23605,38.90051 -8.92517,11.26346 -25.76691,20.9774 -42.27566,24.38369 -7.96876,1.64421 -13.61659,1.94558 -36.66956,1.95669 L 368,352 v -32.41821 c 0,-17.83002 -0.27314,-33.13002 -0.60699,-34 C 366.84512,284.15401 357.05712,284 266.86163,284 c -79.01753,0 -100.02456,0.26153 -100.40313,1.25 z"
         id="path250"
         inkscape:connector-curvature="0" /><path
         style="fill:#54802c"
         d="m 166.46681,160.22833 c -0.26787,0.69942 -0.36999,24.22167 -0.22693,52.27167 l 0.26012,51 99.93798,0.25486 c 79.28952,0.2022 100.10259,-0.004 100.73469,-1 0.43819,-0.69017 0.8036,-16.02668 0.81202,-34.08114 l 0.0153,-32.82628 30.75,0.40523 c 34.93218,0.46034 37.2812,0.83389 53.20131,8.46024 7.98904,3.82706 10.78174,5.86271 18.05051,13.15732 11.85654,11.89868 17.08396,22.46602 21.46316,43.38823 l 0.57737,2.75845 55.22882,-0.25845 L 602.5,263.5 v -52 -52 h -20 -20 l -0.5,33 -0.5,33 -18,0.25562 -18,0.25562 -3.38728,-6.25562 C 505.33334,188.76755 475.48373,168.02819 437.22279,160.77453 432.32161,159.84535 416.54555,159.5 379,159.5 h -51.5 l -0.5,33 -0.5,33 h -60 -60 l -0.5,-33 -0.5,-33 -19.27307,-0.27167 c -14.8725,-0.20965 -19.38427,0.0187 -19.76012,1 z"
         id="path248"
         inkscape:connector-curvature="0" /></g><g
       aria-label="The HDF Group"
       transform="scale(1,-1)"
       style="font-style:normal;font-variant:normal;font-weight:bold;font-stretch:normal;font-size:120px;line-height:0.25;font-family:Roboto;-inkscape-font-specification:'Roboto, Bold';font-variant-ligatures:normal;font-variant-caps:normal;font-variant-numeric:normal;font-feature-settings:normal;text-align:start;letter-spacing:0px;word-spacing:0px;writing-mode:lr-tb;text-anchor:start;fill:#2c59a5;fill-opacity:1;stroke:none;stroke-width:0.75"
       id="text260"><path
         d="m 43.099503,-111.07473 v -14.23828 H 112.5331 v 14.23828 H 86.458878 v 71.074215 H 68.880753 v -71.074215 z"
         style="font-style:normal;font-variant:normal;font-weight:bold;font-stretch:normal;font-size:120px;line-height:1.25;font-family:Roboto;-inkscape-font-specification:'Roboto, Bold';font-variant-ligatures:normal;font-variant-caps:normal;font-variant-numeric:normal;font-feature-settings:normal;text-align:start;writing-mode:lr-tb;text-anchor:start;fill:#2c59a5;fill-opacity:1;stroke-width:0.75"
         id="path828" /><path
         d="m 148.80263,-90.85989 q -7.38281,0 -10.72266,5.683594 v 45.175781 h -16.93359 v -89.999995 h 16.93359 v 33.457026 q 6.6211,-8.027346 16.9336,-8.027346 9.375,0 15.11718,5.566409 5.80078,5.566406 5.80078,19.042969 v 39.960937 H 158.93935 V -80.07864 q 0,-6.152344 -2.63672,-8.4375 -2.63672,-2.34375 -7.5,-2.34375 z"
         style="font-style:normal;font-variant:normal;font-weight:bold;font-stretch:normal;font-size:120px;line-height:1.25;font-family:Roboto;-inkscape-font-specification:'Roboto, Bold';font-variant-ligatures:normal;font-variant-caps:normal;font-variant-numeric:normal;font-feature-settings:normal;text-align:start;writing-mode:lr-tb;text-anchor:start;fill:#2c59a5;fill-opacity:1;stroke-width:0.75"
         id="path830" /><path
         d="m 242.72841,-50.313015 q -3.04688,4.335938 -9.25781,7.910156 -6.21094,3.574219 -15.46875,3.574219 -14.82422,0 -23.14453,-8.964844 -8.32032,-9.023437 -8.32032,-21.738281 v -2.285156 q 0,-14.355469 7.96875,-23.554688 8.02735,-9.199221 21.6211,-9.199221 13.65234,0 20.80078,8.55469 7.14844,8.554688 7.14844,22.617188 v 7.207031 h -40.3711 q 0.87891,6.152344 4.86328,9.960937 3.98438,3.75 10.48828,3.75 9.66797,0 15.29297,-7.089843 z m -26.71875,-40.605469 q -5.39063,0 -8.32031,3.632813 -2.92969,3.632812 -3.8086,9.492187 h 23.55469 v -1.289062 q -0.11719,-5.097656 -2.87109,-8.4375 -2.69532,-3.398438 -8.55469,-3.398438 z"
         style="font-style:normal;font-variant:normal;font-weight:bold;font-stretch:normal;font-size:120px;line-height:1.25;font-family:Roboto;-inkscape-font-specification:'Roboto, Bold';font-variant-ligatures:normal;font-variant-caps:normal;font-variant-numeric:normal;font-feature-settings:normal;text-align:start;writing-mode:lr-tb;text-anchor:start;fill:#2c59a5;fill-opacity:1;stroke-width:0.75"
         id="path832" /><path
         d="m 336.71278,-40.000515 v -36.5625 h -34.27734 v 36.5625 h -17.63672 v -85.312495 h 17.63672 v 34.570308 h 34.27734 v -34.570308 h 17.57813 v 85.312495 z"
         style="font-style:normal;font-variant:normal;font-weight:bold;font-stretch:normal;font-size:120px;line-height:1.25;font-family:Roboto;-inkscape-font-specification:'Roboto, Bold';font-variant-ligatures:normal;font-variant-caps:normal;font-variant-numeric:normal;font-feature-settings:normal;text-align:start;writing-mode:lr-tb;text-anchor:start;fill:#2c59a5;fill-opacity:1;stroke-width:0.75"
         id="path834" /><path
         d="m 369.64247,-40.000515 v -85.312495 h 26.3086 q 17.22656,0 28.0664,11.25 10.89844,11.25 10.89844,29.531245 v 3.808594 q 0,18.28125 -10.89844,29.53125 -10.83984,11.191406 -28.30078,11.191406 z m 26.3086,-71.074215 h -8.67188 v 56.894528 h 8.4375 q 10.48828,0 15.87891,-6.855469 5.44922,-6.914063 5.44922,-19.6875 v -3.925781 q 0,-26.425778 -21.09375,-26.425778 z"
         style="font-style:normal;font-variant:normal;font-weight:bold;font-stretch:normal;font-size:120px;line-height:1.25;font-family:Roboto;-inkscape-font-specification:'Roboto, Bold';font-variant-ligatures:normal;font-variant-caps:normal;font-variant-numeric:normal;font-feature-settings:normal;text-align:start;writing-mode:lr-tb;text-anchor:start;fill:#2c59a5;fill-opacity:1;stroke-width:0.75"
         id="path836" /><path
         d="m 447.68935,-40.000515 v -85.312495 h 55.60547 v 14.23828 h -37.96875 v 22.031246 h 33.75 v 14.179688 h -33.75 v 34.863281 z"
         style="font-style:normal;font-variant:normal;font-weight:bold;font-stretch:normal;font-size:120px;line-height:1.25;font-family:Roboto;-inkscape-font-specification:'Roboto, Bold';font-variant-ligatures:normal;font-variant-caps:normal;font-variant-numeric:normal;font-feature-settings:normal;text-align:start;writing-mode:lr-tb;text-anchor:start;fill:#2c59a5;fill-opacity:1;stroke-width:0.75"
         id="path838" /><path
         d="m 611.10732,-84.824734 v 34.042969 q -3.04688,3.632813 -10.83985,7.792969 -7.73437,4.160156 -21.79687,4.160156 -16.58203,0 -26.83594,-10.722656 -10.19531,-10.78125 -10.19531,-30.527344 v -5.097656 q 0,-19.746094 9.78515,-30.527344 9.78516,-10.83984 26.01563,-10.83984 16.58203,0 24.49219,7.96875 7.91015,7.96875 9.3164,20.390621 h -17.10937 q -0.9961,-6.445311 -4.62891,-10.312501 -3.63281,-3.86719 -11.60156,-3.86719 -18.39844,0 -18.39844,27.070316 v 5.214844 q 0,27.070313 20.09766,27.070313 6.32812,0 9.49218,-1.40625 3.16407,-1.464844 4.57032,-2.8125 v -14.707032 h -15.9375 v -12.890625 z"
         style="font-style:normal;font-variant:normal;font-weight:bold;font-stretch:normal;font-size:120px;line-height:1.25;font-family:Roboto;-inkscape-font-specification:'Roboto, Bold';font-variant-ligatures:normal;font-variant-caps:normal;font-variant-numeric:normal;font-feature-settings:normal;text-align:start;writing-mode:lr-tb;text-anchor:start;fill:#2c59a5;fill-opacity:1;stroke-width:0.75"
         id="path840" /><path
         d="m 653.76357,-88.04739 q -9.55079,0 -12.53907,6.503906 v 41.542969 h -16.99218 v -63.398435 h 15.99609 l 0.52734,7.558591 q 4.98047,-8.730471 14.1211,-8.730471 3.22265,0 5.21484,0.76172 l -0.17578,16.23047 q -1.28906,-0.117187 -3.04688,-0.292969 -1.69921,-0.175781 -3.10546,-0.175781 z"
         style="font-style:normal;font-variant:normal;font-weight:bold;font-stretch:normal;font-size:120px;line-height:1.25;font-family:Roboto;-inkscape-font-specification:'Roboto, Bold';font-variant-ligatures:normal;font-variant-caps:normal;font-variant-numeric:normal;font-feature-settings:normal;text-align:start;writing-mode:lr-tb;text-anchor:start;fill:#2c59a5;fill-opacity:1;stroke-width:0.75"
         id="path842" /><path
         d="m 663.31435,-71.055202 v -1.230469 q 0,-13.828125 7.85156,-23.027344 7.85156,-9.257815 22.14844,-9.257815 14.47265,0 22.26562,9.257815 7.79297,9.199219 7.79297,23.027344 v 1.230469 q 0,13.828125 -7.79297,23.027343 -7.79297,9.199219 -22.14844,9.199219 -14.41406,0 -22.26562,-9.199219 -7.85156,-9.199218 -7.85156,-23.027343 z m 16.99218,-1.230469 v 1.230469 q 0,7.734375 2.92969,13.183593 2.98828,5.390625 10.19531,5.390625 7.08985,0 10.01954,-5.390625 2.98828,-5.449218 2.98828,-13.183593 v -1.230469 q 0,-7.558594 -2.98828,-13.066406 -2.92969,-5.566407 -10.13672,-5.566407 -7.14844,0 -10.07813,5.566407 -2.92969,5.507812 -2.92969,13.066406 z"
         style="font-style:normal;font-variant:normal;font-weight:bold;font-stretch:normal;font-size:120px;line-height:1.25;font-family:Roboto;-inkscape-font-specification:'Roboto, Bold';font-variant-ligatures:normal;font-variant-caps:normal;font-variant-numeric:normal;font-feature-settings:normal;text-align:start;writing-mode:lr-tb;text-anchor:start;fill:#2c59a5;fill-opacity:1;stroke-width:0.75"
         id="path844" /><path
         d="m 772.41591,-40.000515 -0.46875,-6.503906 q -6.21094,7.675781 -17.34375,7.675781 -9.375,0 -15.23438,-5.507812 -5.80078,-5.507813 -5.80078,-18.046875 v -41.015623 h 16.9336 v 41.13281 q 0,5.273438 2.51953,7.5 2.51953,2.167969 6.44531,2.167969 4.62891,0 7.5,-1.582031 2.87109,-1.640625 4.39453,-4.453125 v -44.765623 h 16.99219 v 63.398435 z"
         style="font-style:normal;font-variant:normal;font-weight:bold;font-stretch:normal;font-size:120px;line-height:1.25;font-family:Roboto;-inkscape-font-specification:'Roboto, Bold';font-variant-ligatures:normal;font-variant-caps:normal;font-variant-numeric:normal;font-feature-settings:normal;text-align:start;writing-mode:lr-tb;text-anchor:start;fill:#2c59a5;fill-opacity:1;stroke-width:0.75"
         id="path846" /><path
         d="m 833.70497,-38.82864 q -9.49219,0 -15.52734,-6.738281 v 29.941406 h -16.99219 v -87.773435 h 15.76172 l 0.64453,6.152341 q 6.03516,-7.324221 15.9375,-7.324221 12.07031,0 18.39844,8.847659 6.38672,8.847656 6.38672,23.320312 v 1.230469 q 0,13.828125 -6.38672,23.085938 -6.32813,9.257812 -18.22266,9.257812 z m -4.57031,-52.03125 q -7.91016,0 -10.95703,6.152344 v 25.957031 q 3.16406,6.269531 11.07422,6.269531 6.62109,0 9.375,-5.507812 2.7539,-5.507813 2.7539,-13.183594 v -1.230469 q 0,-7.851562 -2.87109,-13.125 -2.8125,-5.332031 -9.375,-5.332031 z"
         style="font-style:normal;font-variant:normal;font-weight:bold;font-stretch:normal;font-size:120px;line-height:1.25;font-family:Roboto;-inkscape-font-specification:'Roboto, Bold';font-variant-ligatures:normal;font-variant-caps:normal;font-variant-numeric:normal;font-feature-settings:normal;text-align:start;writing-mode:lr-tb;text-anchor:start;fill:#2c59a5;fill-opacity:1;stroke-width:0.75"
         id="path848" /></g></g></svg>