<?xml version="1.0" encoding="UTF-8" standalone="no"?>
<!-- Created with Inkscape (http://www.inkscape.org/) -->

<svg
   xmlns:dc="http://purl.org/dc/elements/1.1/"
   xmlns:cc="http://creativecommons.org/ns#"
   xmlns:rdf="http://www.w3.org/1999/02/22-rdf-syntax-ns#"
   xmlns:svg="http://www.w3.org/2000/svg"
   xmlns="http://www.w3.org/2000/svg"
   xmlns:xlink="http://www.w3.org/1999/xlink"
   xmlns:sodipodi="http://sodipodi.sourceforge.net/DTD/sodipodi-0.dtd"
   xmlns:inkscape="http://www.inkscape.org/namespaces/inkscape"
   id="svg2"
   version="1.1"
   inkscape:version="0.91 r13725"
   width="263.99988"
   height="59.221512"
   viewBox="0 0 263.99988 59.221512"
   sodipodi:docname="hdf_logo.svg">
  <metadata
     id="metadata8">
    <rdf:RDF>
      <cc:Work
         rdf:about="">
        <dc:format>image/svg+xml</dc:format>
        <dc:type
           rdf:resource="http://purl.org/dc/dcmitype/StillImage" />
        <dc:title></dc:title>
      </cc:Work>
    </rdf:RDF>
  </metadata>
  <defs
     id="defs6">
    <linearGradient
       inkscape:collect="always"
       xlink:href="#linearGradient3890"
       id="linearGradient3908"
       x1="248.18954"
       y1="264.77844"
       x2="248.18954"
       y2="137.48309"
       gradientUnits="userSpaceOnUse"
       gradientTransform="matrix(0.30343329,0,0,-0.30343329,-24.488922,80.349685)" />
    <linearGradient
       id="linearGradient3890">
      <stop
         style="stop-color:#0418f4;stop-opacity:1;"
         offset="0"
         id="stop3892" />
      <stop
         style="stop-color:#29a729;stop-opacity:1;"
         offset="1"
         id="stop3894" />
    </linearGradient>
  </defs>
  <sodipodi:namedview
     pagecolor="#ffffff"
     bordercolor="#666666"
     borderopacity="1"
     objecttolerance="10"
     gridtolerance="10"
     guidetolerance="10"
     inkscape:pageopacity="0"
     inkscape:pageshadow="2"
     inkscape:window-width="1920"
     inkscape:window-height="986"
     id="namedview4"
     showgrid="false"
     inkscape:zoom="4.6612933"
     inkscape:cx="134.78047"
     inkscape:cy="23.59961"
     inkscape:window-x="0"
     inkscape:window-y="27"
     inkscape:window-maximized="1"
     inkscape:current-layer="svg2"
     fit-margin-top="0"
     fit-margin-left="0"
     fit-margin-right="0"
     fit-margin-bottom="0" />
  <path
     style="fill:url(#linearGradient3908);fill-opacity:1"
     d="M 63.137636,52.189075 C 62.109818,52.024278 61.275497,51.605562 60.579848,50.905409 60.023412,50.345386 59.746801,49.919326 59.498683,49.240042 L 59.33143,48.782206 59.30021,45.224251 c -0.01729,-1.956886 -0.04817,-3.557975 -0.0689,-3.557975 -0.02063,0 -0.324131,0.314584 -0.674171,0.6991 -4.409219,4.843285 -11.499061,8.174221 -19.886886,9.343226 -2.933447,0.408832 -6.985913,0.608214 -8.280254,0.407398 -2.229968,-0.345998 -3.864092,-2.118941 -3.970111,-4.307378 -0.08626,-1.780911 0.827414,-3.37106 2.4119,-4.197588 0.869102,-0.453374 1.345562,-0.549842 2.68767,-0.544229 3.2467,0.0142 6.83044,-0.420352 9.794533,-1.185907 6.77809,-1.75063 11.380575,-5.251804 13.213404,-10.051629 1.202597,-3.14931 1.246958,-7.365931 0.113509,-10.792996 C 53.072141,16.292921 49.121062,12.777388 43.133303,10.797209 42.06184,10.442873 40.257916,9.9881633 39.062672,9.7711293 37.964497,9.5717193 36.304089,9.3508363 36.089745,9.3756343 l -0.166016,0.01918 -0.0312,10.5490737 -0.03119,10.549074 -13.326781,0.03125 -13.3267801,0.03126 -0.031957,8.926143 c -0.03565,9.952816 0.00143,9.155971 -0.4706295,10.113593 -0.4376819,0.887914 -1.1424333,1.565127 -2.119044,2.036254 -0.6354092,0.306517 -1.2022213,0.42544 -2.0342883,0.426803 C 3.7382986,52.059462 3.1144472,51.914046 2.3727538,51.54987 1.9409848,51.337862 1.7372006,51.183773 1.2784161,50.722434 0.63466634,50.075075 0.32096529,49.546058 0.12387059,48.77542 0.00243524,48.30084 7.3087992e-4,47.984951 7.3087992e-4,26.142186 7.3087992e-4,1.4491823 -0.03747527,3.5096073 0.43858013,2.5286073 0.90419621,1.5691253 1.5270817,0.95579929 2.5287606,0.47053929 c 0.6970252,-0.337674 1.2813923,-0.47008900389 2.0722139,-0.469521 2.0582095,0.0015 3.7756615,1.23578601 4.4288988,3.18301301 0.1092209,0.325505 0.1167484,0.806147 0.146532,9.2694577 l 0.03139,8.926142 8.7700787,0 8.770083,0 0.01022,-8.551624 c 0.0054,-4.7033857 0.02502,-8.7209667 0.04318,-8.9279467 0.124945,-1.426191 1.284928,-2.90872701 2.754604,-3.52054701 0.986856,-0.410835 -1.619251,-0.37893700389 30.958982,-0.37893700389 20.426311,0 29.808287,0.0205900039 30.254242,0.0661800039 1.758003,0.180122 3.102786,1.08865601 3.828661,2.58664501 0.368065,0.759589 0.427386,1.079582 0.394191,2.12657 -0.02519,0.796344 -0.04442,0.912396 -0.227576,1.377204 -0.452268,1.14794 -1.391545,2.102993 -2.518649,2.560981 -0.965916,0.392484 0.03943,0.360528 -12.4404,0.395325 l -11.360543,0.03167 0,6.1796437 0,6.179628 8.114688,0.03408 8.114656,0.03409 0.499359,0.13862 c 2.091992,0.580661 3.408863,2.154661 3.508841,4.193954 0.0261,0.532526 0.0073,0.759149 -0.100321,1.20863 -0.390821,1.63249 -1.645882,2.890561 -3.3773,3.385407 -0.383329,0.109504 -0.857686,0.117742 -8.582825,0.148549 l -8.177103,0.03252 -0.03374,8.894925 c -0.03056,8.049336 -0.04365,8.931326 -0.138025,9.277822 -0.430179,1.579456 -1.607682,2.769337 -3.169422,3.202755 -0.520479,0.144446 -1.487612,0.21002 -1.966005,0.133368 z"
     id="path3020"
     inkscape:connector-curvature="0" />
  <path
     inkscape:connector-curvature="0"
     id="path3008"
     d="m 250.50016,59.09953 c 0.0258,-0.06708 0.0467,-4.697885 0.0467,-10.290717 l 0,-10.168784 1.53842,0 1.53846,0 0.0223,0.591211 c 0.0129,0.325172 0.0574,0.602735 0.0999,0.616802 0.0426,0.01407 0.26807,-0.130794 0.50104,-0.32194 1.01248,-0.830727 2.09119,-1.200189 3.50693,-1.201169 1.14259,-8.06e-4 1.84257,0.164661 2.80935,0.663979 1.499,0.774195 2.70112,2.340895 3.13324,4.083449 0.0735,0.296771 0.17147,0.564339 0.21752,0.594587 0.11055,0.07265 0.11625,3.126507 0.006,3.204615 -0.0426,0.03024 -0.1415,0.315158 -0.21951,0.63313 -0.18424,0.750826 -0.77569,1.989599 -1.24671,2.611304 -0.70037,0.924438 -1.92104,1.737776 -3.08116,2.053004 -0.72192,0.196163 -2.20946,0.23896 -2.90751,0.08366 -0.73272,-0.163009 -1.49489,-0.528395 -2.1713,-1.040903 -0.30969,-0.23466 -0.5594,-0.373673 -0.59938,-0.333691 -0.0386,0.03882 -0.0594,1.862667 -0.0472,4.205984 l 0.0214,4.137459 -1.60776,-2.6e-5 c -1.43436,-1.9e-5 -1.60268,-0.01315 -1.56095,-0.121954 z m 7.86582,-9.743103 c 1.07115,-0.368532 1.88419,-1.258234 2.32614,-2.545489 0.116,-0.338 0.14516,-0.642774 0.1437,-1.503141 -0.004,-1.277489 -0.13213,-1.754085 -0.71258,-2.614052 -1.00946,-1.495489 -2.98355,-2.008662 -4.58496,-1.191873 -0.47798,0.243804 -1.29455,1.105796 -1.54897,1.635247 -0.33455,0.696061 -0.43945,1.106703 -0.48579,1.900884 -0.12701,2.17942 1.08233,4.032922 2.90185,4.447423 0.53296,0.121411 1.39822,0.0645 1.96061,-0.129003 z m -129.48066,2.85073 c -1.28482,-0.27082 -2.59312,-1.059791 -3.39098,-2.044932 -0.47048,-0.58091 -1.08512,-1.815837 -1.30356,-2.618992 -0.14665,-0.539247 -0.16775,-0.815079 -0.168,-2.196894 -2.5e-4,-1.4706 0.0138,-1.633008 0.20522,-2.34118 0.51467,-1.905839 1.52411,-3.242448 3.01859,-3.996854 1.01579,-0.512761 1.81043,-0.684428 3.17483,-0.685838 1.89268,-0.0019 3.20598,0.481983 4.30689,1.587106 1.25614,1.260895 1.79776,2.70356 1.93369,5.1504 l 0.0545,0.980122 -4.78593,0 c -3.10307,0 -4.80262,0.02707 -4.83347,0.07698 -0.0767,0.123899 0.17436,1.000305 0.43529,1.520283 0.28687,0.571632 1.01335,1.300715 1.58442,1.590112 0.85887,0.435215 2.03521,0.435585 2.93653,9.38e-4 0.54915,-0.264845 1.20483,-0.891566 1.6729,-1.599052 0.21198,-0.320408 0.42824,-0.583596 0.48052,-0.584852 0.0525,-0.0012 0.65284,0.313995 1.33448,0.700571 1.37409,0.779273 1.3093,0.680788 0.8985,1.366129 -0.98477,1.642807 -2.73268,2.818114 -4.71256,3.168795 -0.70426,0.12474 -2.07063,0.08974 -2.84184,-0.07281 z m 4.5428,-8.748227 c 0.078,-0.203086 -0.40687,-1.098908 -0.8163,-1.508342 -1.24519,-1.245137 -3.23102,-1.18065 -4.49519,0.145973 -0.45087,0.473142 -0.84835,1.177135 -0.77401,1.370872 0.0631,0.164959 6.02213,0.156634 6.0855,-0.0085 z m 70.56016,8.788635 c -4.37486,-0.738697 -7.77437,-4.0753 -8.75914,-8.597074 -0.20164,-0.925788 -0.2044,-3.381644 -0.005,-4.307047 0.64476,-2.990274 2.24047,-5.390308 4.66781,-7.020636 0.69897,-0.469456 2.0905,-1.118226 2.90142,-1.352677 1.36976,-0.396038 3.26704,-0.537221 4.625,-0.344159 1.89405,0.269271 3.82309,1.073017 5.29697,2.207018 0.57863,0.445253 1.58613,1.457791 1.77719,1.78616 l 0.13661,0.234753 -0.96537,0.941604 c -1.3537,1.320395 -1.22899,1.26312 -1.65013,0.758006 -1.20264,-1.44249 -2.6486,-2.387239 -4.32457,-2.825571 -0.57524,-0.150442 -0.9325,-0.192837 -1.65817,-0.196769 -1.35582,-0.0074 -2.29975,0.220704 -3.54026,0.855253 -3.72163,1.903812 -5.30153,6.506607 -3.53047,10.285914 1.26594,2.701417 3.64481,4.450755 6.4155,4.717712 1.01478,0.09777 2.35503,-0.235894 3.46443,-0.862509 0.75614,-0.427077 1.8671,-1.439706 2.33434,-2.127758 0.52047,-0.766446 1.0122,-2.055044 0.87124,-2.283128 -0.0329,-0.05367 -0.91441,-0.08074 -2.62766,-0.08074 l -2.57776,0 0,-1.503137 0,-1.50314 4.39379,0 4.39378,0 0,0.597401 c -0.004,1.588055 -0.28105,3.339363 -0.71586,4.494552 -1.25532,3.335093 -3.98511,5.544826 -7.56755,6.125883 -0.83698,0.135744 -2.55179,0.135791 -3.35546,0 z m 24.94643,-0.0078 c -2.71459,-0.607537 -4.65747,-2.437966 -5.34761,-5.038017 -0.16543,-0.623215 -0.19636,-0.91111 -0.19944,-1.855397 -0.004,-0.797294 0.0333,-1.2666 0.12531,-1.637058 0.705,-2.838217 2.73486,-4.767352 5.58318,-5.306077 0.3013,-0.05699 0.90316,-0.07641 1.61875,-0.05227 0.93183,0.03146 1.26262,0.07544 1.81726,0.241558 1.17346,0.351472 1.97339,0.816642 2.85735,1.661561 0.90272,0.862831 1.54352,1.967307 1.87807,3.236873 0.27348,1.038037 0.28555,2.57945 0.0281,3.589787 -0.6401,2.511776 -2.34039,4.274248 -4.84127,5.018255 -0.87171,0.259334 -2.66887,0.331207 -3.51976,0.14077 z m 2.03292,-2.886872 c 0.80295,-0.124584 1.65458,-0.586293 2.25447,-1.22215 1.38317,-1.466246 1.56307,-3.392245 0.47042,-5.036927 -0.86466,-1.301541 -2.39395,-2.009864 -3.82334,-1.770842 -2.13157,0.356443 -3.68638,2.433728 -3.38485,4.522349 0.25131,1.74082 1.66823,3.220541 3.35335,3.502029 0.55379,0.09252 0.56901,0.09259 1.12995,0.0055 z m 11.18649,2.926056 c -0.60255,-0.107129 -1.42399,-0.4088 -1.9131,-0.702605 -0.59673,-0.358425 -1.33466,-1.179679 -1.67021,-1.858797 -0.64939,-1.314229 -0.74116,-2.214733 -0.74206,-7.281117 l 0,-3.796388 1.5354,0 1.5354,0 0.0333,4.181808 c 0.0353,4.448419 0.0549,4.695602 0.43507,5.440312 0.22769,0.446279 0.77873,0.909845 1.24682,1.04886 0.57514,0.170794 1.4342,0.156342 1.93934,-0.03264 0.43811,-0.163936 0.95292,-0.629926 1.16753,-1.056826 0.35417,-0.704585 0.37674,-1.00051 0.41168,-5.399703 l 0.0333,-4.181809 1.53539,0 1.53535,0 0,3.79639 c 0,4.024201 -0.0562,5.125161 -0.30714,6.106958 -0.47449,1.855274 -1.70713,3.129109 -3.50781,3.625084 -0.55141,0.151865 -2.6372,0.222403 -3.26679,0.110471 z m -138.31688,-9.302932 -0.0195,-8.999559 -2.40889,0 -2.40892,0 3.7e-5,-1.541681 3.8e-5,-1.541679 6.417245,0 6.41722,0 0.0209,-1.522409 0.0209,-1.52241 1.54006,0 1.54005,0 0,5.815294 c 0,3.905888 0.0262,5.831398 0.0793,5.864354 0.0437,0.02697 0.20125,-0.05794 0.35019,-0.188734 0.85797,-0.753297 2.32781,-1.133906 3.84459,-0.995549 2.06529,0.188387 3.28772,1.24332 3.83259,3.307491 0.1672,0.633394 0.17241,0.776854 0.19873,5.48742 l 0.0269,4.837022 -1.54543,0 -1.54542,0 0,-4.359299 c 0,-4.834442 -0.0237,-5.120548 -0.47302,-5.740998 -0.44193,-0.610062 -1.55078,-0.904117 -2.62551,-0.696246 -1.26305,0.244287 -1.87877,1.105624 -2.06698,2.89143 -0.0404,0.383771 -0.0743,2.319411 -0.0749,4.301434 l 0,3.603679 -1.54137,0 -1.54136,0 -0.0195,-8.99956 -0.0195,-8.999559 -2.35108,0 -2.35106,0 -0.0195,8.999559 -0.0195,8.99956 -1.61814,0 -1.6181,0 -0.0195,-8.99956 z m 39.94842,-1.52241 0,-10.521968 1.57958,0 1.57953,0 0.0199,4.104724 0.0199,4.104726 4.47085,0 4.47087,0 0.0199,-4.104726 0.0199,-4.104724 1.61809,0 1.61809,0 0,10.521968 0,10.52197 -1.61816,0 -1.61821,0 -0.0199,-4.875566 -0.0199,-4.875562 -4.47084,0 -4.47088,0 -0.0199,4.875562 -0.0199,4.875566 -1.57964,0 -1.5797,0 0,-10.52197 z m 17.11267,-0.0089 0,-10.530959 3.06407,0.04009 c 3.91108,0.05119 5.00316,0.204615 6.99221,0.9823 2.38895,0.934044 4.11613,2.466432 5.16678,4.584168 0.72188,1.455116 1.04167,2.945767 1.04167,4.856295 0,4.861259 -2.42672,8.338648 -6.8544,9.822045 -1.75995,0.589639 -3.46025,0.776205 -7.07856,0.776691 l -2.33177,0 0,-10.530964 z m 5.70469,7.411744 c 3.34537,-0.392328 5.55496,-1.703526 6.62933,-3.933967 0.44001,-0.913492 0.59095,-1.474594 0.7079,-2.632095 0.14978,-1.482266 -0.10951,-3.153763 -0.6666,-4.296079 -0.94024,-1.92821 -2.77368,-3.204468 -5.38515,-3.748572 -0.92798,-0.193344 -2.31731,-0.323252 -3.13597,-0.293221 l -0.65522,0.02403 -0.0199,7.400066 c -0.0104,4.070037 -0.004,7.443425 0.0168,7.49642 0.0512,0.13428 1.29222,0.126076 2.5087,-0.01658 z m 11.33086,-7.402752 0,-10.521967 5.24173,0 5.24166,0 0,1.502376 0,1.502375 -3.60365,0.02005 -3.6037,0.02005 0,2.505228 0,2.505231 3.48806,0.02008 3.48806,0.02007 0,1.463023 0,1.463024 -3.48806,0.02008 -3.48806,0.02007 -0.0199,4.991192 -0.0199,4.991187 -1.6182,0 -1.61815,0 0,-10.521967 z m 38.31072,3.854203 0,-6.667769 1.5417,0 1.54167,0 0,0.457958 c 0,0.251872 0.0364,0.480464 0.081,0.507983 0.0445,0.02752 0.25336,-0.111235 0.46404,-0.30832 1.188,-1.111221 3.21975,-1.311962 4.67093,-0.461503 0.17938,0.10512 0.34631,0.223744 0.37092,0.263597 0.043,0.06961 -1.30872,2.8549 -1.3855,2.8549 -0.0206,0 -0.19527,-0.120439 -0.38812,-0.267659 -0.19287,-0.147216 -0.49668,-0.307165 -0.67517,-0.355459 -0.70899,-0.191823 -1.81849,0.122474 -2.25232,0.63804 -0.28522,0.338961 -0.55801,0.906386 -0.70555,1.467465 -0.10797,0.410509 -0.13199,1.089512 -0.15963,4.510896 l -0.0326,4.027638 -1.53565,0 -1.53567,0 0,-6.667767 z"
     style="fill:#010101" />
</svg>
