<?xml version="1.0" encoding="UTF-8" standalone="no"?>
<!-- Created with Inkscape (http://www.inkscape.org/) -->

<svg
   version="1.1"
   id="svg2"
   xml:space="preserve"
   width="816"
   height="1056"
   viewBox="0 0 816 1056"
   xmlns="http://www.w3.org/2000/svg"
   xmlns:svg="http://www.w3.org/2000/svg"><defs
     id="defs6"><linearGradient
       x1="0"
       y1="0"
       x2="1"
       y2="0"
       gradientUnits="userSpaceOnUse"
       gradientTransform="matrix(562.669,0,0,562.669,25.505,396.512)"
       spreadMethod="pad"
       id="linearGradient26"><stop
         style="stop-opacity:1;stop-color:#f8c616"
         offset="0"
         id="stop10" /><stop
         style="stop-opacity:1;stop-color:#f8c616"
         offset="0.005618"
         id="stop12" /><stop
         style="stop-opacity:1;stop-color:#fffcbf"
         offset="0.252809"
         id="stop14" /><stop
         style="stop-opacity:1;stop-color:#fffcbf"
         offset="0.30312986"
         id="stop16" /><stop
         style="stop-opacity:1;stop-color:#bf8d1f"
         offset="0.595506"
         id="stop18" /><stop
         style="stop-opacity:1;stop-color:#bf8d1f"
         offset="0.60352905"
         id="stop20" /><stop
         style="stop-opacity:1;stop-color:#ecd973"
         offset="0.870786"
         id="stop22" /><stop
         style="stop-opacity:1;stop-color:#fffcbf"
         offset="1"
         id="stop24" /></linearGradient><clipPath
       clipPathUnits="userSpaceOnUse"
       id="clipPath36"><path
         d="M 605.474,94.289 H 8.206 v 106.803 h 597.268 z"
         clip-rule="evenodd"
         id="path34" /></clipPath><linearGradient
       x1="0"
       y1="0"
       x2="1"
       y2="0"
       gradientUnits="userSpaceOnUse"
       gradientTransform="matrix(461.23865,0,0,-461.23865,65.022919,147.69044)"
       spreadMethod="pad"
       id="linearGradient58"><stop
         style="stop-opacity:1;stop-color:#f8c616"
         offset="0"
         id="stop42" /><stop
         style="stop-opacity:1;stop-color:#f8c616"
         offset="0.005618"
         id="stop44" /><stop
         style="stop-opacity:1;stop-color:#fffcbf"
         offset="0.252809"
         id="stop46" /><stop
         style="stop-opacity:1;stop-color:#fffcbf"
         offset="0.31732085"
         id="stop48" /><stop
         style="stop-opacity:1;stop-color:#bf8d1f"
         offset="0.69215"
         id="stop50" /><stop
         style="stop-opacity:1;stop-color:#bf8d1f"
         offset="0.69735636"
         id="stop52" /><stop
         style="stop-opacity:1;stop-color:#ecd973"
         offset="0.870786"
         id="stop54" /><stop
         style="stop-opacity:1;stop-color:#fffcbf"
         offset="1"
         id="stop56" /></linearGradient><linearGradient
       x1="0"
       y1="0"
       x2="1"
       y2="0"
       gradientUnits="userSpaceOnUse"
       gradientTransform="matrix(1.2199086,0,0,-1.2199086,-0.08567781,792.53724)"
       spreadMethod="pad"
       id="linearGradient94"><stop
         style="stop-opacity:1;stop-color:#f8c616"
         offset="0"
         id="stop78" /><stop
         style="stop-opacity:1;stop-color:#f8c616"
         offset="0.005618"
         id="stop80" /><stop
         style="stop-opacity:1;stop-color:#fffcbf"
         offset="0.252809"
         id="stop82" /><stop
         style="stop-opacity:1;stop-color:#fffcbf"
         offset="0.30312986"
         id="stop84" /><stop
         style="stop-opacity:1;stop-color:#bf8d1f"
         offset="0.595506"
         id="stop86" /><stop
         style="stop-opacity:1;stop-color:#bf8d1f"
         offset="0.60352905"
         id="stop88" /><stop
         style="stop-opacity:1;stop-color:#ecd973"
         offset="0.870786"
         id="stop90" /><stop
         style="stop-opacity:1;stop-color:#fffcbf"
         offset="1"
         id="stop92" /></linearGradient><clipPath
       clipPathUnits="userSpaceOnUse"
       id="clipPath104"><path
         d="M 605.474,94.289 H 8.206 v 106.803 h 597.268 z"
         clip-rule="evenodd"
         id="path102" /></clipPath><linearGradient
       x1="0"
       y1="0"
       x2="1"
       y2="0"
       gradientUnits="userSpaceOnUse"
       gradientTransform="matrix(461.23865,0,0,-461.23865,65.022919,147.69044)"
       spreadMethod="pad"
       id="linearGradient126"><stop
         style="stop-opacity:1;stop-color:#f8c616"
         offset="0"
         id="stop110" /><stop
         style="stop-opacity:1;stop-color:#f8c616"
         offset="0.005618"
         id="stop112" /><stop
         style="stop-opacity:1;stop-color:#fffcbf"
         offset="0.252809"
         id="stop114" /><stop
         style="stop-opacity:1;stop-color:#fffcbf"
         offset="0.31732085"
         id="stop116" /><stop
         style="stop-opacity:1;stop-color:#bf8d1f"
         offset="0.69215"
         id="stop118" /><stop
         style="stop-opacity:1;stop-color:#bf8d1f"
         offset="0.69735636"
         id="stop120" /><stop
         style="stop-opacity:1;stop-color:#ecd973"
         offset="0.870786"
         id="stop122" /><stop
         style="stop-opacity:1;stop-color:#fffcbf"
         offset="1"
         id="stop124" /></linearGradient><clipPath
       clipPathUnits="userSpaceOnUse"
       id="clipPath156"><path
         d="M 0,792 H 612 V 0 H 0 Z"
         id="path154" /></clipPath><clipPath
       clipPathUnits="userSpaceOnUse"
       id="clipPath168"><path
         d="m 411.973,416.102 c -9.29,-3.879 -16.848,-9.699 -22.651,-17.468 v 0 c -5.831,-7.837 -10.074,-17.418 -12.741,-28.751 v 0 c -2.687,-11.328 -4.011,-24.67 -4.011,-40.037 v 0 c 0,-14.885 1.294,-28.089 3.893,-39.631 v 0 c 2.589,-11.521 6.803,-21.162 12.616,-28.915 v 0 c 5.744,-7.767 13.25,-13.636 22.531,-17.593 v 0 c 9.276,-3.954 20.501,-5.935 33.63,-5.935 v 0 c 13.372,0 24.621,1.957 33.752,5.878 v 0 c 9.113,3.918 16.588,9.722 22.406,17.415 v 0 c 5.664,7.509 9.833,17.163 12.505,28.924 v 0 c 2.682,11.768 4.012,25.076 4.012,39.975 v 0 c 0,14.886 -1.298,28.02 -3.89,39.392 v 0 c -2.599,11.362 -6.754,20.931 -12.51,28.688 v 0 c -5.824,7.92 -13.293,13.878 -22.416,17.884 v 0 c -9.124,3.993 -20.409,5.997 -33.859,5.997 v 0 c -12.894,0 -23.994,-1.942 -33.267,-5.823 m 12.623,-131.779 c -4.248,9.26 -6.377,24.411 -6.377,45.406 v 0 c 0,21.547 2.088,36.86 6.251,45.932 v 0 c 4.173,9.076 11.101,13.615 20.77,13.615 v 0 c 9.675,0 16.603,-4.539 20.765,-13.615 v 0 c 4.178,-9.072 6.258,-24.297 6.258,-45.697 v 0 c 0,-21.155 -2.12,-36.381 -6.372,-45.641 v 0 c -4.252,-9.273 -11.124,-13.901 -20.651,-13.901 v 0 c -9.515,0 -16.389,4.628 -20.644,13.901"
         id="path166" /></clipPath><linearGradient
       x1="0"
       y1="0"
       x2="1"
       y2="0"
       gradientUnits="userSpaceOnUse"
       gradientTransform="matrix(145.34485,0,0,-145.34485,372.57037,329.8483)"
       spreadMethod="pad"
       id="linearGradient190"><stop
         style="stop-opacity:1;stop-color:#f8c616"
         offset="0"
         id="stop174" /><stop
         style="stop-opacity:1;stop-color:#f8c616"
         offset="0.005618"
         id="stop176" /><stop
         style="stop-opacity:1;stop-color:#fffcbf"
         offset="0.252809"
         id="stop178" /><stop
         style="stop-opacity:1;stop-color:#fffcbf"
         offset="0.30312986"
         id="stop180" /><stop
         style="stop-opacity:1;stop-color:#bf8d1e"
         offset="0.595506"
         id="stop182" /><stop
         style="stop-opacity:1;stop-color:#bf8d1e"
         offset="0.60352905"
         id="stop184" /><stop
         style="stop-opacity:1;stop-color:#ecd872"
         offset="0.870786"
         id="stop186" /><stop
         style="stop-opacity:1;stop-color:#fffcbf"
         offset="1"
         id="stop188" /></linearGradient><clipPath
       clipPathUnits="userSpaceOnUse"
       id="clipPath200"><path
         d="m 260.129,416.102 c -9.285,-3.879 -16.828,-9.699 -22.653,-17.468 v 0 c -5.822,-7.837 -10.084,-17.418 -12.74,-28.751 v 0 c -2.683,-11.328 -4.027,-24.67 -4.027,-40.037 v 0 c 0,-14.885 1.301,-28.089 3.896,-39.631 v 0 c 2.603,-11.521 6.811,-21.162 12.631,-28.915 v 0 c 5.744,-7.767 13.256,-13.636 22.53,-17.593 v 0 c 9.27,-3.954 20.498,-5.935 33.634,-5.935 v 0 c 13.37,0 24.61,1.957 33.733,5.878 v 0 c 9.128,3.918 16.595,9.722 22.428,17.415 v 0 c 5.648,7.509 9.835,17.163 12.506,28.924 v 0 c 2.661,11.768 4.003,25.076 4.003,39.975 v 0 c 0,14.886 -1.294,28.02 -3.889,39.392 v 0 c -2.591,11.362 -6.762,20.931 -12.503,28.688 v 0 c -5.828,7.92 -13.305,13.878 -22.425,17.884 v 0 c -9.113,3.993 -20.408,5.997 -33.853,5.997 v 0 c -12.902,0 -24,-1.942 -33.271,-5.823 m 12.61,-131.779 c -4.241,9.26 -6.373,24.411 -6.373,45.406 v 0 c 0,21.547 2.094,36.86 6.263,45.932 v 0 c 4.17,9.076 11.087,13.615 20.771,13.615 v 0 c 9.666,0 16.589,-4.539 20.767,-13.615 v 0 c 4.16,-9.072 6.248,-24.297 6.248,-45.697 v 0 c 0,-21.155 -2.126,-36.381 -6.364,-45.641 v 0 C 309.793,275.05 302.918,270.422 293.4,270.422 v 0 c -9.519,0 -16.412,4.628 -20.661,13.901"
         id="path198" /></clipPath><linearGradient
       x1="0"
       y1="0"
       x2="1"
       y2="0"
       gradientUnits="userSpaceOnUse"
       gradientTransform="matrix(145.36127,0,0,-145.36127,220.70897,329.8483)"
       spreadMethod="pad"
       id="linearGradient222"><stop
         style="stop-opacity:1;stop-color:#f8c616"
         offset="0"
         id="stop206" /><stop
         style="stop-opacity:1;stop-color:#f8c616"
         offset="0.005618"
         id="stop208" /><stop
         style="stop-opacity:1;stop-color:#fffcbf"
         offset="0.252809"
         id="stop210" /><stop
         style="stop-opacity:1;stop-color:#fffcbf"
         offset="0.30312986"
         id="stop212" /><stop
         style="stop-opacity:1;stop-color:#bf8d1e"
         offset="0.595506"
         id="stop214" /><stop
         style="stop-opacity:1;stop-color:#bf8d1e"
         offset="0.60352905"
         id="stop216" /><stop
         style="stop-opacity:1;stop-color:#ecd872"
         offset="0.870786"
         id="stop218" /><stop
         style="stop-opacity:1;stop-color:#fffcbf"
         offset="1"
         id="stop220" /></linearGradient><clipPath
       clipPathUnits="userSpaceOnUse"
       id="clipPath232"><path
         d="m 151.421,421.767 c -0.327,-4.923 -1.548,-9.025 -3.664,-12.309 v 0 c -2.126,-3.277 -5.298,-5.944 -9.542,-8 v 0 c -3.586,-1.727 -8.074,-2.927 -13.45,-3.627 v 0 c -5.378,-0.702 -11.015,-1.05 -16.877,-1.05 v 0 -29.901 h 38.394 v -96.857 h -38.394 v -32.005 h 121.564 v 32.005 H 191.91 v 151.744 z"
         id="path230" /></clipPath><linearGradient
       x1="0"
       y1="0"
       x2="1"
       y2="0"
       gradientUnits="userSpaceOnUse"
       gradientTransform="matrix(121.56361,0,0,-121.56361,107.88882,329.89276)"
       spreadMethod="pad"
       id="linearGradient254"><stop
         style="stop-opacity:1;stop-color:#f8c616"
         offset="0"
         id="stop238" /><stop
         style="stop-opacity:1;stop-color:#f8c616"
         offset="0.005618"
         id="stop240" /><stop
         style="stop-opacity:1;stop-color:#fffcbf"
         offset="0.252809"
         id="stop242" /><stop
         style="stop-opacity:1;stop-color:#fffcbf"
         offset="0.30312986"
         id="stop244" /><stop
         style="stop-opacity:1;stop-color:#bf8d1e"
         offset="0.595506"
         id="stop246" /><stop
         style="stop-opacity:1;stop-color:#bf8d1e"
         offset="0.60352905"
         id="stop248" /><stop
         style="stop-opacity:1;stop-color:#ecd872"
         offset="0.870786"
         id="stop250" /><stop
         style="stop-opacity:1;stop-color:#fffcbf"
         offset="1"
         id="stop252" /></linearGradient><clipPath
       clipPathUnits="userSpaceOnUse"
       id="clipPath264"><path
         d="m 404.689,618.13 h -97.37 v -39.903 c 20.72,-0.063 33.083,-9.565 33.083,-25.449 v 0 c 0,-13.273 -9.623,-26.113 -27.862,-30.321 v 0 c 10.621,-12.175 20.043,-23.024 29.867,-36.311 v 0 c 5.61,11.29 9.529,17.715 9.529,23.687 v 0 c 0,6.643 -2.2,10.41 -7.621,12.624 v 0 3.762 h 18.486 v 54.889 h 37.028 c 11.92,0 26.971,-1.447 38.278,-10.176 v 0 c 10.528,-8.121 18.812,-20.272 18.812,-43.113 v 0 c 0,-22.536 -6.849,-35.399 -17.291,-43.618 v 0 c -7.771,-6.123 -19.769,-10.688 -41.567,-10.688 v 0 h -35.26 v 34.876 c -4.453,-7.04 -8.922,-16.567 -15.183,-28.882 v 0 c 10.622,-13.503 19.077,-21.24 28.657,-22.134 v 0 c 12.294,-1.159 22.244,5.827 22.244,5.827 v 0 c -1.407,-5.336 -10.542,-19.981 -24.984,-24.671 v 0 h 43.062 c 17.243,0 34.983,1.264 54.248,11.447 v 0 c 20.527,10.683 28.893,25.185 33.445,35.614 v 0 c 5.583,12.717 8.12,26.963 8.12,40.956 v 0 c 0,26.716 -8.622,42.485 -12.415,49.098 v 0 c -23.738,41.557 -72.213,42.488 -92.629,42.488 v 0 c -0.956,0 -1.849,-0.002 -2.677,-0.002 m -294.936,0 V 438.529 h 55.589 v 65.378 h 38.486 l 36.761,-65.378 h 42.134 c -18.207,3.865 -30.123,20.069 -30.123,37.433 v 0 c 0,17.052 11.442,30.999 30.877,40.742 v 0 c -10.217,12.391 -14.427,21.032 -14.427,30.543 v 0 c 0,15.588 12.339,30.228 36.505,30.873 v 0 c -3.305,11.547 -9.812,21.829 -18.588,28.563 v 0 c -14.963,10.943 -34.217,11.204 -49.939,11.447 v 0 z m 55.589,-34.98 h 60.752 c 12.084,0 22.059,-6.405 22.059,-22.253 v 0 c 0,-16.042 -12.171,-22.004 -22.059,-22.004 v 0 H 165.342 Z M 299.471,438.529 h 55.537 c -9.956,3.056 -13.8,7.77 -24.024,19.062 v 0 c -10.77,-8.784 -19.065,-16.592 -31.513,-19.062"
         id="path262" /></clipPath><linearGradient
       x1="0"
       y1="0"
       x2="1"
       y2="0"
       gradientUnits="userSpaceOnUse"
       gradientTransform="matrix(402.65607,0,0,-402.65607,109.75336,528.33038)"
       spreadMethod="pad"
       id="linearGradient286"><stop
         style="stop-opacity:1;stop-color:#f8c616"
         offset="0"
         id="stop270" /><stop
         style="stop-opacity:1;stop-color:#f8c616"
         offset="0.005618"
         id="stop272" /><stop
         style="stop-opacity:1;stop-color:#fffcbf"
         offset="0.252809"
         id="stop274" /><stop
         style="stop-opacity:1;stop-color:#fffcbf"
         offset="0.30312986"
         id="stop276" /><stop
         style="stop-opacity:1;stop-color:#bf8d1e"
         offset="0.595506"
         id="stop278" /><stop
         style="stop-opacity:1;stop-color:#bf8d1e"
         offset="0.60352905"
         id="stop280" /><stop
         style="stop-opacity:1;stop-color:#ecd872"
         offset="0.870786"
         id="stop282" /><stop
         style="stop-opacity:1;stop-color:#fffcbf"
         offset="1"
         id="stop284" /></linearGradient><clipPath
       clipPathUnits="userSpaceOnUse"
       id="clipPath296"><path
         d="m 291.665,555.165 c 0,-7.966 4.416,-15.047 15.639,-26.787 v 0 c 7.017,2.215 11.828,8.636 11.828,15.496 v 0 c 0,13.285 -7.416,24.579 -15.838,24.579 v 0 c -7.02,0 -11.629,-5.314 -11.629,-13.288 m -13.627,-64.851 c 0,-19.265 13.224,-35.423 28.866,-35.423 v 0 c 6.819,0 13.433,2.876 19.836,8.408 v 0 c -9.208,12.394 -26.055,35.416 -37.679,46.929 v 0 c -7.816,-5.974 -11.023,-11.067 -11.023,-19.914"
         id="path294" /></clipPath><linearGradient
       x1="0"
       y1="0"
       x2="1"
       y2="0"
       gradientUnits="userSpaceOnUse"
       gradientTransform="matrix(48.702122,0,0,-48.702122,278.03772,511.67245)"
       spreadMethod="pad"
       id="linearGradient318"><stop
         style="stop-opacity:1;stop-color:#f8c616"
         offset="0"
         id="stop302" /><stop
         style="stop-opacity:1;stop-color:#f8c616"
         offset="0.005618"
         id="stop304" /><stop
         style="stop-opacity:1;stop-color:#fffcbf"
         offset="0.252809"
         id="stop306" /><stop
         style="stop-opacity:1;stop-color:#fffcbf"
         offset="0.30312986"
         id="stop308" /><stop
         style="stop-opacity:1;stop-color:#bf8d1e"
         offset="0.595506"
         id="stop310" /><stop
         style="stop-opacity:1;stop-color:#bf8d1e"
         offset="0.60352905"
         id="stop312" /><stop
         style="stop-opacity:1;stop-color:#ecd872"
         offset="0.870786"
         id="stop314" /><stop
         style="stop-opacity:1;stop-color:#fffcbf"
         offset="1"
         id="stop316" /></linearGradient><clipPath
       clipPathUnits="userSpaceOnUse"
       id="clipPath328"><path
         d="M 0,792 H 612 V 0 H 0 Z"
         id="path326" /></clipPath></defs><g
     id="g8"
     transform="matrix(1.3333333,0,0,-1.3333333,0,1056)"><path
       d="M 586.195,17.605 H 27.483 v 755.766 h 558.712 z"
       style="fill:#231f20;fill-opacity:1;fill-rule:nonzero;stroke:url(#linearGradient26);stroke-width:3.957;stroke-linecap:butt;stroke-linejoin:miter;stroke-miterlimit:10;stroke-dasharray:none;stroke-opacity:1"
       id="path28" /><g
       id="g30"><g
         id="g32"
         clip-path="url(#clipPath36)"><g
           id="g38"><g
             id="g40"><path
               d="M 605.474,94.289 H 8.206 v 106.803 h 597.268 z"
               style="fill:url(#linearGradient58);fill-rule:evenodd;stroke:none"
               id="path60" /></g></g></g></g><text
       transform="matrix(1,0,0,-1,236.3638,694.7153)"
       style="font-variant:normal;font-weight:100;font-stretch:normal;font-size:51.5653px;font-family:'Myriad Pro';-inkscape-font-specification:BentonSansWide-Thin;writing-mode:lr-tb;fill:#ffffff;fill-opacity:1;fill-rule:nonzero;stroke:none"
       id="text64"><tspan
         x="0"
         y="0"
         id="tspan62">•</tspan></text><text
       transform="matrix(1,0,0,-1,261.83706,694.7153)"
       style="font-variant:normal;font-weight:300;font-stretch:normal;font-size:51.5653px;font-family:'Myriad Pro';-inkscape-font-specification:BentonSansWide-Light;writing-mode:lr-tb;fill:#ffffff;fill-opacity:1;fill-rule:nonzero;stroke:none"
       id="text68"><tspan
         x="0 27.020218 50.044125 72.010941 98.463943"
         y="0"
         id="tspan66">2019 </tspan></text><text
       transform="matrix(1,0,0,-1,371.23284,694.7153)"
       style="font-variant:normal;font-weight:100;font-stretch:normal;font-size:51.5653px;font-family:'Myriad Pro';-inkscape-font-specification:BentonSansWide-Thin;writing-mode:lr-tb;fill:#ffffff;fill-opacity:1;fill-rule:nonzero;stroke:none"
       id="text72"><tspan
         x="0"
         y="0"
         id="tspan70">•</tspan></text><text
       transform="matrix(0.97000085,0,0,-1,181.4722,120.6875)"
       style="font-style:italic;font-variant:normal;font-weight:900;font-stretch:normal;font-size:70.512px;font-family:'Myriad Pro';-inkscape-font-specification:BentonSansWide-BlackItalic;writing-mode:lr-tb;fill:#231f20;fill-opacity:1;fill-rule:nonzero;stroke:none"
       id="text76"><tspan
         x="0 34.339344 51.191711 97.588608 140.74196 174.02362 190.87598 225.6384"
         y="0"
         id="tspan74">FINALIST</tspan></text><path
       d="M 586.195,17.605 H 27.483 v 755.766 h 558.712 z"
       style="fill:#231f20;fill-opacity:1;fill-rule:nonzero;stroke:url(#linearGradient94);stroke-width:3.957;stroke-linecap:butt;stroke-linejoin:miter;stroke-miterlimit:10;stroke-dasharray:none;stroke-opacity:1"
       id="path96" /><g
       id="g98"><g
         id="g100"
         clip-path="url(#clipPath104)"><g
           id="g106"><g
             id="g108"><path
               d="M 605.474,94.289 H 8.206 v 106.803 h 597.268 z"
               style="fill:url(#linearGradient126);fill-rule:evenodd;stroke:none"
               id="path128" /></g></g></g></g><g
       id="g130"
       transform="translate(113.8613,172.8652)"><path
         d="M 0,0 H 15.593 L 22.295,-33.634 43.222,0 H 57.721 L 64.765,-33.563 85.351,0 h 15.045 L 68.116,-52.39 H 53.549 L 46.573,-18.614 25.509,-52.39 H 10.668 Z"
         style="fill:#231f20;fill-opacity:1;fill-rule:nonzero;stroke:none"
         id="path132" /></g><g
       id="g134"
       transform="translate(223.9111,172.8652)"><path
         d="M 0,0 H 14.909 L 4.172,-52.178 h -14.909 z"
         style="fill:#231f20;fill-opacity:1;fill-rule:nonzero;stroke:none"
         id="path136" /></g><g
       id="g138"
       transform="translate(251.6108,172.8652)"><path
         d="M 0,0 H 16.551 L 37.478,-33.422 44.317,0 H 58.611 L 47.873,-52.178 H 33.238 L 10.806,-16.922 3.557,-52.178 h -14.294 z"
         style="fill:#231f20;fill-opacity:1;fill-rule:nonzero;stroke:none"
         id="path140" /></g><g
       id="g142"
       transform="translate(322.5381,172.8652)"><path
         d="M 0,0 H 16.551 L 37.478,-33.422 44.316,0 H 58.61 L 47.873,-52.178 H 33.237 L 10.806,-16.922 3.557,-52.178 h -14.294 z"
         style="fill:#231f20;fill-opacity:1;fill-rule:nonzero;stroke:none"
         id="path144" /></g><g
       id="g146"
       transform="translate(393.4648,172.8652)"><path
         d="m 0,0 h 49.925 l -2.6,-12.691 H 12.31 l -1.437,-7.122 H 39.461 L 36.999,-31.729 H 8.411 l -1.709,-8.109 h 36.246 l -2.53,-12.34 h -51.155 z"
         style="fill:#231f20;fill-opacity:1;fill-rule:nonzero;stroke:none"
         id="path148" /></g><g
       id="g150"><g
         id="g152"
         clip-path="url(#clipPath156)"><g
           id="g158"
           transform="translate(485.1133,149.5967)"><path
             d="M 0,0 C 3.83,0 6.292,0.635 7.182,4.725 8.002,8.885 5.813,11 -0.479,11 H -18.533 L -20.79,0 Z M -30.639,23.269 H 0.342 c 15.456,0 24.073,-5.923 21.406,-18.967 C 20.038,-4.019 15.046,-7.686 8.891,-9.519 l 6.497,-19.39 H 0.41 l -5.812,17.346 h -17.782 l -3.556,-17.346 h -14.636 z"
             style="fill:#231f20;fill-opacity:1;fill-rule:nonzero;stroke:none"
             id="path160" /></g></g></g><g
       id="g162"><g
         id="g164"
         clip-path="url(#clipPath168)"><g
           id="g170"><g
             id="g172"><path
               d="m 411.973,416.102 c -9.29,-3.879 -16.848,-9.699 -22.651,-17.468 v 0 c -5.831,-7.837 -10.074,-17.418 -12.741,-28.751 v 0 c -2.687,-11.328 -4.011,-24.67 -4.011,-40.037 v 0 c 0,-14.885 1.294,-28.089 3.893,-39.631 v 0 c 2.589,-11.521 6.803,-21.162 12.616,-28.915 v 0 c 5.744,-7.767 13.25,-13.636 22.531,-17.593 v 0 c 9.276,-3.954 20.501,-5.935 33.63,-5.935 v 0 c 13.372,0 24.621,1.957 33.752,5.878 v 0 c 9.113,3.918 16.588,9.722 22.406,17.415 v 0 c 5.664,7.509 9.833,17.163 12.505,28.924 v 0 c 2.682,11.768 4.012,25.076 4.012,39.975 v 0 c 0,14.886 -1.298,28.02 -3.89,39.392 v 0 c -2.599,11.362 -6.754,20.931 -12.51,28.688 v 0 c -5.824,7.92 -13.293,13.878 -22.416,17.884 v 0 c -9.124,3.993 -20.409,5.997 -33.859,5.997 v 0 c -12.894,0 -23.994,-1.942 -33.267,-5.823 m 12.623,-131.779 c -4.248,9.26 -6.377,24.411 -6.377,45.406 v 0 c 0,21.547 2.088,36.86 6.251,45.932 v 0 c 4.173,9.076 11.101,13.615 20.77,13.615 v 0 c 9.675,0 16.603,-4.539 20.765,-13.615 v 0 c 4.178,-9.072 6.258,-24.297 6.258,-45.697 v 0 c 0,-21.155 -2.12,-36.381 -6.372,-45.641 v 0 c -4.252,-9.273 -11.124,-13.901 -20.651,-13.901 v 0 c -9.515,0 -16.389,4.628 -20.644,13.901"
               style="fill:url(#linearGradient190);stroke:none"
               id="path192" /></g></g></g></g><g
       id="g194"><g
         id="g196"
         clip-path="url(#clipPath200)"><g
           id="g202"><g
             id="g204"><path
               d="m 260.129,416.102 c -9.285,-3.879 -16.828,-9.699 -22.653,-17.468 v 0 c -5.822,-7.837 -10.084,-17.418 -12.74,-28.751 v 0 c -2.683,-11.328 -4.027,-24.67 -4.027,-40.037 v 0 c 0,-14.885 1.301,-28.089 3.896,-39.631 v 0 c 2.603,-11.521 6.811,-21.162 12.631,-28.915 v 0 c 5.744,-7.767 13.256,-13.636 22.53,-17.593 v 0 c 9.27,-3.954 20.498,-5.935 33.634,-5.935 v 0 c 13.37,0 24.61,1.957 33.733,5.878 v 0 c 9.128,3.918 16.595,9.722 22.428,17.415 v 0 c 5.648,7.509 9.835,17.163 12.506,28.924 v 0 c 2.661,11.768 4.003,25.076 4.003,39.975 v 0 c 0,14.886 -1.294,28.02 -3.889,39.392 v 0 c -2.591,11.362 -6.762,20.931 -12.503,28.688 v 0 c -5.828,7.92 -13.305,13.878 -22.425,17.884 v 0 c -9.113,3.993 -20.408,5.997 -33.853,5.997 v 0 c -12.902,0 -24,-1.942 -33.271,-5.823 m 12.61,-131.779 c -4.241,9.26 -6.373,24.411 -6.373,45.406 v 0 c 0,21.547 2.094,36.86 6.263,45.932 v 0 c 4.17,9.076 11.087,13.615 20.771,13.615 v 0 c 9.666,0 16.589,-4.539 20.767,-13.615 v 0 c 4.16,-9.072 6.248,-24.297 6.248,-45.697 v 0 c 0,-21.155 -2.126,-36.381 -6.364,-45.641 v 0 C 309.793,275.05 302.918,270.422 293.4,270.422 v 0 c -9.519,0 -16.412,4.628 -20.661,13.901"
               style="fill:url(#linearGradient222);stroke:none"
               id="path224" /></g></g></g></g><g
       id="g226"><g
         id="g228"
         clip-path="url(#clipPath232)"><g
           id="g234"><g
             id="g236"><path
               d="m 151.421,421.767 c -0.327,-4.923 -1.548,-9.025 -3.664,-12.309 v 0 c -2.126,-3.277 -5.298,-5.944 -9.542,-8 v 0 c -3.586,-1.727 -8.074,-2.927 -13.45,-3.627 v 0 c -5.378,-0.702 -11.015,-1.05 -16.877,-1.05 v 0 -29.901 h 38.394 v -96.857 h -38.394 v -32.005 h 121.564 v 32.005 H 191.91 v 151.744 z"
               style="fill:url(#linearGradient254);stroke:none"
               id="path256" /></g></g></g></g><g
       id="g258"><g
         id="g260"
         clip-path="url(#clipPath264)"><g
           id="g266"><g
             id="g268"><path
               d="m 404.689,618.13 h -97.37 v -39.903 c 20.72,-0.063 33.083,-9.565 33.083,-25.449 v 0 c 0,-13.273 -9.623,-26.113 -27.862,-30.321 v 0 c 10.621,-12.175 20.043,-23.024 29.867,-36.311 v 0 c 5.61,11.29 9.529,17.715 9.529,23.687 v 0 c 0,6.643 -2.2,10.41 -7.621,12.624 v 0 3.762 h 18.486 v 54.889 h 37.028 c 11.92,0 26.971,-1.447 38.278,-10.176 v 0 c 10.528,-8.121 18.812,-20.272 18.812,-43.113 v 0 c 0,-22.536 -6.849,-35.399 -17.291,-43.618 v 0 c -7.771,-6.123 -19.769,-10.688 -41.567,-10.688 v 0 h -35.26 v 34.876 c -4.453,-7.04 -8.922,-16.567 -15.183,-28.882 v 0 c 10.622,-13.503 19.077,-21.24 28.657,-22.134 v 0 c 12.294,-1.159 22.244,5.827 22.244,5.827 v 0 c -1.407,-5.336 -10.542,-19.981 -24.984,-24.671 v 0 h 43.062 c 17.243,0 34.983,1.264 54.248,11.447 v 0 c 20.527,10.683 28.893,25.185 33.445,35.614 v 0 c 5.583,12.717 8.12,26.963 8.12,40.956 v 0 c 0,26.716 -8.622,42.485 -12.415,49.098 v 0 c -23.738,41.557 -72.213,42.488 -92.629,42.488 v 0 c -0.956,0 -1.849,-0.002 -2.677,-0.002 m -294.936,0 V 438.529 h 55.589 v 65.378 h 38.486 l 36.761,-65.378 h 42.134 c -18.207,3.865 -30.123,20.069 -30.123,37.433 v 0 c 0,17.052 11.442,30.999 30.877,40.742 v 0 c -10.217,12.391 -14.427,21.032 -14.427,30.543 v 0 c 0,15.588 12.339,30.228 36.505,30.873 v 0 c -3.305,11.547 -9.812,21.829 -18.588,28.563 v 0 c -14.963,10.943 -34.217,11.204 -49.939,11.447 v 0 z m 55.589,-34.98 h 60.752 c 12.084,0 22.059,-6.405 22.059,-22.253 v 0 c 0,-16.042 -12.171,-22.004 -22.059,-22.004 v 0 H 165.342 Z M 299.471,438.529 h 55.537 c -9.956,3.056 -13.8,7.77 -24.024,19.062 v 0 c -10.77,-8.784 -19.065,-16.592 -31.513,-19.062"
               style="fill:url(#linearGradient286);stroke:none"
               id="path288" /></g></g></g></g><g
       id="g290"><g
         id="g292"
         clip-path="url(#clipPath296)"><g
           id="g298"><g
             id="g300"><path
               d="m 291.665,555.165 c 0,-7.966 4.416,-15.047 15.639,-26.787 v 0 c 7.017,2.215 11.828,8.636 11.828,15.496 v 0 c 0,13.285 -7.416,24.579 -15.838,24.579 v 0 c -7.02,0 -11.629,-5.314 -11.629,-13.288 m -13.627,-64.851 c 0,-19.265 13.224,-35.423 28.866,-35.423 v 0 c 6.819,0 13.433,2.876 19.836,8.408 v 0 c -9.208,12.394 -26.055,35.416 -37.679,46.929 v 0 c -7.816,-5.974 -11.023,-11.067 -11.023,-19.914"
               style="fill:url(#linearGradient318);stroke:none"
               id="path320" /></g></g></g></g><g
       id="g322"><g
         id="g324"
         clip-path="url(#clipPath328)"><g
           id="g330"
           transform="translate(237.4482,659.4985)"><path
             d="M 0,0 H 23.941 V -4.98 H -5.481 v 3.06 c 0,7.56 3.78,12.059 13.797,16.439 7.561,3.3 10.207,6 10.207,10.26 0,4.26 -2.835,6.96 -8.757,6.96 -5.986,0 -9.199,-2.7 -9.199,-8.16 v -0.84 h -5.419 v 1.38 c 0,8.04 5.356,12.42 14.681,12.42 9.324,0 14.238,-4.5 14.238,-11.64 0,-6.48 -3.591,-10.44 -13.105,-14.52 C 3.087,7.02 0.252,4.379 0,0"
             style="fill:#ffffff;fill-opacity:1;fill-rule:nonzero;stroke:none"
             id="path332" /></g><g
           id="g334"
           transform="translate(294.4634,667.7178)"><path
             d="m 0,0 v 14.399 c 0,6.121 -3.024,9.121 -9.199,9.121 -6.174,0 -9.198,-3 -9.198,-9.121 V 0 c 0,-6.12 3.024,-9.119 9.198,-9.119 C -3.024,-9.119 0,-6.12 0,0 m -23.941,-0.36 v 15.12 c 0,8.819 5.166,13.559 14.742,13.559 9.577,0 14.743,-4.74 14.743,-13.559 V -0.36 c 0,-8.819 -5.166,-13.559 -14.743,-13.559 -9.576,0 -14.742,4.74 -14.742,13.559"
             style="fill:#ffffff;fill-opacity:1;fill-rule:nonzero;stroke:none"
             id="path336" /></g><g
           id="g338"
           transform="translate(314.5586,659.4985)"><path
             d="M 0,0 H 23.941 V -4.98 H -5.481 v 3.06 c 0,7.56 3.78,12.059 13.797,16.439 7.561,3.3 10.207,6 10.207,10.26 0,4.26 -2.835,6.96 -8.757,6.96 -5.986,0 -9.199,-2.7 -9.199,-8.16 v -0.84 h -5.419 v 1.38 c 0,8.04 5.356,12.42 14.68,12.42 9.325,0 14.239,-4.5 14.239,-11.64 0,-6.48 -3.591,-10.44 -13.104,-14.52 C 3.087,7.02 0.252,4.379 0,0"
             style="fill:#ffffff;fill-opacity:1;fill-rule:nonzero;stroke:none"
             id="path340" /></g><g
           id="g342"
           transform="translate(377.874,659.4985)"><path
             d="M 0,0 V -4.98 H -26.588 V 0 h 10.523 v 28.859 c -3.529,-2.34 -7.561,-2.82 -11.783,-2.94 v 4.68 c 5.418,0.18 9.199,1.739 12.035,5.219 h 5.292 l 0,-35.818 z"
             style="fill:#ffffff;fill-opacity:1;fill-rule:nonzero;stroke:none"
             id="path344" /></g></g></g></g></svg>
